<?xml version="1.0" encoding="UTF-8" standalone="no"?>
<svg
   xmlns:dc="http://purl.org/dc/elements/1.1/"
   xmlns:cc="http://creativecommons.org/ns#"
   xmlns:rdf="http://www.w3.org/1999/02/22-rdf-syntax-ns#"
   xmlns:svg="http://www.w3.org/2000/svg"
   xmlns="http://www.w3.org/2000/svg"
   version="1.1"
   id="svg2"
   xml:space="preserve"
   width="2560"
   height="1440"
   viewBox="0 0 2560 1440"><metadata
     id="metadata8"><rdf:RDF><cc:Work
         rdf:about=""><dc:format>image/svg+xml</dc:format><dc:type
           rdf:resource="http://purl.org/dc/dcmitype/StillImage" /><dc:title></dc:title></cc:Work></rdf:RDF></metadata><defs
     id="defs6"><clipPath
       clipPathUnits="userSpaceOnUse"
       id="clipPath20"><path
         d="M 0.5,0.25 H 1919.999 V 1080 H 0.5 Z"
         id="path18" /></clipPath><clipPath
       clipPathUnits="userSpaceOnUse"
       id="clipPath28"><path
         d="m 837.135,568.252 h 542.325 v -893.86 H 837.135 Z"
         id="path26" /></clipPath><clipPath
       clipPathUnits="userSpaceOnUse"
       id="clipPath44"><path
         d="M 1155.54,968.251 H 2861.53 V 193.966 H 1155.54 Z"
         id="path42" /></clipPath><clipPath
       clipPathUnits="userSpaceOnUse"
       id="clipPath60"><path
         d="M -767.756,1015.36 H 442.391 V 243.08 H -767.756 Z"
         id="path58" /></clipPath><clipPath
       clipPathUnits="userSpaceOnUse"
       id="clipPath76"><path
         d="M 126.062,1364.25 H 1229.01 V 166.978 H 126.062 Z"
         id="path74" /></clipPath><clipPath
       clipPathUnits="userSpaceOnUse"
       id="clipPath92"><path
         d="M 0,1080 H 1920 V 0 H 0 Z"
         id="path90" /></clipPath><clipPath
       clipPathUnits="userSpaceOnUse"
       id="clipPath100"><path
         d="M 0.132,-1146.527 H 1919.868 V -66.675 H 0.132 Z"
         id="path98" /></clipPath><clipPath
       clipPathUnits="userSpaceOnUse"
       id="clipPath108"><path
         d="M 898.007,437.256 H 1408.93 V -456.48 H 898.007 Z"
         id="path106" /></clipPath><clipPath
       clipPathUnits="userSpaceOnUse"
       id="clipPath124"><path
         d="m 2003.728,0.25 h 1919.5 v 1080 h -1919.5 z"
         id="path122" /></clipPath><clipPath
       clipPathUnits="userSpaceOnUse"
       id="clipPath132"><path
         d="m 1817.39,366.75 h 438.79 V 86.7279 h -438.79 z"
         id="path130" /></clipPath></defs><g
     id="g10"
     transform="matrix(1.3333333,0,0,-1.3333333,0,1440)"><path
       d="m 0,0 h 1920 l 0,1080 H 0 Z"
       style="fill:#faf0f0;fill-opacity:1;fill-rule:nonzero;stroke:none"
       id="path12" /><g
       id="g14"><g
         id="g16"
         clip-path="url(#clipPath20)"><g
           id="g22"><g
             id="g24" /><g
             id="g36"><g
               clip-path="url(#clipPath28)"
               id="g34"
               style="opacity:0.60000598"><g
                 transform="translate(861.5142,518.8437)"
                 id="g32"><path
                   d="m 0,0 116.878,46.446 c 20.297,8.062 43.681,-0.9 52.237,-20.024 L 514.79,-745.836 c 8.581,-19.118 -0.937,-41.148 -21.227,-49.226 l -116.877,-46.422 c -20.273,-8.07 -43.68,0.882 -52.222,20.016 L -21.235,-49.234 C -29.792,-30.102 -20.282,-8.07 0,0"
                   style="fill:#ffffff;fill-opacity:1;fill-rule:nonzero;stroke:none"
                   id="path30" /></g></g></g></g><g
           id="g38"><g
             id="g40" /><g
             id="g52"><g
               clip-path="url(#clipPath44)"
               id="g50"
               style="opacity:0.60000598"><g
                 transform="translate(1473.623,255.9687)"
                 id="g48"><path
                   d="m 0,0 c -91.121,44.313 -168.721,110.766 -225.544,194.594 -99.709,147.218 -119.552,326.968 -56.071,489.28 9.273,23.72 37.968,35.048 62.286,24.376 l 104.997,-46.078 c 21.175,-9.298 31.4,-32.14 23.797,-52.968 -37.716,-103.376 -23.985,-216.72 39.122,-309.86 55.136,-81.36 140.347,-137.532 239.854,-158.172 99.533,-20.609 201.976,-3.328 288.414,48.718 l 781.27,471.422 c 18.544,11.188 43.193,6.094 55.094,-11.374 l 68.385,-100.642 c 11.884,-17.468 6.474,-40.718 -12.079,-51.906 L 588.171,25.906 C 455.137,-54.156 297.46,-80.704 144.057,-48.906 93.321,-38.406 45.022,-21.906 0,0"
                   style="fill:#ffffff;fill-opacity:1;fill-rule:nonzero;stroke:none"
                   id="path46" /></g></g></g></g><g
           id="g54"><g
             id="g56" /><g
             id="g68"><g
               clip-path="url(#clipPath60)"
               id="g66"
               style="opacity:0.60000598"><g
                 transform="translate(-697.5825,261.5312)"
                 id="g64"><path
                   d="m 0,0 -64.607,102.844 c -11.216,17.86 -4.948,40.89 14.007,51.468 l 1065.783,594.266 c 18.949,10.578 43.427,4.672 54.628,-13.188 l 64.596,-102.844 c 11.218,-17.858 4.946,-40.906 -14.009,-51.468 L 54.62,-13.204 C 35.662,-23.782 11.209,-17.86 0,0"
                   style="fill:#ffffff;fill-opacity:1;fill-rule:nonzero;stroke:none"
                   id="path62" /></g></g></g></g><g
           id="g70"><g
             id="g72" /><g
             id="g84"><g
               clip-path="url(#clipPath76)"
               id="g82"
               style="opacity:0.60000598"><g
                 transform="translate(331.5005,195.3613)"
                 id="g80"><path
                   d="m 0,0 -200.259,333.145 c -10.844,18.063 -4.111,40.991 15.058,51.203 l 110.344,58.906 c 19.171,10.214 43.514,3.868 54.361,-14.176 l 129.381,-215.25 606.396,937.036 c 11.459,17.722 36.001,23.328 54.806,12.522 l 108.288,-62.21 c 18.806,-10.808 24.76,-33.918 13.3,-51.634 L 210.407,-3.188 C 200.125,-19.098 181.651,-28.68 161.9,-28.376 l -114.257,1.74 C 27.876,-26.34 9.751,-16.208 0,0"
                   style="fill:#ffffff;fill-opacity:1;fill-rule:nonzero;stroke:none"
                   id="path78" /></g></g></g></g></g></g><g
       id="g86"><g
         id="g88"
         clip-path="url(#clipPath92)"><g
           id="g94"><g
             id="g96"
             clip-path="url(#clipPath100)"><g
               id="g102"><g
                 id="g104" /><g
                 id="g116"><g
                   clip-path="url(#clipPath108)"
                   id="g114"
                   style="opacity:0.60000598"><g
                     transform="translate(920.9741,387.8555)"
                     id="g112"><path
                       d="m 0,0 110.111,46.439 c 19.121,8.061 41.15,-0.9 49.211,-20.021 l 325.657,-772.151 c 8.085,-19.116 -0.882,-41.143 -19.997,-49.22 l -110.108,-46.415 c -19.1,-8.069 -41.151,0.882 -49.198,20.013 L -20.005,-49.228 C -28.066,-30.098 -19.107,-8.069 0,0"
                       style="fill:#ffffff;fill-opacity:1;fill-rule:nonzero;stroke:none"
                       id="path110" /></g></g></g></g></g></g><g
           id="g118"><g
             id="g120"
             clip-path="url(#clipPath124)"><g
               id="g126"><g
                 id="g128" /><g
                 id="g140"><g
                   clip-path="url(#clipPath132)"
                   id="g138"
                   style="opacity:0.60000598"><g
                     transform="translate(1842.834,93.418)"
                     id="g136"><path
                       d="m 0,0 -23.426,37.29 c -4.066,6.477 -1.794,14.827 5.079,18.662 l 386.443,215.476 c 6.871,3.835 15.747,1.694 19.808,-4.782 l 23.422,-37.291 c 4.068,-6.475 1.793,-14.832 -5.08,-18.662 L 19.805,-4.787 C 12.931,-8.623 4.064,-6.476 0,0"
                       style="fill:#ffffff;fill-opacity:1;fill-rule:nonzero;stroke:none"
                       id="path134" /></g></g></g></g></g></g></g></g></g></svg>