<?xml version="1.0" encoding="UTF-8" standalone="no"?>
<svg
   xmlns:dc="http://purl.org/dc/elements/1.1/"
   xmlns:cc="http://creativecommons.org/ns#"
   xmlns:rdf="http://www.w3.org/1999/02/22-rdf-syntax-ns#"
   xmlns:svg="http://www.w3.org/2000/svg"
   xmlns="http://www.w3.org/2000/svg"
   viewBox="0 0 2560 1440"
   height="1440"
   width="2560"
   xml:space="preserve"
   id="svg2"
   version="1.1"><metadata
     id="metadata8"><rdf:RDF><cc:Work
         rdf:about=""><dc:format>image/svg+xml</dc:format><dc:type
           rdf:resource="http://purl.org/dc/dcmitype/StillImage" /><dc:title></dc:title></cc:Work></rdf:RDF></metadata><defs
     id="defs6"><clipPath
       id="clipPath20"
       clipPathUnits="userSpaceOnUse"><path
         id="path18"
         d="M 0.5,0.25 H 1919.999 V 1080 H 0.5 Z" /></clipPath><clipPath
       id="clipPath44"
       clipPathUnits="userSpaceOnUse"><path
         id="path42"
         d="M 0,1080 H 1920 V 0 H 0 Z" /></clipPath><clipPath
       id="clipPath52"
       clipPathUnits="userSpaceOnUse"><path
         id="path50"
         d="M 0.132,-1146.527 H 1919.868 V -66.675 H 0.132 Z" /></clipPath><clipPath
       id="clipPath64"
       clipPathUnits="userSpaceOnUse"><path
         id="path62"
         d="m 2003.728,0.25 h 1919.5 v 1080 h -1919.5 z" /></clipPath></defs><g
     transform="matrix(1.3333333,0,0,-1.3333333,0,1440)"
     id="g10"><path
       id="path12"
       style="fill:#0a3734;fill-opacity:1;fill-rule:nonzero;stroke:none"
       d="m 0,0 h 1920 l 0,1080 -1920,0 z" /><g
       id="g14"><g
         clip-path="url(#clipPath20)"
         id="g16"><g
           transform="translate(861.5142,518.8437)"
           id="g22"><path
             id="path24"
             style="fill:#ffffff;fill-opacity:1;fill-rule:nonzero;stroke:none"
             d="m 0,0 116.878,46.446 c 20.297,8.062 43.681,-0.9 52.237,-20.024 L 514.79,-745.836 c 8.581,-19.118 -0.937,-41.148 -21.227,-49.226 l -116.877,-46.422 c -20.273,-8.07 -43.68,0.882 -52.222,20.016 L -21.235,-49.234 C -29.792,-30.102 -20.282,-8.07 0,0" /></g><g
           transform="translate(1473.623,255.9687)"
           id="g26"><path
             id="path28"
             style="fill:#00919b;fill-opacity:1;fill-rule:nonzero;stroke:none"
             d="m 0,0 c -91.121,44.313 -168.721,110.766 -225.544,194.594 -99.709,147.218 -119.552,326.968 -56.071,489.28 9.273,23.72 37.968,35.048 62.286,24.376 l 104.997,-46.078 c 21.175,-9.298 31.4,-32.14 23.797,-52.968 -37.716,-103.376 -23.985,-216.72 39.122,-309.86 55.136,-81.36 140.347,-137.532 239.854,-158.172 99.533,-20.609 201.976,-3.328 288.414,48.718 l 781.27,471.422 c 18.544,11.188 43.193,6.094 55.094,-11.374 l 68.385,-100.642 c 11.884,-17.468 6.474,-40.718 -12.079,-51.906 L 588.171,25.906 C 455.137,-54.156 297.46,-80.704 144.057,-48.906 93.321,-38.406 45.022,-21.906 0,0" /></g><g
           transform="translate(-697.5825,261.5312)"
           id="g30"><path
             id="path32"
             style="fill:#ffffff;fill-opacity:1;fill-rule:nonzero;stroke:none"
             d="m 0,0 -64.607,102.844 c -11.216,17.86 -4.948,40.89 14.007,51.468 l 1065.783,594.266 c 18.949,10.578 43.427,4.672 54.628,-13.188 l 64.596,-102.844 c 11.218,-17.858 4.946,-40.906 -14.009,-51.468 L 54.62,-13.204 C 35.662,-23.782 11.209,-17.86 0,0" /></g><g
           transform="translate(331.5005,195.3613)"
           id="g34"><path
             id="path36"
             style="fill:#ff5a5f;fill-opacity:1;fill-rule:nonzero;stroke:none"
             d="m 0,0 -200.259,333.145 c -10.844,18.063 -4.111,40.991 15.058,51.203 l 110.344,58.906 c 19.171,10.214 43.514,3.868 54.361,-14.176 l 129.381,-215.25 606.396,937.036 c 11.459,17.722 36.001,23.328 54.806,12.522 l 108.288,-62.21 c 18.806,-10.808 24.76,-33.918 13.3,-51.634 L 210.407,-3.188 C 200.125,-19.098 181.651,-28.68 161.9,-28.376 l -114.257,1.74 C 27.876,-26.34 9.751,-16.208 0,0" /></g></g></g><g
       id="g38"><g
         clip-path="url(#clipPath44)"
         id="g40"><g
           id="g46"><g
             clip-path="url(#clipPath52)"
             id="g48"><g
               transform="translate(920.9741,387.8555)"
               id="g54"><path
                 id="path56"
                 style="fill:#ffffff;fill-opacity:1;fill-rule:nonzero;stroke:none"
                 d="m 0,0 110.111,46.439 c 19.121,8.061 41.15,-0.9 49.211,-20.021 l 325.657,-772.151 c 8.085,-19.116 -0.882,-41.143 -19.997,-49.22 l -110.108,-46.415 c -19.1,-8.069 -41.151,0.882 -49.198,20.013 L -20.005,-49.228 C -28.066,-30.098 -19.107,-8.069 0,0" /></g></g></g><g
           id="g58"><g
             clip-path="url(#clipPath64)"
             id="g60"><g
               transform="translate(1842.834,93.418)"
               id="g66"><path
                 id="path68"
                 style="fill:#ffffff;fill-opacity:1;fill-rule:nonzero;stroke:none"
                 d="m 0,0 -23.426,37.29 c -4.066,6.477 -1.794,14.827 5.079,18.662 l 386.443,215.476 c 6.871,3.835 15.747,1.694 19.808,-4.782 l 23.422,-37.291 c 4.068,-6.475 1.793,-14.832 -5.08,-18.662 L 19.805,-4.787 C 12.931,-8.623 4.064,-6.476 0,0" /></g></g></g></g></g></g></svg>