<?xml version="1.0" encoding="UTF-8" standalone="no"?>
<svg
   xmlns:dc="http://purl.org/dc/elements/1.1/"
   xmlns:cc="http://creativecommons.org/ns#"
   xmlns:rdf="http://www.w3.org/1999/02/22-rdf-syntax-ns#"
   xmlns:svg="http://www.w3.org/2000/svg"
   xmlns="http://www.w3.org/2000/svg"
   version="1.1"
   id="svg2"
   xml:space="preserve"
   width="2560"
   height="1440"
   viewBox="0 0 2560 1440"><metadata
     id="metadata8"><rdf:RDF><cc:Work
         rdf:about=""><dc:format>image/svg+xml</dc:format><dc:type
           rdf:resource="http://purl.org/dc/dcmitype/StillImage" /><dc:title></dc:title></cc:Work></rdf:RDF></metadata><defs
     id="defs6"><clipPath
       clipPathUnits="userSpaceOnUse"
       id="clipPath18"><path
         d="M 0,1080 H 1920 V 0 H 0 Z"
         id="path16" /></clipPath><clipPath
       clipPathUnits="userSpaceOnUse"
       id="clipPath26"><path
         d="m -2002.727,0.25 h 1919.5 v 1080 h -1919.5 z"
         id="path24" /></clipPath><clipPath
       clipPathUnits="userSpaceOnUse"
       id="clipPath34"><path
         d="M -847.685,968.251 H 858.304 V 193.966 H -847.685 Z"
         id="path32" /></clipPath><clipPath
       clipPathUnits="userSpaceOnUse"
       id="clipPath52"><path
         d="M 0.5,0.25 H 1919.999 V 1080 H 0.5 Z"
         id="path50" /></clipPath><clipPath
       clipPathUnits="userSpaceOnUse"
       id="clipPath60"><path
         d="M 396.081,204.632 H 592.724 V -119.473 H 396.081 Z"
         id="path58" /></clipPath><clipPath
       clipPathUnits="userSpaceOnUse"
       id="clipPath76"><path
         d="M 783.886,626.843 H 944.07 V 290.176 H 783.886 Z"
         id="path74" /></clipPath><clipPath
       clipPathUnits="userSpaceOnUse"
       id="clipPath92"><path
         d="M 454.487,764.56 H 692.808 V 458.51 H 454.487 Z"
         id="path90" /></clipPath><clipPath
       clipPathUnits="userSpaceOnUse"
       id="clipPath108"><path
         d="M 19.0921,1194.32 H 257.414 V 888.271 H 19.0921 Z"
         id="path106" /></clipPath><clipPath
       clipPathUnits="userSpaceOnUse"
       id="clipPath124"><path
         d="m 1319.47,349.668 h 313.28 V 125.291 h -313.28 z"
         id="path122" /></clipPath><clipPath
       clipPathUnits="userSpaceOnUse"
       id="clipPath140"><path
         d="m 1493.32,160.191 h 307.25 V -80.1044 h -307.25 z"
         id="path138" /></clipPath><clipPath
       clipPathUnits="userSpaceOnUse"
       id="clipPath156"><path
         d="m 1037.13,1224.93 h 261.92 V 934.57 h -261.92 z"
         id="path154" /></clipPath><clipPath
       clipPathUnits="userSpaceOnUse"
       id="clipPath172"><path
         d="m 809.854,1225.01 h 93.952 V 886.331 h -93.952 z"
         id="path170" /></clipPath><clipPath
       clipPathUnits="userSpaceOnUse"
       id="clipPath188"><path
         d="M 974.763,686.543 H 1144.69 V 351.639 H 974.763 Z"
         id="path186" /></clipPath><clipPath
       clipPathUnits="userSpaceOnUse"
       id="clipPath204"><path
         d="M 511.533,349.668 H 1130.11 V 68.9197 H 511.533 Z"
         id="path202" /></clipPath><clipPath
       clipPathUnits="userSpaceOnUse"
       id="clipPath220"><path
         d="M 155.877,1024.57 H 753.096 V 656.224 H 155.877 Z"
         id="path218" /></clipPath><clipPath
       clipPathUnits="userSpaceOnUse"
       id="clipPath236"><path
         d="M 1496.45,1347.42 H 1813.5 V 735.174 h -317.05 z"
         id="path234" /></clipPath><clipPath
       clipPathUnits="userSpaceOnUse"
       id="clipPath252"><path
         d="m 1742.73,436.493 h 553.14 V 38.4659 h -553.14 z"
         id="path250" /></clipPath><clipPath
       clipPathUnits="userSpaceOnUse"
       id="clipPath268"><path
         d="M -185.837,366.75 H 252.951 V 86.7279 h -438.788 z"
         id="path266" /></clipPath><clipPath
       clipPathUnits="userSpaceOnUse"
       id="clipPath284"><path
         d="m 1287.42,702.976 h 418.07 V 390.805 h -418.07 z"
         id="path282" /></clipPath><clipPath
       clipPathUnits="userSpaceOnUse"
       id="clipPath300"><path
         d="M -70.7781,742.881 H 347.284 V 430.709 H -70.7781 Z"
         id="path298" /></clipPath><clipPath
       clipPathUnits="userSpaceOnUse"
       id="clipPath316"><path
         d="m 1194.19,1011.98 h 452.75 V 764.56 h -452.75 z"
         id="path314" /></clipPath><clipPath
       clipPathUnits="userSpaceOnUse"
       id="clipPath332"><path
         d="M 138.253,493.253 H 538.17 V 59.1342 H 138.253 Z"
         id="path330" /></clipPath><clipPath
       clipPathUnits="userSpaceOnUse"
       id="clipPath348"><path
         d="M 683.272,940.882 H 1143.73 V 588.238 H 683.272 Z"
         id="path346" /></clipPath><clipPath
       clipPathUnits="userSpaceOnUse"
       id="clipPath364"><path
         d="m 1632.75,686.543 h 511.3 V 487.047 h -511.3 z"
         id="path362" /></clipPath><clipPath
       clipPathUnits="userSpaceOnUse"
       id="clipPath380"><path
         d="m 1059.73,546.89 h 227.69 V 40.0434 h -227.69 z"
         id="path378" /></clipPath></defs><g
     id="g10"
     transform="matrix(1.3336813,0,0,-1.333642,-0.66684067,1440.3334)"><g
       id="g12"><g
         id="g14"
         clip-path="url(#clipPath18)"><g
           id="g20"><g
             id="g22"
             clip-path="url(#clipPath26)"><g
               id="g28"><g
                 id="g30" /><g
                 id="g42"><g
                   clip-path="url(#clipPath34)"
                   id="g40"
                   style="opacity:0.14999402"><g
                     transform="translate(-529.6041,255.9687)"
                     id="g38"><path
                       d="m 0,0 c -91.121,44.313 -168.721,110.766 -225.544,194.594 -99.709,147.218 -119.552,326.968 -56.071,489.28 9.273,23.72 37.968,35.048 62.286,24.376 l 104.997,-46.078 c 21.175,-9.298 31.4,-32.14 23.797,-52.968 -37.716,-103.376 -23.985,-216.72 39.122,-309.86 55.136,-81.36 140.347,-137.532 239.854,-158.172 99.533,-20.609 201.976,-3.328 288.414,48.718 l 781.27,471.422 c 18.544,11.188 43.193,6.094 55.094,-11.374 l 68.385,-100.642 c 11.884,-17.468 6.474,-40.718 -12.079,-51.906 L 588.171,25.906 C 455.137,-54.156 297.46,-80.704 144.057,-48.906 93.321,-38.406 45.022,-21.906 0,0"
                       style="fill:#ffffff;fill-opacity:1;fill-rule:nonzero;stroke:none"
                       id="path36" /></g></g></g></g></g></g></g></g><path
       d="M 0.50000001,0.24999213 H 1919.9991 L 1919.9991,1080 0.50000001,1080 Z"
       style="fill:#00919b;fill-opacity:1;fill-rule:nonzero;stroke:none"
       id="path44" /><g
       id="g46"><g
         id="g48"
         clip-path="url(#clipPath52)"><g
           id="g54"><g
             id="g56" /><g
             id="g68"><g
               clip-path="url(#clipPath60)"
               id="g66"
               style="opacity:0.14999402"><g
                 transform="translate(404.9212,186.7178)"
                 id="g64"><path
                   d="m 0,0 42.379,16.841 c 7.359,2.923 15.838,-0.327 18.94,-7.261 l 125.338,-280.014 c 3.113,-6.931 -0.339,-14.92 -7.696,-17.848 l -42.378,-16.832 c -7.352,-2.927 -15.838,0.319 -18.936,7.257 L -7.7,-17.853 C -10.803,-10.915 -7.354,-2.927 0,0"
                   style="fill:#ffffff;fill-opacity:1;fill-rule:nonzero;stroke:none"
                   id="path62" /></g></g></g></g><g
           id="g70"><g
             id="g72" /><g
             id="g84"><g
               clip-path="url(#clipPath76)"
               id="g82"
               style="opacity:0.14999402"><g
                 transform="translate(837.0492,291.0039)"
                 id="g80"><path
                   d="m 0,0 -43.042,15.067 c -7.474,2.618 -11.745,10.63 -9.542,17.9 L 36.35,326.579 c 2.195,7.275 10.038,11.044 17.513,8.432 l 43.036,-15.073 c 7.469,-2.61 11.749,-10.625 9.539,-17.894 L 17.518,8.433 C 15.313,1.16 7.472,-2.611 0,0"
                   style="fill:#ffffff;fill-opacity:1;fill-rule:nonzero;stroke:none"
                   id="path78" /></g></g></g></g><g
           id="g86"><g
             id="g88" /><g
             id="g100"><g
               clip-path="url(#clipPath92)"
               id="g98"
               style="opacity:0.14999402"><g
                 transform="translate(461.2777,738.6406)"
                 id="g96"><path
                   d="m 0,0 38.958,23.704 c 6.766,4.115 15.668,2.332 19.889,-3.984 l 170.487,-255.052 c 4.23,-6.313 2.165,-14.766 -4.597,-18.886 l -38.959,-23.695 c -6.756,-4.117 -15.668,-2.339 -19.883,3.981 L -4.6,-18.89 C -8.82,-12.57 -6.76,-4.117 0,0"
                   style="fill:#ffffff;fill-opacity:1;fill-rule:nonzero;stroke:none"
                   id="path94" /></g></g></g></g><g
           id="g102"><g
             id="g104" /><g
             id="g116"><g
               clip-path="url(#clipPath108)"
               id="g114"
               style="opacity:0.14999402"><g
                 transform="translate(25.8831,1168.4023)"
                 id="g112"><path
                   d="m 0,0 38.958,23.704 c 6.766,4.115 15.668,2.332 19.889,-3.984 l 170.487,-255.052 c 4.229,-6.313 2.165,-14.766 -4.597,-18.886 l -38.959,-23.696 c -6.757,-4.116 -15.667,-2.338 -19.882,3.983 L -4.6,-18.89 C -8.82,-12.57 -6.76,-4.117 0,0"
                   style="fill:#ffffff;fill-opacity:1;fill-rule:nonzero;stroke:none"
                   id="path110" /></g></g></g></g><g
           id="g118"><g
             id="g120" /><g
             id="g132"><g
               clip-path="url(#clipPath124)"
               id="g130"
               style="opacity:0.14999402"><g
                 transform="translate(1342.6185,132.7812)"
                 id="g128"><path
                   d="m 0,0 -21.372,40.285 c -3.71,6.996 -1.406,15.778 5.147,19.62 l 264.639,155.189 c 6.551,3.85 14.868,1.293 18.584,-5.699 l 21.362,-40.286 c 3.712,-6.987 1.413,-15.778 -5.144,-19.615 L 18.586,-5.702 C 12.029,-9.545 3.712,-6.99 0,0"
                   style="fill:#ffffff;fill-opacity:1;fill-rule:nonzero;stroke:none"
                   id="path126" /></g></g></g></g><g
           id="g134"><g
             id="g136" /><g
             id="g148"><g
               clip-path="url(#clipPath140)"
               id="g146"
               style="opacity:0.14999402"><g
                 transform="translate(1496.309,118.1006)"
                 id="g144"><path
                   d="m 0,0 27.794,36.153 c 4.828,6.278 13.775,7.824 19.988,3.453 l 250.962,-176.453 c 6.221,-4.363 7.343,-12.992 2.52,-19.273 l -27.798,-36.146 c -4.82,-6.275 -13.772,-7.829 -19.983,-3.453 L 2.519,-19.278 C -3.696,-14.905 -4.821,-6.277 0,0"
                   style="fill:#ffffff;fill-opacity:1;fill-rule:nonzero;stroke:none"
                   id="path142" /></g></g></g></g><g
           id="g150"><g
             id="g152" /><g
             id="g164"><g
               clip-path="url(#clipPath156)"
               id="g162"
               style="opacity:0.14999402"><g
                 transform="translate(1042.6986,1194.0308)"
                 id="g160"><path
                   d="m 0,0 36.182,27.757 c 6.284,4.819 15.327,4.004 20.203,-1.821 l 196.933,-235.233 c 4.884,-5.821 3.742,-14.447 -2.538,-19.271 l -36.184,-27.748 c -6.275,-4.82 -15.325,-4.011 -20.197,1.819 L -2.541,-19.275 C -7.417,-13.446 -6.277,-4.82 0,0"
                   style="fill:#ffffff;fill-opacity:1;fill-rule:nonzero;stroke:none"
                   id="path158" /></g></g></g></g><g
           id="g166"><g
             id="g168" /><g
             id="g180"><g
               clip-path="url(#clipPath172)"
               id="g178"
               style="opacity:0.14999402"><g
                 transform="translate(845.0892,1224.9189)"
                 id="g176"><path
                   d="M 0,0 45.337,-4.919 C 53.209,-5.774 59.186,-12.61 58.688,-20.19 L 38.62,-326.319 c -0.489,-7.582 -7.273,-13.031 -15.146,-12.182 l -45.332,4.927 c -7.867,0.848 -13.852,7.685 -13.348,15.265 L -15.15,-12.184 C -14.65,-4.601 -7.869,0.85 0,0"
                   style="fill:#ffffff;fill-opacity:1;fill-rule:nonzero;stroke:none"
                   id="path174" /></g></g></g></g><g
           id="g182"><g
             id="g184" /><g
             id="g196"><g
               clip-path="url(#clipPath188)"
               id="g194"
               style="opacity:0.14999402"><g
                 transform="translate(1092.5804,685.5356)"
                 id="g192"><path
                   d="m 0,0 42.479,-16.585 c 7.376,-2.881 11.362,-11.04 8.902,-18.227 l -99.295,-290.271 c -2.452,-7.193 -10.424,-10.681 -17.802,-7.806 l -42.473,16.591 c -7.373,2.873 -11.366,11.035 -8.9,18.221 L -17.807,-7.805 C -15.345,-0.616 -7.374,2.875 0,0"
                   style="fill:#ffffff;fill-opacity:1;fill-rule:nonzero;stroke:none"
                   id="path190" /></g></g></g></g><g
           id="g198"><g
             id="g200" /><g
             id="g212"><g
               clip-path="url(#clipPath204)"
               id="g210"
               style="opacity:0.14999402"><g
                 transform="translate(626.8656,91.4014)"
                 id="g208"><path
                   d="m 0,0 c -33.039,16.067 -61.176,40.163 -81.779,70.558 -36.155,53.38 -43.349,118.555 -20.331,177.408 3.362,8.601 13.766,12.709 22.584,8.839 l 38.071,-16.707 c 7.678,-3.372 11.385,-11.655 8.628,-19.206 -13.675,-37.484 -8.696,-78.581 14.185,-112.353 19.993,-29.5 50.889,-49.867 86.969,-57.351 36.09,-7.473 73.235,-1.208 104.576,17.665 l 283.282,170.932 c 6.723,4.057 15.662,2.21 19.976,-4.124 l 24.796,-36.491 c 4.31,-6.334 2.348,-14.765 -4.379,-18.821 L 213.266,9.394 C 165.028,-19.637 107.856,-29.263 52.234,-17.733 33.838,-13.926 16.325,-7.943 0,0"
                   style="fill:#ffffff;fill-opacity:1;fill-rule:nonzero;stroke:none"
                   id="path206" /></g></g></g></g><g
           id="g214"><g
             id="g216" /><g
             id="g228"><g
               clip-path="url(#clipPath220)"
               id="g226"
               style="opacity:0.14999402"><g
                 transform="translate(583.5013,1021.71)"
                 id="g224"><path
                   d="m 0,0 c 36.26,-5.916 70.126,-20.93 98.581,-44.139 49.944,-40.768 75.529,-101.142 70.358,-164.124 -0.754,-9.204 -9.543,-16.123 -19.101,-14.945 l -41.263,5.087 c -8.322,1.028 -14.249,7.899 -13.774,15.924 2.35,39.831 -14.206,77.774 -45.813,103.564 -27.612,22.528 -63.052,33.178 -99.763,29.999 -36.717,-3.191 -70.504,-19.847 -95.118,-46.915 l -222.355,-244.998 c -5.278,-5.815 -14.37,-6.609 -20.32,-1.779 l -34.22,27.847 c -5.945,4.833 -6.484,13.471 -1.203,19.287 l 222.38,245.028 C -163.727,-28.519 -111.718,-2.9 -55.125,2.007 -36.409,3.636 -17.917,2.927 0,0"
                   style="fill:#ffffff;fill-opacity:1;fill-rule:nonzero;stroke:none"
                   id="path222" /></g></g></g></g><g
           id="g230"><g
             id="g232" /><g
             id="g244"><g
               clip-path="url(#clipPath236)"
               id="g242"
               style="opacity:0.14999402"><g
                 transform="translate(1803.1068,877.0732)"
                 id="g240"><path
                   d="m 0,0 c -11.12,-35.016 -30.894,-66.341 -57.989,-91.124 -47.591,-43.493 -111.041,-60.038 -172.604,-45.773 -8.997,2.083 -14.565,11.784 -12.011,21.069 l 11.026,40.086 c 2.225,8.085 9.885,12.951 17.756,11.316 39.066,-8.111 79.011,2.759 109.12,30.284 26.299,24.048 41.984,57.565 44.172,94.349 2.175,36.791 -9.398,72.639 -32.603,100.922 l -210.103,255.584 c -4.987,6.066 -4.451,15.177 1.192,20.363 l 32.523,29.812 c 5.643,5.18 14.269,4.458 19.255,-1.612 L -40.136,209.665 C -4.436,166.133 13.357,110.955 9.993,54.249 8.886,35.496 5.499,17.302 0,0"
                   style="fill:#ffffff;fill-opacity:1;fill-rule:nonzero;stroke:none"
                   id="path238" /></g></g></g></g><g
           id="g246"><g
             id="g248" /><g
             id="g260"><g
               clip-path="url(#clipPath252)"
               id="g258"
               style="opacity:0.14999402"><g
                 transform="translate(1770.058,171.667)"
                 id="g256"><path
                   d="m 0,0 c -18.095,31.975 -27.597,67.779 -27.322,104.499 0.508,64.469 31.555,122.224 83.896,157.634 7.649,5.175 18.546,2.655 23.614,-5.533 l 21.874,-35.356 c 4.411,-7.132 2.765,-16.056 -3.79,-20.711 C 65.747,177.422 46.534,140.753 46.22,99.961 45.948,64.325 59.839,30.025 85.307,3.395 c 25.481,-26.627 59.626,-42.539 96.142,-44.777 l 330.256,-19.931 c 7.839,-0.473 14.151,-7.064 14.111,-14.728 l -0.28,-44.118 c -0.045,-7.66 -6.442,-13.49 -14.283,-13.015 l -330.295,19.93 C 124.766,-109.787 72.223,-85.282 32.956,-44.234 19.967,-30.663 8.938,-15.802 0,0"
                   style="fill:#ffffff;fill-opacity:1;fill-rule:nonzero;stroke:none"
                   id="path254" /></g></g></g></g><g
           id="g262"><g
             id="g264" /><g
             id="g276"><g
               clip-path="url(#clipPath268)"
               id="g274"
               style="opacity:0.14999402"><g
                 transform="translate(-160.3932,93.418)"
                 id="g272"><path
                   d="m 0,0 -23.426,37.29 c -4.066,6.477 -1.794,14.827 5.079,18.662 l 386.443,215.476 c 6.871,3.835 15.747,1.694 19.808,-4.782 l 23.422,-37.291 c 4.068,-6.475 1.793,-14.832 -5.08,-18.662 L 19.805,-4.787 C 12.931,-8.623 4.064,-6.476 0,0"
                   style="fill:#ffffff;fill-opacity:1;fill-rule:nonzero;stroke:none"
                   id="path270" /></g></g></g></g><g
           id="g278"><g
             id="g280" /><g
             id="g292"><g
               clip-path="url(#clipPath284)"
               id="g290"
               style="opacity:0.14999402"><g
                 transform="translate(1289.3812,658.75)"
                 id="g288"><path
                   d="m 0,0 22.514,37.848 c 3.91,6.571 12.379,8.355 18.925,3.986 l 367.936,-245.746 c 6.546,-4.367 8.686,-13.243 4.772,-19.81 l -22.514,-37.844 c -3.91,-6.573 -12.385,-8.358 -18.927,-3.986 L 4.767,-19.81 C -1.78,-15.44 -3.911,-6.57 0,0"
                   style="fill:#ffffff;fill-opacity:1;fill-rule:nonzero;stroke:none"
                   id="path286" /></g></g></g></g><g
           id="g294"><g
             id="g296" /><g
             id="g308"><g
               clip-path="url(#clipPath300)"
               id="g306"
               style="opacity:0.14999402"><g
                 transform="translate(-68.82,698.6548)"
                 id="g304"><path
                   d="m 0,0 22.514,37.848 c 3.91,6.572 12.379,8.355 18.924,3.986 l 367.937,-245.746 c 6.545,-4.367 8.685,-13.243 4.772,-19.81 l -22.515,-37.845 c -3.909,-6.571 -12.384,-8.356 -18.926,-3.984 L 4.766,-19.81 C -1.781,-15.44 -3.911,-6.57 0,0"
                   style="fill:#ffffff;fill-opacity:1;fill-rule:nonzero;stroke:none"
                   id="path302" /></g></g></g></g><g
           id="g310"><g
             id="g312" /><g
             id="g324"><g
               clip-path="url(#clipPath316)"
               id="g322"
               style="opacity:0.14999402"><g
                 transform="translate(1215.7299,772.3687)"
                 id="g320"><path
                   d="m 0,0 -20.085,39.191 c -3.487,6.806 -0.495,14.926 6.687,18.148 L 390.359,238.3 c 7.179,3.222 15.834,0.315 19.316,-6.49 l 20.081,-39.19 c 3.488,-6.806 0.494,-14.933 -6.688,-18.148 L 19.312,-6.496 C 12.13,-9.717 3.484,-6.805 0,0"
                   style="fill:#ffffff;fill-opacity:1;fill-rule:nonzero;stroke:none"
                   id="path318" /></g></g></g></g><g
           id="g326"><g
             id="g328" /><g
             id="g340"><g
               clip-path="url(#clipPath332)"
               id="g338"
               style="opacity:0.14999402"><g
                 transform="translate(212.7425,69.4258)"
                 id="g336"><path
                   d="m 0,0 -72.611,120.795 c -3.933,6.55 -1.492,14.863 5.46,18.566 l 40.009,21.359 c 6.952,3.703 15.778,1.402 19.71,-5.141 l 46.913,-78.047 219.873,339.76 c 4.156,6.427 13.054,8.459 19.874,4.541 l 39.263,-22.557 c 6.819,-3.919 8.978,-12.298 4.823,-18.722 L 76.292,-1.156 C 72.563,-6.925 65.865,-10.399 58.704,-10.289 L 17.275,-9.658 C 10.108,-9.551 3.536,-5.877 0,0"
                   style="fill:#ffffff;fill-opacity:1;fill-rule:nonzero;stroke:none"
                   id="path334" /></g></g></g></g><g
           id="g342"><g
             id="g344" /><g
             id="g356"><g
               clip-path="url(#clipPath348)"
               id="g354"
               style="opacity:0.14999402"><g
                 transform="translate(1110.0502,912.4868)"
                 id="g352"><path
                   d="m 0,0 33.298,-136.95 c 1.801,-7.424 -3.008,-14.632 -10.747,-16.093 l -44.558,-8.46 c -7.739,-1.463 -15.478,3.365 -17.281,10.782 L -60.8,-62.236 -371.966,-320.997 c -5.882,-4.895 -14.981,-4.182 -20.322,1.591 l -30.754,33.236 c -5.341,5.774 -4.903,14.416 0.979,19.309 L -72.478,23.848 c 5.279,4.395 12.708,5.714 19.511,3.474 L -13.61,14.369 C -6.801,12.129 -1.623,6.664 0,0"
                   style="fill:#ffffff;fill-opacity:1;fill-rule:nonzero;stroke:none"
                   id="path350" /></g></g></g></g><g
           id="g358"><g
             id="g360" /><g
             id="g372"><g
               clip-path="url(#clipPath364)"
               id="g370"
               style="opacity:0.14999402"><g
                 transform="translate(2142.3372,623.105)"
                 id="g368"><path
                   d="m 0,0 -58.119,-128.398 c -3.154,-6.958 -11.382,-9.674 -18.379,-6.06 l -40.313,20.781 c -6.998,3.614 -10.121,12.184 -6.974,19.138 l 37.555,82.958 -404.517,-12.193 c -7.647,-0.234 -14.378,5.932 -15.029,13.77 l -3.757,45.126 c -0.651,7.837 5.017,14.377 12.663,14.608 l 454.461,13.699 c 6.866,0.211 13.531,-3.325 17.511,-9.281 L -1.871,19.703 C 2.113,13.745 2.826,6.25 0,0"
                   style="fill:#ffffff;fill-opacity:1;fill-rule:nonzero;stroke:none"
                   id="path366" /></g></g></g></g><g
           id="g374"><g
             id="g376" /><g
             id="g388"><g
               clip-path="url(#clipPath380)"
               id="g386"
               style="opacity:0.14999402"><g
                 transform="translate(1188.1537,42.6514)"
                 id="g384"><path
                   d="m 0,0 -121.933,70.685 c -6.606,3.836 -8.485,12.294 -4.188,18.893 l 24.713,38.03 c 4.297,6.601 13.137,8.85 19.741,5.022 L -2.888,86.957 25.488,490.661 c 0.533,7.633 7.343,13.712 15.206,13.575 l 45.275,-0.781 c 7.864,-0.137 13.802,-6.431 13.267,-14.062 L 67.357,35.845 C 66.88,28.992 62.693,22.714 56.369,19.351 L 19.791,-0.11 C 13.464,-3.479 5.936,-3.438 0,0"
                   style="fill:#ffffff;fill-opacity:1;fill-rule:nonzero;stroke:none"
                   id="path382" /></g></g></g></g></g></g></g></svg>