<?xml version="1.0" encoding="UTF-8" standalone="no"?>
<svg
   xmlns:dc="http://purl.org/dc/elements/1.1/"
   xmlns:cc="http://creativecommons.org/ns#"
   xmlns:rdf="http://www.w3.org/1999/02/22-rdf-syntax-ns#"
   xmlns:svg="http://www.w3.org/2000/svg"
   xmlns="http://www.w3.org/2000/svg"
   xmlns:sodipodi="http://sodipodi.sourceforge.net/DTD/sodipodi-0.dtd"
   xmlns:inkscape="http://www.inkscape.org/namespaces/inkscape"
   viewBox="0 0 2560 1440"
   height="1440"
   width="2560"
   xml:space="preserve"
   id="svg2"
   version="1.1"
   sodipodi:docname="4.svg"
   inkscape:version="0.92.4 (5da689c313, 2019-01-14)"><sodipodi:namedview
     pagecolor="#ffffff"
     bordercolor="#666666"
     borderopacity="1"
     objecttolerance="10"
     gridtolerance="10"
     guidetolerance="10"
     inkscape:pageopacity="0"
     inkscape:pageshadow="2"
     inkscape:window-width="640"
     inkscape:window-height="480"
     id="namedview67"
     showgrid="false"
     inkscape:zoom="0.31484375"
     inkscape:cx="1280"
     inkscape:cy="720"
     inkscape:current-layer="svg2" /><metadata
     id="metadata8"><rdf:RDF><cc:Work
         rdf:about=""><dc:format>image/svg+xml</dc:format><dc:type
           rdf:resource="http://purl.org/dc/dcmitype/StillImage" /><dc:title /></cc:Work></rdf:RDF></metadata><defs
     id="defs6"><clipPath
       id="clipPath18"
       clipPathUnits="userSpaceOnUse"><path
         id="path16"
         d="M 0,1080 H 1920 V 0 H 0 Z" /></clipPath><clipPath
       id="clipPath26"
       clipPathUnits="userSpaceOnUse"><path
         id="path24"
         d="m 0.132,1141.281 h 1920 v 1080 h -1920 z" /></clipPath><clipPath
       id="clipPath34"
       clipPathUnits="userSpaceOnUse"><path
         id="path32"
         d="M -475.131,1754.7 H 1019.66 V 636.432 H -475.131 Z" /></clipPath><clipPath
       id="clipPath50"
       clipPathUnits="userSpaceOnUse"><path
         id="path48"
         d="M 978.535,1861.28 H 2114.86 V 755.025 H 978.535 Z" /></clipPath><clipPath
       id="clipPath68"
       clipPathUnits="userSpaceOnUse"><path
         id="path66"
         d="M 0.132,0 H 1919.999 V 1080 H 0.132 Z" /></clipPath><clipPath
       id="clipPath76"
       clipPathUnits="userSpaceOnUse"><path
         id="path74"
         d="M 178.138,900.004 H 1393.66 V -519.772 H 178.138 Z" /></clipPath><clipPath
       id="clipPath92"
       clipPathUnits="userSpaceOnUse"><path
         id="path90"
         d="m 1310.7,503.998 h 732.93 V -266.727 H 1310.7 Z" /></clipPath><clipPath
       id="clipPath108"
       clipPathUnits="userSpaceOnUse"><path
         id="path106"
         d="m 1130.12,1952 h 630.02 V 752.375 h -630.02 z" /></clipPath><clipPath
       id="clipPath124"
       clipPathUnits="userSpaceOnUse"><path
         id="path122"
         d="M 746.137,1756 H 1280.77 V 374.058 H 746.137 Z" /></clipPath></defs><g
     transform="matrix(1.3334257,0,0,-1.3333333,-0.1760122,1440)"
     id="g10"><g
       id="g12"><g
         clip-path="url(#clipPath18)"
         id="g14"><g
           id="g20"><g
             clip-path="url(#clipPath26)"
             id="g22"><g
               id="g28"><g
                 id="g30" /><g
                 id="g42"><g
                   style="opacity:0.60000598"
                   id="g40"
                   clip-path="url(#clipPath34)"><g
                     id="g38"
                     transform="translate(489.9932,1754.2494)"><path
                       id="path36"
                       style="fill:#ffffff;fill-opacity:1;fill-rule:nonzero;stroke:none"
                       d="m 0,0 c 96.546,-3.89 190.906,-33.218 274.86,-86.562 147.358,-93.719 240.272,-248.734 254.656,-421.125 2.102,-25.187 -17.61,-46.875 -42.884,-46.891 l -109.14,-0.046 c -22.008,0 -40.39,16.641 -42.702,38.53 -11.486,108.704 -71.11,205.97 -164.36,265.25 -81.476,51.782 -177.976,68.766 -271.68,47.844 -93.704,-20.937 -173.874,-77.405 -225.696,-159 l -467.928,-738.344 c -11.11,-17.53 -34.314,-22.75 -51.852,-11.624 l -100.93,63.968 c -17.532,11.095 -22.734,34.312 -11.626,51.845 l 467.978,738.451 C -411.54,-132.155 -288.11,-45.312 -143.68,-13.062 -95.914,-2.359 -47.696,1.922 0,0"
                       inkscape:connector-curvature="0" /></g></g></g></g><g
               id="g44"><g
                 id="g46" /><g
                 id="g58"><g
                   style="opacity:0.60000598"
                   id="g56"
                   clip-path="url(#clipPath50)"><g
                     id="g54"
                     transform="translate(1022.4053,1703.7181)"><path
                       id="path52"
                       style="fill:#ffffff;fill-opacity:1;fill-rule:nonzero;stroke:none"
                       d="m 0,0 350.378,154.36 c 18.994,8.374 41.172,-0.25 49.524,-19.234 l 48.192,-109.36 c 8.36,-19 -0.258,-41.172 -19.23,-49.532 l -226.384,-99.75 875.074,-662.344 c 16.552,-12.53 19.814,-36.094 7.286,-52.656 l -72.122,-95.266 c -12.53,-16.546 -36.086,-19.828 -52.628,-7.296 l -983.122,744.141 c -14.854,11.233 -22.652,29.5 -20.48,48.015 l 12.516,106.938 C -28.832,-23.5 -17.042,-7.532 0,0"
                       inkscape:connector-curvature="0" /></g></g></g></g></g></g></g></g><path
       id="path60"
       style="fill:#faf0f0;fill-opacity:1;fill-rule:nonzero;stroke:none"
       d="M 0.132,0 H 1919.999 V 1080 H 0.132 Z"
       inkscape:connector-curvature="0" /><g
       id="g62"><g
         clip-path="url(#clipPath68)"
         id="g64"><g
           id="g70"><g
             id="g72" /><g
             id="g84"><g
               style="opacity:0.60000598"
               id="g82"
               clip-path="url(#clipPath76)"><g
                 id="g80"
                 transform="translate(180.1792,309.6956)"><path
                   id="path78"
                   style="fill:#ffffff;fill-opacity:1;fill-rule:nonzero;stroke:none"
                   d="m 0,0 c -8.328,96.262 8.844,193.565 51.172,283.574 74.374,158.012 216.422,269.745 385.624,305.766 24.72,5.273 48.72,-11.55 51.922,-36.622 l 13.814,-108.26 C 505.328,422.624 491.14,402.29 469.704,397.237 363.312,372.122 274.36,300.7 227.328,200.714 186.234,113.355 181.562,15.479 214.156,-74.824 246.75,-165.141 312.874,-237.542 400.36,-278.66 l 791.483,-371 c 18.797,-8.808 26.891,-31.168 18.078,-49.981 l -50.717,-108.183 c -8.798,-18.8 -31.172,-26.895 -49.97,-18.078 L 317.64,-454.868 C 183.032,-391.578 81.296,-280.094 31.078,-140.891 14.438,-94.856 4.11,-47.563 0,0"
                   inkscape:connector-curvature="0" /></g></g></g></g><g
           id="g86"><g
             id="g88" /><g
             id="g100"><g
               style="opacity:0.60000598"
               id="g98"
               clip-path="url(#clipPath92)"><g
                 id="g96"
                 transform="translate(1322.7021,412.6644)"><path
                   id="path94"
                   style="fill:#ffffff;fill-opacity:1;fill-rule:nonzero;stroke:none"
                   d="m 0,0 87.595,81.296 c 15.21,14.126 38.975,13.227 53.101,-1.969 L 710.891,-534.96 c 14.118,-15.204 13.233,-38.978 -1.977,-53.102 L 621.32,-669.36 c -15.196,-14.109 -38.984,-13.235 -53.078,1.986 L -1.976,-53.11 C -16.086,-37.891 -15.195,-14.124 0,0"
                   inkscape:connector-curvature="0" /></g></g></g></g><g
           id="g102"><g
             id="g104" /><g
             id="g116"><g
               style="opacity:0.60000598"
               id="g114"
               clip-path="url(#clipPath108)"><g
                 id="g112"
                 transform="translate(1263.9092,755.2191)"><path
                   id="path110"
                   style="fill:#ffffff;fill-opacity:1;fill-rule:nonzero;stroke:none"
                   d="m 0,0 -110.512,45.5 c -19.183,7.905 -28.332,29.844 -20.433,49.062 L 313.41,1173.5 c 7.902,19.188 29.864,28.344 49.048,20.438 l 110.496,-45.5 c 19.194,-7.907 28.346,-29.876 20.437,-49.064 L 49.042,20.437 C 41.145,1.233 19.188,-7.906 0,0"
                   inkscape:connector-curvature="0" /></g></g></g></g><g
           id="g118"><g
             id="g120" /><g
             id="g132"><g
               style="opacity:0.60000598"
               id="g130"
               clip-path="url(#clipPath124)"><g
                 id="g128"
                 transform="translate(906.1558,1751.7582)"><path
                   id="path126"
                   style="fill:#ffffff;fill-opacity:1;fill-rule:nonzero;stroke:none"
                   d="m 0,0 351.86,-150.977 c 19.061,-8.179 27.89,-30.282 19.693,-49.335 l -47.107,-109.829 c -8.189,-19.063 -30.29,-27.891 -49.344,-19.719 l -227.344,97.54 112.39,-1091.704 c 2.134,-20.648 -12.882,-39.108 -33.53,-41.235 L 7.742,-1377.5 c -20.64,-2.118 -39.094,12.882 -41.218,33.531 l -126.266,1226.5 c -1.906,18.531 6.14,36.687 21.14,47.719 l 86.75,63.781 C -36.852,5.062 -17.126,7.327 0,0"
                   inkscape:connector-curvature="0" /></g></g></g></g></g></g></g></svg>