<?xml version="1.0" encoding="UTF-8" standalone="no"?>
<svg
   xmlns:dc="http://purl.org/dc/elements/1.1/"
   xmlns:cc="http://creativecommons.org/ns#"
   xmlns:rdf="http://www.w3.org/1999/02/22-rdf-syntax-ns#"
   xmlns:svg="http://www.w3.org/2000/svg"
   xmlns="http://www.w3.org/2000/svg"
   viewBox="0 0 2560 1440"
   height="1440"
   width="2560"
   xml:space="preserve"
   id="svg2"
   version="1.1"><metadata
     id="metadata8"><rdf:RDF><cc:Work
         rdf:about=""><dc:format>image/svg+xml</dc:format><dc:type
           rdf:resource="http://purl.org/dc/dcmitype/StillImage" /><dc:title></dc:title></cc:Work></rdf:RDF></metadata><defs
     id="defs6"><clipPath
       id="clipPath18"
       clipPathUnits="userSpaceOnUse"><path
         id="path16"
         d="M 0,1080 H 1920 V 0 H 0 Z" /></clipPath><clipPath
       id="clipPath26"
       clipPathUnits="userSpaceOnUse"><path
         id="path24"
         d="M 0.5,1146.851 H 1920 v 1080 H 0.5 Z" /></clipPath><clipPath
       id="clipPath34"
       clipPathUnits="userSpaceOnUse"><path
         id="path32"
         d="M 837.135,1714.85 H 1379.46 V 820.994 H 837.135 Z" /></clipPath><clipPath
       id="clipPath52"
       clipPathUnits="userSpaceOnUse"><path
         id="path50"
         d="M 0.132,0.074 H 1919.868 V 1079.925 H 0.132 Z" /></clipPath><clipPath
       id="clipPath60"
       clipPathUnits="userSpaceOnUse"><path
         id="path58"
         d="M 746.034,675.984 H 1280.59 V -705.77 H 746.034 Z" /></clipPath><clipPath
       id="clipPath76"
       clipPathUnits="userSpaceOnUse"><path
         id="path74"
         d="M -775.752,967.942 H 831.447 V 193.764 H -775.752 Z" /></clipPath><clipPath
       id="clipPath92"
       clipPathUnits="userSpaceOnUse"><path
         id="path90"
         d="M 1129.97,871.953 H 1759.9 V -327.506 h -629.93 z" /></clipPath><clipPath
       id="clipPath108"
       clipPathUnits="userSpaceOnUse"><path
         id="path106"
         d="M 898.007,1583.86 H 1408.93 V 690.121 H 898.007 Z" /></clipPath><clipPath
       id="clipPath124"
       clipPathUnits="userSpaceOnUse"><path
         id="path122"
         d="M 0,1080 H 1920 V 0 H 0 Z" /></clipPath><clipPath
       id="clipPath132"
       clipPathUnits="userSpaceOnUse"><path
         id="path130"
         d="m 0.132,-1145.272 h 1920 v 1080 h -1920 z" /></clipPath><clipPath
       id="clipPath140"
       clipPathUnits="userSpaceOnUse"><path
         id="path138"
         d="M 844.131,502.73 H 1355.12 V -391.129 H 844.131 Z" /></clipPath><clipPath
       id="clipPath156"
       clipPathUnits="userSpaceOnUse"><path
         id="path154"
         d="M -692.717,287.959 H 445.2 v -776.67 H -692.717 Z" /></clipPath></defs><g
     transform="matrix(1.3335167,0,0,-1.3335173,-0.17602421,1440.0987)"
     id="g10"><g
       id="g12"><g
         clip-path="url(#clipPath18)"
         id="g14"><g
           id="g20"><g
             clip-path="url(#clipPath26)"
             id="g22"><g
               id="g28"><g
                 id="g30" /><g
                 id="g42"><g
                   style="opacity:0.14999402"
                   id="g40"
                   clip-path="url(#clipPath34)"><g
                     id="g38"
                     transform="translate(861.5142,1665.4452)"><path
                       id="path36"
                       style="fill:#ffffff;fill-opacity:1;fill-rule:nonzero;stroke:none"
                       d="m 0,0 116.878,46.446 c 20.297,8.062 43.681,-0.9 52.237,-20.024 L 514.79,-745.836 c 8.581,-19.118 -0.937,-41.148 -21.227,-49.225 l -116.877,-46.423 c -20.273,-8.07 -43.68,0.882 -52.222,20.016 L -21.235,-49.234 C -29.792,-30.102 -20.282,-8.07 0,0" /></g></g></g></g></g></g></g></g><path
       id="path44"
       style="fill:#00919b;fill-opacity:1;fill-rule:nonzero;stroke:none"
       d="m 0.132,0.074 1919.736,1.479e-5 0,1079.85098521 H 0.132 Z" /><g
       id="g46"><g
         clip-path="url(#clipPath52)"
         id="g48"><g
           id="g54"><g
             id="g56" /><g
             id="g68"><g
               style="opacity:0.14999402"
               id="g66"
               clip-path="url(#clipPath60)"><g
                 id="g64"
                 transform="translate(906.0308,671.7392)"><path
                   id="path62"
                   style="fill:#ffffff;fill-opacity:1;fill-rule:nonzero;stroke:none"
                   d="m 0,0 351.811,-150.955 c 19.06,-8.179 27.887,-30.277 19.691,-49.329 l -47.101,-109.813 c -8.187,-19.061 -30.285,-27.888 -49.337,-19.717 l -227.313,97.527 112.374,-1091.554 c 2.134,-20.645 -12.879,-39.102 -33.524,-41.228 L 7.741,-1377.31 c -20.637,-2.118 -39.089,12.88 -41.212,33.528 L -159.72,-117.451 c -1.905,18.527 6.139,36.68 21.137,47.711 l 86.738,63.773 C -36.847,5.062 -17.124,7.327 0,0" /></g></g></g></g><g
           id="g70"><g
             id="g72" /><g
             id="g84"><g
               style="opacity:0.14999402"
               id="g82"
               clip-path="url(#clipPath76)"><g
                 id="g80"
                 transform="translate(-476.0913,255.7577)"><path
                   id="path78"
                   style="fill:#ffffff;fill-opacity:1;fill-rule:nonzero;stroke:none"
                   d="m 0,0 c -85.844,44.306 -158.95,110.751 -212.483,194.567 -93.935,147.198 -112.628,326.923 -52.824,489.213 8.736,23.717 35.769,35.043 58.68,24.372 l 98.916,-46.071 c 19.949,-9.297 29.582,-32.136 22.419,-52.961 C -120.823,505.759 -107.887,392.43 -48.435,299.303 3.508,217.954 83.785,161.79 177.53,141.152 c 93.769,-20.606 190.28,-3.327 271.712,48.712 l 736.029,471.357 c 17.469,11.186 40.692,6.093 51.903,-11.372 l 64.425,-100.628 c 11.196,-17.466 6.099,-40.713 -11.379,-51.9 L 554.112,25.902 C 428.781,-54.148 280.235,-80.692 135.715,-48.899 87.918,-38.4 42.416,-21.902 0,0" /></g></g></g></g><g
           id="g86"><g
             id="g88" /><g
             id="g100"><g
               style="opacity:0.14999402"
               id="g98"
               clip-path="url(#clipPath92)"><g
                 id="g96"
                 transform="translate(1263.7354,-324.6622)"><path
                   id="path94"
                   style="fill:#ffffff;fill-opacity:1;fill-rule:nonzero;stroke:none"
                   d="m 0,0 -110.497,45.494 c -19.181,7.904 -28.328,29.84 -20.431,49.055 l 444.295,1078.79 c 7.901,19.184 29.86,28.34 49.041,20.434 l 110.481,-45.493 c 19.191,-7.905 28.342,-29.872 20.433,-49.057 L 49.035,20.436 C 41.139,1.233 19.186,-7.905 0,0" /></g></g></g></g><g
           id="g102"><g
             id="g104" /><g
             id="g116"><g
               style="opacity:0.14999402"
               id="g114"
               clip-path="url(#clipPath108)"><g
                 id="g112"
                 transform="translate(920.9741,1534.4569)"><path
                   id="path110"
                   style="fill:#ffffff;fill-opacity:1;fill-rule:nonzero;stroke:none"
                   d="m 0,0 110.111,46.439 c 19.121,8.061 41.15,-0.9 49.211,-20.021 l 325.657,-772.151 c 8.085,-19.116 -0.882,-41.143 -19.997,-49.22 l -110.108,-46.415 c -19.1,-8.069 -41.151,0.882 -49.198,20.013 L -20.005,-49.228 C -28.066,-30.098 -19.107,-8.069 0,0" /></g></g></g></g></g></g><g
       id="g118"><g
         clip-path="url(#clipPath124)"
         id="g120"><g
           id="g126"><g
             clip-path="url(#clipPath132)"
             id="g128"><g
               id="g134"><g
                 id="g136" /><g
                 id="g148"><g
                   style="opacity:0.14999402"
                   id="g146"
                   clip-path="url(#clipPath140)"><g
                     id="g144"
                     transform="translate(867.1011,453.3222)"><path
                       id="path142"
                       style="fill:#ffffff;fill-opacity:1;fill-rule:nonzero;stroke:none"
                       d="m 0,0 110.125,46.446 c 19.125,8.062 41.157,-0.9 49.219,-20.024 l 325.701,-772.258 c 8.086,-19.118 -0.881,-41.147 -20,-49.226 l -110.124,-46.421 c -19.101,-8.071 -41.155,0.881 -49.203,20.015 L -20.008,-49.233 C -28.07,-30.102 -19.11,-8.07 0,0" /></g></g></g></g><g
               id="g150"><g
                 id="g152" /><g
                 id="g164"><g
                   style="opacity:0.14999402"
                   id="g162"
                   clip-path="url(#clipPath156)"><g
                     id="g160"
                     transform="translate(-687.3833,167.0937)"><path
                       id="path158"
                       style="fill:#ffffff;fill-opacity:1;fill-rule:nonzero;stroke:none"
                       d="m 0,0 61.344,102.578 c 10.64,17.798 33.718,23.607 51.532,12.958 l 1001.406,-598.95 c 17.812,-10.651 23.624,-33.73 12.968,-51.536 l -61.344,-102.558 c -10.624,-17.807 -33.718,-23.62 -51.516,-12.96 L 12.968,-51.532 C -4.844,-40.874 -10.656,-17.804 0,0" /></g></g></g></g></g></g></g></g></g></svg>