<?xml version="1.0" encoding="UTF-8" standalone="no"?>
<svg
   xmlns:dc="http://purl.org/dc/elements/1.1/"
   xmlns:cc="http://creativecommons.org/ns#"
   xmlns:rdf="http://www.w3.org/1999/02/22-rdf-syntax-ns#"
   xmlns:svg="http://www.w3.org/2000/svg"
   xmlns="http://www.w3.org/2000/svg"
   version="1.1"
   id="svg2"
   xml:space="preserve"
   width="2560"
   height="1440"
   viewBox="0 0 2560 1440"><metadata
     id="metadata8"><rdf:RDF><cc:Work
         rdf:about=""><dc:format>image/svg+xml</dc:format><dc:type
           rdf:resource="http://purl.org/dc/dcmitype/StillImage" /><dc:title></dc:title></cc:Work></rdf:RDF></metadata><defs
     id="defs6"><clipPath
       clipPathUnits="userSpaceOnUse"
       id="clipPath18"><path
         d="M 0,1080 H 1920 V 0 H 0 Z"
         id="path16" /></clipPath><clipPath
       clipPathUnits="userSpaceOnUse"
       id="clipPath26"><path
         d="M 0.132,1145.345 H 1919.868 V 2225.197 H 0.132 Z"
         id="path24" /></clipPath><clipPath
       clipPathUnits="userSpaceOnUse"
       id="clipPath34"><path
         d="M 746.034,1821.26 H 1280.59 V 439.501 H 746.034 Z"
         id="path32" /></clipPath><clipPath
       clipPathUnits="userSpaceOnUse"
       id="clipPath50"><path
         d="M 1129.97,2017.22 H 1759.9 V 817.766 h -629.93 z"
         id="path48" /></clipPath><clipPath
       clipPathUnits="userSpaceOnUse"
       id="clipPath68"><path
         d="M 0.132,0 H 1919.999 V 1080 H 0.132 Z"
         id="path66" /></clipPath><clipPath
       clipPathUnits="userSpaceOnUse"
       id="clipPath76"><path
         d="M 844.131,1648 H 1355.12 V 754.142 H 844.131 Z"
         id="path74" /></clipPath><clipPath
       clipPathUnits="userSpaceOnUse"
       id="clipPath92"><path
         d="M -475.131,613.415 H 1019.66 V -504.849 H -475.131 Z"
         id="path90" /></clipPath><clipPath
       clipPathUnits="userSpaceOnUse"
       id="clipPath108"><path
         d="M -692.717,1433.23 H 445.2 V 656.561 H -692.717 Z"
         id="path106" /></clipPath><clipPath
       clipPathUnits="userSpaceOnUse"
       id="clipPath124"><path
         d="M 978.535,719.999 H 2114.86 V -386.256 H 978.535 Z"
         id="path122" /></clipPath><clipPath
       clipPathUnits="userSpaceOnUse"
       id="clipPath140"><path
         d="M 0,1080 H 1920 V 0 H 0 Z"
         id="path138" /></clipPath><clipPath
       clipPathUnits="userSpaceOnUse"
       id="clipPath148"><path
         d="m 0.132,-1141.281 h 1920 v 1080 h -1920 z"
         id="path146" /></clipPath><clipPath
       clipPathUnits="userSpaceOnUse"
       id="clipPath156"><path
         d="m 1130.12,810.718 h 630.02 V -388.906 h -630.02 z"
         id="path154" /></clipPath><clipPath
       clipPathUnits="userSpaceOnUse"
       id="clipPath172"><path
         d="M 746.137,614.722 H 1280.77 V -767.222 H 746.137 Z"
         id="path170" /></clipPath></defs><g
     id="g10"
     transform="matrix(1.3334257,0,0,-1.3333333,-0.17601219,1440)"><g
       id="g12"><g
         id="g14"
         clip-path="url(#clipPath18)"><g
           id="g20"><g
             id="g22"
             clip-path="url(#clipPath26)"><g
               id="g28"><g
                 id="g30" /><g
                 id="g42"><g
                   clip-path="url(#clipPath34)"
                   id="g40"
                   style="opacity:0.14999402"><g
                     transform="translate(906.0308,1817.0105)"
                     id="g38"><path
                       d="m 0,0 351.811,-150.955 c 19.06,-8.179 27.887,-30.277 19.691,-49.329 l -47.101,-109.813 c -8.187,-19.061 -30.285,-27.888 -49.337,-19.717 l -227.313,97.527 112.374,-1091.554 c 2.134,-20.645 -12.879,-39.102 -33.524,-41.228 L 7.741,-1377.31 c -20.637,-2.118 -39.089,12.88 -41.212,33.528 L -159.72,-117.451 c -1.905,18.527 6.139,36.68 21.137,47.711 l 86.738,63.773 C -36.847,5.062 -17.124,7.327 0,0"
                       style="fill:#ffffff;fill-opacity:1;fill-rule:nonzero;stroke:none"
                       id="path36" /></g></g></g></g><g
               id="g44"><g
                 id="g46" /><g
                 id="g58"><g
                   clip-path="url(#clipPath50)"
                   id="g56"
                   style="opacity:0.14999402"><g
                     transform="translate(1263.7354,820.6091)"
                     id="g54"><path
                       d="m 0,0 -110.497,45.494 c -19.181,7.904 -28.328,29.84 -20.431,49.055 l 444.295,1078.79 c 7.901,19.184 29.86,28.34 49.041,20.434 l 110.481,-45.493 c 19.191,-7.905 28.342,-29.872 20.433,-49.057 L 49.035,20.436 C 41.139,1.233 19.186,-7.905 0,0"
                       style="fill:#ffffff;fill-opacity:1;fill-rule:nonzero;stroke:none"
                       id="path52" /></g></g></g></g></g></g></g></g><path
       d="M 0.132,0 H 1919.999 V 1080 L 0.132,1080 Z"
       style="fill:#00919b;fill-opacity:1;fill-rule:nonzero;stroke:none"
       id="path60" /><g
       id="g62"><g
         id="g64"
         clip-path="url(#clipPath68)"><g
           id="g70"><g
             id="g72" /><g
             id="g84"><g
               clip-path="url(#clipPath76)"
               id="g82"
               style="opacity:0.14999402"><g
                 transform="translate(867.1011,1598.5935)"
                 id="g80"><path
                   d="m 0,0 110.125,46.446 c 19.125,8.062 41.157,-0.9 49.219,-20.024 l 325.701,-772.258 c 8.086,-19.118 -0.881,-41.147 -20,-49.226 l -110.124,-46.421 c -19.101,-8.071 -41.155,0.881 -49.203,20.015 L -20.008,-49.233 C -28.07,-30.102 -19.11,-8.07 0,0"
                   style="fill:#ffffff;fill-opacity:1;fill-rule:nonzero;stroke:none"
                   id="path78" /></g></g></g></g><g
           id="g86"><g
             id="g88" /><g
             id="g100"><g
               clip-path="url(#clipPath92)"
               id="g98"
               style="opacity:0.14999402"><g
                 transform="translate(489.9932,612.9685)"
                 id="g96"><path
                   d="m 0,0 c 96.546,-3.89 190.906,-33.218 274.86,-86.562 147.358,-93.719 240.272,-248.734 254.656,-421.125 2.102,-25.187 -17.61,-46.875 -42.884,-46.891 l -109.14,-0.046 c -22.008,0 -40.39,16.641 -42.702,38.53 -11.486,108.704 -71.11,205.97 -164.36,265.25 -81.476,51.783 -177.976,68.766 -271.68,47.844 -93.704,-20.937 -173.874,-77.405 -225.696,-159 l -467.928,-738.344 c -11.11,-17.53 -34.314,-22.75 -51.852,-11.624 l -100.93,63.968 c -17.532,11.095 -22.734,34.313 -11.626,51.845 l 467.978,738.451 C -411.54,-132.155 -288.11,-45.312 -143.68,-13.062 -95.914,-2.359 -47.696,1.922 0,0"
                   style="fill:#ffffff;fill-opacity:1;fill-rule:nonzero;stroke:none"
                   id="path94" /></g></g></g></g><g
           id="g102"><g
             id="g104" /><g
             id="g116"><g
               clip-path="url(#clipPath108)"
               id="g114"
               style="opacity:0.14999402"><g
                 transform="translate(-687.3833,1312.365)"
                 id="g112"><path
                   d="m 0,0 61.344,102.578 c 10.64,17.798 33.718,23.607 51.532,12.958 l 1001.406,-598.95 c 17.812,-10.651 23.624,-33.73 12.968,-51.536 l -61.344,-102.558 c -10.624,-17.807 -33.718,-23.62 -51.516,-12.96 L 12.968,-51.532 C -4.844,-40.874 -10.656,-17.804 0,0"
                   style="fill:#ffffff;fill-opacity:1;fill-rule:nonzero;stroke:none"
                   id="path110" /></g></g></g></g><g
           id="g118"><g
             id="g120" /><g
             id="g132"><g
               clip-path="url(#clipPath124)"
               id="g130"
               style="opacity:0.14999402"><g
                 transform="translate(1022.4053,562.4373)"
                 id="g128"><path
                   d="m 0,0 350.378,154.36 c 18.994,8.374 41.172,-0.25 49.524,-19.234 l 48.192,-109.36 c 8.36,-19 -0.258,-41.172 -19.23,-49.532 l -226.384,-99.75 875.074,-662.344 c 16.552,-12.53 19.814,-36.094 7.286,-52.656 l -72.122,-95.266 c -12.53,-16.546 -36.086,-19.828 -52.628,-7.296 l -983.122,744.141 c -14.854,11.233 -22.652,29.5 -20.48,48.015 l 12.516,106.938 C -28.832,-23.5 -17.042,-7.532 0,0"
                   style="fill:#ffffff;fill-opacity:1;fill-rule:nonzero;stroke:none"
                   id="path126" /></g></g></g></g></g></g><g
       id="g134"><g
         id="g136"
         clip-path="url(#clipPath140)"><g
           id="g142"><g
             id="g144"
             clip-path="url(#clipPath148)"><g
               id="g150"><g
                 id="g152" /><g
                 id="g164"><g
                   clip-path="url(#clipPath156)"
                   id="g162"
                   style="opacity:0.14999402"><g
                     transform="translate(1263.9092,-386.0617)"
                     id="g160"><path
                       d="m 0,0 -110.512,45.5 c -19.183,7.905 -28.332,29.844 -20.433,49.062 L 313.41,1173.5 c 7.902,19.188 29.864,28.344 49.048,20.438 l 110.496,-45.5 c 19.194,-7.907 28.346,-29.876 20.437,-49.064 L 49.042,20.437 C 41.145,1.233 19.188,-7.906 0,0"
                       style="fill:#ffffff;fill-opacity:1;fill-rule:nonzero;stroke:none"
                       id="path158" /></g></g></g></g><g
               id="g166"><g
                 id="g168" /><g
                 id="g180"><g
                   clip-path="url(#clipPath172)"
                   id="g178"
                   style="opacity:0.14999402"><g
                     transform="translate(906.1558,610.4773)"
                     id="g176"><path
                       d="m 0,0 351.86,-150.977 c 19.061,-8.179 27.89,-30.282 19.693,-49.335 l -47.107,-109.829 c -8.189,-19.063 -30.29,-27.891 -49.344,-19.719 l -227.344,97.54 112.39,-1091.704 c 2.134,-20.648 -12.882,-39.108 -33.53,-41.235 L 7.742,-1377.5 c -20.64,-2.118 -39.094,12.882 -41.218,33.531 l -126.266,1226.5 c -1.906,18.531 6.14,36.687 21.14,47.719 l 86.75,63.781 C -36.852,5.062 -17.126,7.327 0,0"
                       style="fill:#ffffff;fill-opacity:1;fill-rule:nonzero;stroke:none"
                       id="path174" /></g></g></g></g></g></g></g></g></g></svg>