<svg height="333.89127" viewBox="0 0 291.25156 333.89127" width="291.25156" xmlns="http://www.w3.org/2000/svg" xmlns:xlink="http://www.w3.org/1999/xlink"><clipPath id="a"><path d="m0 1080h1920v-1080h-1920z"/></clipPath><g clip-path="url(#a)" fill="#fff" transform="matrix(1.3333333 0 0 -1.3333333 -2006.9791 886.94591)"><path d="m0 0-13.194 7.662c-2.291 1.331-3.071 4.267-1.743 6.558l53.731 92.546c1.331 2.291 4.267 3.07 6.558 1.739l13.197-7.661c2.291-1.328 3.071-4.264 1.74-6.555l-53.73-92.549c-1.331-2.291-4.268-3.071-6.559-1.74" transform="translate(1648.2148 512.2891)"/><path d="m0 0c-12.337 0-24.526 3.259-35.509 9.632-19.283 11.198-31.931 30.498-34.653 52.418-.397 3.2 2.007 6.071 5.229 6.201l13.924.568c2.809.113 5.238-1.917 5.647-4.698 2.023-13.808 10.132-25.91 22.33-32.995 10.662-6.189 23.06-7.858 34.907-4.708 11.846 3.154 21.781 10.769 27.977 21.443l55.905 96.6c1.326 2.294 4.262 3.076 6.553 1.75l13.209-7.641c2.291-1.329 3.076-4.264 1.748-6.555l-55.913-96.617c-9.53-16.422-24.83-28.136-43.09-32.998-6.04-1.606-12.17-2.4-18.264-2.4" transform="translate(1605.7598 414.791)"/><path d="m0 0-13.212 7.634c-2.294 1.325-3.079 4.258-1.757 6.552l74.531 129.006c1.326 2.294 4.261 3.079 6.555 1.753l13.211-7.63c2.294-1.326 3.079-4.261 1.754-6.555l-74.53-129.006c-1.323-2.294-4.258-3.079-6.552-1.754" transform="translate(1599.6875 513.2979)"/><path d="m0 0-25.002 42.007c-1.353 2.277-.608 5.222 1.669 6.576l13.113 7.804c2.277 1.354 5.221.608 6.574-1.669l16.157-27.141 70.358 121.185c1.329 2.291 4.265 3.07 6.559 1.739l13.194-7.661c2.291-1.332 3.07-4.267 1.739-6.558l-79.044-136.144c-1.196-2.058-3.389-3.329-5.767-3.341l-13.746-.076c-2.379-.011-4.588 1.235-5.804 3.279" transform="translate(1530.9111 514.0586)"/></g></svg>