<svg height="250.59264" viewBox="0 0 1527.1926 250.59264" width="1527.1926" xmlns="http://www.w3.org/2000/svg"><g transform="translate(-196.4 -414.70736)"><path d="m1648.2 567.7-13.2-7.7c-2.3-1.3-3.1-4.3-1.7-6.6l53.7-92.5c1.3-2.3 4.3-3.1 6.6-1.7l13.2 7.7c2.3 1.3 3.1 4.3 1.7 6.6l-53.7 92.5c-1.4 2.3-4.3 3-6.6 1.7" fill="#fff"/><path d="m1605.8 665.2c-12.3 0-24.5-3.3-35.5-9.6-19.3-11.2-31.9-30.5-34.7-52.4-.4-3.2 2-6.1 5.2-6.2l13.9-.6c2.8-.1 5.2 1.9 5.6 4.7 2 13.8 10.1 25.9 22.3 33 10.7 6.2 23.1 7.9 34.9 4.7s21.8-10.8 28-21.4l55.9-96.6c1.3-2.3 4.3-3.1 6.6-1.8l13.2 7.6c2.3 1.3 3.1 4.3 1.7 6.6l-55.9 96.6c-9.5 16.4-24.8 28.1-43.1 33-5.9 1.6-12 2.4-18.1 2.4" fill="#00919b"/><path d="m1599.7 566.7-13.2-7.6c-2.3-1.3-3.1-4.3-1.8-6.6l74.5-129c1.3-2.3 4.3-3.1 6.6-1.8l13.2 7.6c2.3 1.3 3.1 4.3 1.8 6.6l-74.5 129c-1.4 2.3-4.3 3.1-6.6 1.8" fill="#fff"/><path d="m1530.9 565.9-25-42c-1.4-2.3-.6-5.2 1.7-6.6l13.1-7.8c2.3-1.4 5.2-.6 6.6 1.7l16.2 27.1 70.4-121.2c1.3-2.3 4.3-3.1 6.6-1.7l13.2 7.7c2.3 1.3 3.1 4.3 1.7 6.6l-79 136.1c-1.2 2.1-3.4 3.3-5.8 3.3l-13.7.1c-2.6 0-4.8-1.2-6-3.3" fill="#ff5f5a"/><g fill="#fff"><path d="m230.7 665.2c-21.3 0-34.3-12.8-34.3-36.5v-164.8c0-2.2 1.8-4 4-4h18.2c2.2 0 4 1.8 4 4v156.6c0 13.9 3.3 20.2 16.1 20.2h2.5c2.2-.1 4 1.7 4 3.9v15.6c0 1.9-1.3 3.5-3.1 3.9-3.6.6-7.3 1.1-11.4 1.1"/><path d="m323.5 553.7c-20.2 0-35.2 13.6-39.8 31.9h79c-2.9-18-18.7-31.9-39.2-31.9m1.4 87.8c12.9 0 25.7-5.2 34-14.8 1.3-1.6 3.7-1.8 5.3-.5l12.4 9.5c1.8 1.4 2 3.9.6 5.6-12.2 15-31.4 24-52.3 24-37.6 0-67.9-29.4-67.9-67.6 0-36.2 27.5-67.9 66.2-67.9 38.4 0 66.2 31.3 66.2 67.6 0 2-.1 3.7-.2 5.4-.2 2.1-1.9 3.6-3.9 3.6h-102.4c3.6 19.8 19.9 35.1 42 35.1"/><path d="m501.3 593.8c0-25.9-10.1-39.2-31.6-39.2-22.4 0-33 14.4-33 41.2v62c0 2.2-1.8 4-4 4h-18.2c-2.2 0-4-1.8-4-4v-121.6c0-2.2 1.8-4 4-4h18.2c2.2 0 4 1.8 4 4v9.9c8.7-9.8 19.4-16.4 37.6-16.4 30.8 0 53.4 18 53.4 58.6v69.4c0 2.2-1.8 4-4 4h-18.5c-2.2 0-4-1.8-4-4v-63.9z"/><path d="m617.4 554.5c-24.3 0-42.5 19.1-42.5 43.1 0 24.3 18.3 43.1 42.5 43.1 24.8 0 42.8-19.6 42.8-43.1s-18.3-43.1-42.8-43.1m43.3 91.9c-10.9 12.8-25.9 18.8-43.3 18.8-38.4 0-68.4-29.7-68.4-67.6 0-38.4 30.5-67.9 68.4-67.9 17.4 0 32.2 6.3 43.3 19.1v-84.9c0-2.2 1.8-4 4-4h18.2c2.2 0 4 1.8 4 4v193.8c0 2.2-1.8 4-4 4h-18.2c-2.2 0-4-1.8-4-4z"/><path d="m776.1 554.5c-24.3 0-42.5 19.1-42.5 43.1 0 24.3 18.3 43.1 42.5 43.1 24.8 0 42.8-19.6 42.8-43.1s-18.2-43.1-42.8-43.1m43.4 91.9c-10.9 12.8-25.9 18.8-43.3 18.8-38.4 0-68.4-29.7-68.4-67.6 0-38.4 30.5-67.9 68.4-67.9 17.4 0 32.2 6.3 43.3 19.1v-12.7c0-2.2 1.8-4 4-4h18.2c2.2 0 4 1.8 4 4v121.5c0 2.2-1.8 4-4 4h-18.2c-2.2 0-4-1.8-4-4z"/><path d="m963.2 593.8c0-25.9-10.1-39.2-31.6-39.2-22.4 0-33 14.4-33 41.2v62c0 2.2-1.8 4-4 4h-18.2c-2.2 0-4-1.8-4-4v-193.9c0-2.2 1.8-4 4-4h18.2c2.2 0 4 1.8 4 4v82.2c8.7-9.8 19.4-16.4 37.6-16.4 30.8 0 53.4 18 53.4 58.6v69.4c0 2.2-1.8 4-4 4h-18.5c-2.2 0-4-1.8-4-4v-63.9z"/><path d="m1079.2 554.5c-24.3 0-42.5 19.1-42.5 43.1 0 24.3 18.3 43.1 42.5 43.1 24.8 0 42.8-19.6 42.8-43.1s-18.3-43.1-42.8-43.1m43.3 91.9c-10.9 12.8-25.9 18.8-43.3 18.8-38.4 0-68.4-29.7-68.4-67.6 0-38.4 30.5-67.9 68.4-67.9 17.4 0 32.2 6.3 43.3 19.1v-12.7c0-2.2 1.8-4 4-4h18.2c2.2 0 4 1.8 4 4v121.5c0 2.2-1.8 4-4 4h-18.2c-2.2 0-4-1.8-4-4z"/><path d="m1266.1 593.8c0-25.9-10.1-39.2-31.6-39.2-22.4 0-33 14.4-33 41.2v62c0 2.2-1.8 4-4 4h-18.2c-2.2 0-4-1.8-4-4v-121.6c0-2.2 1.8-4 4-4h18.2c2.2 0 4 1.8 4 4v9.9c8.7-9.8 19.4-16.4 37.6-16.4 30.8 0 53.4 18 53.4 58.6v69.4c0 2.2-1.8 4-4 4h-18.5c-2.2 0-4-1.8-4-4v-63.9z"/><path d="m1382.1 554.5c-24.3 0-42.5 19.1-42.5 43.1 0 24.3 18.3 43.1 42.5 43.1 24.8 0 42.8-19.6 42.8-43.1s-18.3-43.1-42.8-43.1m43.3 91.9c-10.9 12.8-25.9 18.8-43.3 18.8-38.4 0-68.4-29.7-68.4-67.6 0-38.4 30.5-67.9 68.4-67.9 17.4 0 32.2 6.3 43.3 19.1v-84.9c0-2.2 1.8-4 4-4h18.2c2.2 0 4 1.8 4 4v193.8c0 2.2-1.8 4-4 4h-18.2c-2.2 0-4-1.8-4-4z"/></g></g></svg>