<?xml version="1.0" encoding="UTF-8" standalone="no"?>
<!-- Generator: Adobe Illustrator 22.1.0, SVG Export Plug-In . SVG Version: 6.00 Build 0)  -->

<svg
   xmlns:dc="http://purl.org/dc/elements/1.1/"
   xmlns:cc="http://creativecommons.org/ns#"
   xmlns:rdf="http://www.w3.org/1999/02/22-rdf-syntax-ns#"
   xmlns:svg="http://www.w3.org/2000/svg"
   xmlns="http://www.w3.org/2000/svg"
   xmlns:sodipodi="http://sodipodi.sourceforge.net/DTD/sodipodi-0.dtd"
   xmlns:inkscape="http://www.inkscape.org/namespaces/inkscape"
   version="1.1"
   id="Layer_1"
   x="0px"
   y="0px"
   viewBox="0 0 800 800"
   xml:space="preserve"
   sodipodi:docname="barchart.svg"
   inkscape:version="0.92.4 (5da689c313, 2019-01-14)"
   width="800"
   height="800"><metadata
   id="metadata85"><rdf:RDF><cc:Work
       rdf:about=""><dc:format>image/svg+xml</dc:format><dc:type
         rdf:resource="http://purl.org/dc/dcmitype/StillImage" /><dc:title></dc:title></cc:Work></rdf:RDF></metadata><defs
   id="defs83" /><sodipodi:namedview
   pagecolor="#ffffff"
   bordercolor="#666666"
   borderopacity="1"
   objecttolerance="10"
   gridtolerance="10"
   guidetolerance="10"
   inkscape:pageopacity="0"
   inkscape:pageshadow="2"
   inkscape:window-width="640"
   inkscape:window-height="480"
   id="namedview81"
   showgrid="false"
   inkscape:zoom="0.15644218"
   inkscape:cx="772.9078"
   inkscape:cy="805.69633"
   inkscape:current-layer="Layer_1" />
<style
   type="text/css"
   id="style2">
	.st0{fill:#00919B;}
	.st1{fill:#FFFFFF;}
	.st2{fill:#FF5A5F;}
</style>














<path
   class="st2"
   d="m 202.8,709 h -48.4 c -6.5,0 -11.9,-5.3 -11.9,-11.9 V 401.5 c 0,-6.5 5.3,-11.9 11.9,-11.9 h 48.4 c 6.5,0 11.8,5.3 11.8,11.9 v 295.6 c 0,6.6 -5.3,11.9 -11.8,11.9"
   id="path32"
   inkscape:connector-curvature="0"
   style="fill:#ff5a5f" />
<path
   class="st1"
   d="m 645.7,709 h -48.4 c -6.5,0 -11.9,-5.3 -11.9,-11.9 V 401.5 c 0,-6.5 5.3,-11.9 11.9,-11.9 h 48.4 c 6.5,0 11.8,5.3 11.8,11.9 v 295.6 c 0,6.6 -5.3,11.9 -11.8,11.9"
   id="path34"
   inkscape:connector-curvature="0"
   style="fill:#ffffff" />
<path
   class="st2"
   d="M 501.5,709 H 453 c -6.5,0 -11.9,-5.3 -11.9,-11.9 V 288.2 c 0,-6.5 5.3,-11.9 11.9,-11.9 h 48.4 c 6.5,0 11.9,5.3 11.9,11.9 v 408.9 c 0,6.6 -5.3,11.9 -11.8,11.9"
   id="path36"
   inkscape:connector-curvature="0"
   style="fill:#ff5a5f" />
<path
   class="st1"
   d="M 357.3,709 H 308.9 C 302.4,709 297,703.7 297,697.1 V 102.9 C 297,96.4 302.3,91 308.9,91 h 48.4 c 6.5,0 11.9,5.3 11.9,11.9 v 594.3 c -0.1,6.5 -5.4,11.8 -11.9,11.8"
   id="path38"
   inkscape:connector-curvature="0"
   style="fill:#ffffff" />




















</svg>