<?xml version="1.0" encoding="UTF-8" standalone="no"?>
<!-- Generator: Adobe Illustrator 22.1.0, SVG Export Plug-In . SVG Version: 6.00 Build 0)  -->

<svg
   xmlns:dc="http://purl.org/dc/elements/1.1/"
   xmlns:cc="http://creativecommons.org/ns#"
   xmlns:rdf="http://www.w3.org/1999/02/22-rdf-syntax-ns#"
   xmlns:svg="http://www.w3.org/2000/svg"
   xmlns="http://www.w3.org/2000/svg"
   xmlns:sodipodi="http://sodipodi.sourceforge.net/DTD/sodipodi-0.dtd"
   xmlns:inkscape="http://www.inkscape.org/namespaces/inkscape"
   version="1.1"
   id="Layer_1"
   x="0px"
   y="0px"
   viewBox="0 0 800 800"
   xml:space="preserve"
   sodipodi:docname="icon-coloured-background-email.svg"
   inkscape:version="0.92.4 (5da689c313, 2019-01-14)"
   width="800"
   height="800"><metadata
   id="metadata85"><rdf:RDF><cc:Work
       rdf:about=""><dc:format>image/svg+xml</dc:format><dc:type
         rdf:resource="http://purl.org/dc/dcmitype/StillImage" /><dc:title /></cc:Work></rdf:RDF></metadata><defs
   id="defs83" /><sodipodi:namedview
   pagecolor="#ffffff"
   bordercolor="#666666"
   borderopacity="1"
   objecttolerance="10"
   gridtolerance="10"
   guidetolerance="10"
   inkscape:pageopacity="0"
   inkscape:pageshadow="2"
   inkscape:window-width="1920"
   inkscape:window-height="1052"
   id="namedview81"
   showgrid="false"
   inkscape:zoom="2.2935567"
   inkscape:cx="158.70106"
   inkscape:cy="520.83533"
   inkscape:current-layer="Layer_1"
   inkscape:window-x="1920"
   inkscape:window-y="0"
   inkscape:window-maximized="1" />
<style
   type="text/css"
   id="style2">
	.st0{fill:#00919B;}
	.st1{fill:#0A3734;}
	.st2{fill:#FF5A5F;}
</style>
<path
   style="fill:#ffffff;fill-opacity:1"
   d="m 46.84277,140.66992 c -6.5,0 -11.90039,5.29883 -11.90039,11.79883 v 8.20312 195.05274 291.80469 c 0,6.5 5.40039,11.80078 11.90039,11.80078 h 706.21485 c 6.6,0 11.9,-5.30078 12,-11.80078 V 355.72461 160.67187 152.46875 c -0.1,-6.5 -5.4,-11.79883 -12,-11.79883 z m 60.29883,72 H 692.8584 V 355.72461 587.33008 H 107.1416 V 355.72461 Z"
   id="path4"
   inkscape:connector-curvature="0" />
<path
   class="st1"
   d="m 631.15,240.90579 -224,165.4 c -4.2,3.1 -9.9,3.1 -14.1,0 l -224,-165.4 c -5.3,-3.9 -12.7,-2.8 -16.6,2.5 l -29,39.2 c -3.9,5.3 -2.8,12.7 2.5,16.6 l 267,197.1 c 4.2,3.1 9.9,3.1 14.1,0 l 267,-197.1 c 5.3,-3.9 6.4,-11.3 2.5,-16.6 l -29,-39.2 c -3.8,-5.3 -11.2,-6.4 -16.4,-2.5"
   id="path6"
   inkscape:connector-curvature="0"
   style="fill:#ffffff;fill-opacity:1" />




































</svg>