<?xml version="1.0" encoding="UTF-8" standalone="no"?>
<!-- Generator: Adobe Illustrator 22.1.0, SVG Export Plug-In . SVG Version: 6.00 Build 0)  -->

<svg
   xmlns:dc="http://purl.org/dc/elements/1.1/"
   xmlns:cc="http://creativecommons.org/ns#"
   xmlns:rdf="http://www.w3.org/1999/02/22-rdf-syntax-ns#"
   xmlns:svg="http://www.w3.org/2000/svg"
   xmlns="http://www.w3.org/2000/svg"
   xmlns:sodipodi="http://sodipodi.sourceforge.net/DTD/sodipodi-0.dtd"
   xmlns:inkscape="http://www.inkscape.org/namespaces/inkscape"
   version="1.1"
   id="Layer_1"
   x="0px"
   y="0px"
   viewBox="0 0 800 800"
   xml:space="preserve"
   sodipodi:docname="marker.svg"
   inkscape:version="0.92.4 (5da689c313, 2019-01-14)"
   width="800"
   height="800"><metadata
   id="metadata85"><rdf:RDF><cc:Work
       rdf:about=""><dc:format>image/svg+xml</dc:format><dc:type
         rdf:resource="http://purl.org/dc/dcmitype/StillImage" /><dc:title></dc:title></cc:Work></rdf:RDF></metadata><defs
   id="defs83" /><sodipodi:namedview
   pagecolor="#ffffff"
   bordercolor="#666666"
   borderopacity="1"
   objecttolerance="10"
   gridtolerance="10"
   guidetolerance="10"
   inkscape:pageopacity="0"
   inkscape:pageshadow="2"
   inkscape:window-width="640"
   inkscape:window-height="480"
   id="namedview81"
   showgrid="false"
   inkscape:zoom="0.15644218"
   inkscape:cx="512.59022"
   inkscape:cy="1336.4514"
   inkscape:current-layer="Layer_1" />
<style
   type="text/css"
   id="style2">
	.st0{fill:#00919B;}
	.st1{fill:#FFFFFF;}
	.st2{fill:#FF5A5F;}
</style>


















<path
   class="st1"
   d="m 617.40018,257.28643 h -48.7 c -6.1,0 -11.5,-4.6 -11.9,-10.8 -5.5,-81.7 -73.8,-146.499998 -156.8,-146.499998 -83.1,0 -151.3,64.799998 -156.9,146.499998 -0.4,6.1 -5.8,10.8 -11.9,10.8 h -48.7 c -6.9,0 -12.2,-5.9 -11.8,-12.8 6.6,-120.7 107,-216.899998 229.3,-216.899998 122.4,0 222.7,96.199998 229.3,216.899998 0.4,6.9 -5,12.8 -11.9,12.8"
   id="path40"
   inkscape:connector-curvature="0"
   style="fill:#ffffff" />
<path
   class="st0"
   d="m 397.30018,766.68643 -208.9,-345.3 c -3.4,-5.6 -1.6,-12.9 4,-16.3 l 41.7,-25.2 c 5.6,-3.4 12.9,-1.6 16.3,4 l 155.2,256.5 143.7,-255.4 c 3.2,-5.7 10.4,-7.7 16.1,-4.5 l 42.5,23.9 c 5.7,3.2 7.7,10.4 4.5,16.1 l -194.7,345.8 c -4.4,8 -15.7,8.2 -20.4,0.4"
   id="path42"
   inkscape:connector-curvature="0"
   style="fill:#00919b" />


















</svg>