<?xml version="1.0" encoding="UTF-8" standalone="no"?>
<!-- Generator: Adobe Illustrator 22.1.0, SVG Export Plug-In . SVG Version: 6.00 Build 0)  -->

<svg
   xmlns:dc="http://purl.org/dc/elements/1.1/"
   xmlns:cc="http://creativecommons.org/ns#"
   xmlns:rdf="http://www.w3.org/1999/02/22-rdf-syntax-ns#"
   xmlns:svg="http://www.w3.org/2000/svg"
   xmlns="http://www.w3.org/2000/svg"
   xmlns:sodipodi="http://sodipodi.sourceforge.net/DTD/sodipodi-0.dtd"
   xmlns:inkscape="http://www.inkscape.org/namespaces/inkscape"
   version="1.1"
   id="Layer_1"
   x="0px"
   y="0px"
   viewBox="0 0 800 800"
   xml:space="preserve"
   sodipodi:docname="peace.svg"
   inkscape:version="0.92.4 (5da689c313, 2019-01-14)"
   width="800"
   height="800"><metadata
   id="metadata85"><rdf:RDF><cc:Work
       rdf:about=""><dc:format>image/svg+xml</dc:format><dc:type
         rdf:resource="http://purl.org/dc/dcmitype/StillImage" /><dc:title /></cc:Work></rdf:RDF></metadata><defs
   id="defs83" /><sodipodi:namedview
   pagecolor="#ffffff"
   bordercolor="#666666"
   borderopacity="1"
   objecttolerance="10"
   gridtolerance="10"
   guidetolerance="10"
   inkscape:pageopacity="0"
   inkscape:pageshadow="2"
   inkscape:window-width="640"
   inkscape:window-height="480"
   id="namedview81"
   showgrid="false"
   inkscape:zoom="0.12187115"
   inkscape:cx="-1287.2"
   inkscape:cy="1008.2396"
   inkscape:current-layer="Layer_1" />
<style
   type="text/css"
   id="style2">
	.st0{fill:#00919B;}
	.st1{fill:#FFFFFF;}
	.st2{fill:#FF5A5F;}
</style>






































<path
   inkscape:connector-curvature="0"
   class="st1"
   d="m 432.00921,496.65519 96,-29 c 6,-1.8 9.4,-8.1 7.6,-14.1 l -16.1,-53.4 c -1.8,-6 -8.1,-9.4 -14.1,-7.6 l -96,29 c -6,1.8 -9.4,8.1 -7.6,14.1 l 16.1,53.4 c 1.8,6 8.1,9.4 14.1,7.6"
   id="path64"
   style="fill:#ffffff" /><path
   inkscape:connector-curvature="0"
   class="st1"
   d="m 639.00921,557.05519 -16.1,-53.4 c -1.8,-6 -8.1,-9.4 -14.1,-7.6 l -96,29 c -6,1.8 -9.4,8.1 -7.6,14.1 l 16.1,53.4 c 1.8,6 8.1,9.4 14.1,7.6 l 96,-29 c 6,-1.9 9.4,-8.2 7.6,-14.1"
   id="path66"
   style="fill:#ffffff" /><path
   inkscape:connector-curvature="0"
   class="st0"
   d="m 485.70921,626.15519 c -4.4,-4.4 -11.6,-4.4 -16,0.1 l -25.2,25.4 c -20.3,20.4 -45.3,33.3 -71.5,39.1 v -0.2 c -17.3,3.8 -34.8,4.4 -51.7,2.1 -1.2,-0.2 -2.4,-0.3 -3.6,-0.5 -2.2,-0.4 -4.3,-0.8 -6.5,-1.2 -2.2,-0.5 -4.5,-1 -6.7,-1.6 -2.3,-0.6 -4.7,-1.3 -7,-2 -2.5,-0.8 -5,-1.7 -7.5,-2.6 -1.5,-0.6 -3,-1.1 -4.4,-1.8 -3.4,-1.4 -6.7,-2.9 -10,-4.6 -1.1,-0.6 -2.3,-1.2 -3.4,-1.9 -2.7,-1.4 -5.3,-3 -7.9,-4.6 -1,-0.7 -2.1,-1.3 -3.1,-2 -3.3,-2.2 -6.5,-4.5 -9.6,-7 -0.9,-0.7 -1.7,-1.4 -2.6,-2.1 -3.1,-2.6 -6.2,-5.3 -9.2,-8.3 -0.2,-0.2 -0.4,-0.3 -0.5,-0.5 -0.2,-0.2 -0.5,-0.5 -0.7,-0.7 -2.4,-2.5 -4.7,-5 -6.9,-7.6 -0.9,-1 -1.7,-2 -2.6,-3.1 -1.6,-1.9 -3,-3.9 -4.5,-5.9 -0.8,-1.1 -1.6,-2.2 -2.4,-3.3 -1.9,-2.8 -3.7,-5.6 -5.4,-8.5 -0.8,-1.3 -1.5,-2.7 -2.2,-4.1 -1,-1.8 -1.9,-3.6 -2.8,-5.4 -0.8,-1.6 -1.5,-3.2 -2.3,-4.8 -0.7,-1.6 -1.3,-3.2 -2,-4.7 -1.5,-3.8 -3.1,-7.6 -4.1,-11.5 -0.2,-0.7 -0.5,-1.5 -0.7,-2.2 -0.7,-2.2 -1.2,-4.5 -1.7,-6.8 -0.2,-0.9 -0.5,-1.9 -0.7,-2.9 -0.5,-2.5 -1,-5 -1.4,-7.6 0,-0.3 -0.1,-0.5 -0.1,-0.8 -2.7,-17.6 -2.2,-35.9 1.8,-53.9 l -0.3,-0.1 c 3.5,-15.9 9.6,-31.3 18.5,-45.6 l 87.6,64.1 c 5,3.7 12.1,2.6 15.8,-2.4 l 32.9,-45 c 3.7,-5 2.6,-12.1 -2.4,-15.8 l -98.2,-71.9 c -12.6,-9.2 -28.1,-13.7 -43.7,-12.5 -18.4,1.4 -35.5,10.3 -46.7,24.9 -37.69997,49.5 -51.89997,111.3 -42.69997,170.1 0.1,0.8 0.3,1.6 0.4,2.4 0.6,3.3 1.2,6.7 1.9,10 0.2,1.2 0.5,2.3 0.7,3.4 0.8,3.5 1.7,7 2.7,10.4 0.2,0.7 0.3,1.3 0.5,2 1.2,4 2.4,7.9 3.8,11.8 0.4,1.2 0.9,2.5 1.4,3.7 1,2.8 2.1,5.5 3.2,8.2 0.6,1.3 1.1,2.7 1.7,4 1.2,2.8 2.6,5.6 3.9,8.4 0.5,1 1,2.1 1.5,3.1 3.9,7.6 8.3,15.1 13.19997,22.3 0.6,0.8 1.2,1.7 1.7,2.5 1.9,2.8 3.9,5.5 5.9,8.2 0.7,1 1.5,1.9 2.2,2.9 2.1,2.7 4.3,5.3 6.5,7.9 0.7,0.8 1.3,1.6 2,2.3 2.9,3.2 5.8,6.4 8.9,9.5 0,0 0.1,0.1 0.1,0.1 0,0 0.1,0 0.1,0.1 0,0 0,0.1 0.1,0.1 0,0 0.1,0.1 0.1,0.1 3.1,3.1 6.3,6 9.5,8.9 0.8,0.7 1.5,1.3 2.3,2 2.6,2.2 5.2,4.4 7.9,6.5 0.9,0.7 1.9,1.5 2.8,2.2 2.7,2.1 5.5,4.1 8.2,6 0.8,0.6 1.6,1.1 2.4,1.7 7.2,4.9 14.7,9.3 22.3,13.2 1,0.5 2,1 3,1.5 2.8,1.4 5.6,2.7 8.5,4 1.3,0.6 2.6,1.1 3.9,1.7 2.7,1.2 5.5,2.2 8.3,3.3 1.2,0.5 2.4,0.9 3.6,1.4 3.9,1.4 7.8,2.7 11.8,3.8 0.7,0.2 1.3,0.3 2,0.5 3.4,1 6.9,1.9 10.4,2.7 1.2,0.3 2.3,0.5 3.5,0.8 3.3,0.7 6.5,1.3 9.8,1.9 0.9,0.1 1.7,0.3 2.6,0.4 68.3,10.7 140.5,-10.2 193,-62.8 l 25.3,-25.5 c 4.4,-4.4 4.4,-11.6 -0.1,-16 z"
   id="path68"
   style="fill:#ffffff" /><path
   inkscape:connector-curvature="0"
   class="st2"
   d="m 368.70921,387.25519 308,-228.3 c 5,-3.7 6.1,-10.8 2.4,-15.8 l -33.2,-44.799995 c -3.7,-5 -10.8,-6.1 -15.8,-2.4 l -189.9,140.799995 81.6,-168.899995 c 2.7,-5.6 0.4,-12.4 -5.3,-15.1 l -50.2,-24.2 c -5.6,-2.7 -12.4,-0.4 -15.1,5.3 l -145.5,301.199995 c -3.1,6.4 -1.4,14.1 4.1,18.6 l 39.9,33.1 c 5.4,4.6 13.3,4.8 19,0.5"
   id="path70"
   style="fill:#ffffff" /></svg>