<?xml version="1.0" encoding="UTF-8" standalone="no"?>
<!-- Generator: Adobe Illustrator 22.1.0, SVG Export Plug-In . SVG Version: 6.00 Build 0)  -->

<svg
   xmlns:dc="http://purl.org/dc/elements/1.1/"
   xmlns:cc="http://creativecommons.org/ns#"
   xmlns:rdf="http://www.w3.org/1999/02/22-rdf-syntax-ns#"
   xmlns:svg="http://www.w3.org/2000/svg"
   xmlns="http://www.w3.org/2000/svg"
   xmlns:sodipodi="http://sodipodi.sourceforge.net/DTD/sodipodi-0.dtd"
   xmlns:inkscape="http://www.inkscape.org/namespaces/inkscape"
   version="1.1"
   id="Layer_1"
   x="0px"
   y="0px"
   viewBox="0 0 800 800"
   xml:space="preserve"
   sodipodi:docname="pointing-down.svg"
   inkscape:version="0.92.4 (5da689c313, 2019-01-14)"
   width="800"
   height="800"><metadata
   id="metadata85"><rdf:RDF><cc:Work
       rdf:about=""><dc:format>image/svg+xml</dc:format><dc:type
         rdf:resource="http://purl.org/dc/dcmitype/StillImage" /><dc:title></dc:title></cc:Work></rdf:RDF></metadata><defs
   id="defs83" /><sodipodi:namedview
   pagecolor="#ffffff"
   bordercolor="#666666"
   borderopacity="1"
   objecttolerance="10"
   gridtolerance="10"
   guidetolerance="10"
   inkscape:pageopacity="0"
   inkscape:pageshadow="2"
   inkscape:window-width="640"
   inkscape:window-height="480"
   id="namedview81"
   showgrid="false"
   inkscape:zoom="0.15037445"
   inkscape:cx="-128.38214"
   inkscape:cy="2050.2397"
   inkscape:current-layer="Layer_1" />
<style
   type="text/css"
   id="style2">
	.st0{fill:#00919B;}
	.st1{fill:#FFFFFF;}
	.st2{fill:#FF5A5F;}
</style>


























<path
   class="st1"
   d="m 292.8205,495.64952 h -45 c -9.4,0 -17.1,-7.6 -17.1,-17.1 v -84.6 c 0,-9.4 7.6,-17.1 17.1,-17.1 h 45 c 9.4,0 17.1,7.6 17.1,17.1 v 84.6 c -0.1,9.4 -7.7,17.1 -17.1,17.1"
   id="path56"
   inkscape:connector-curvature="0"
   style="fill:#ffffff" />
<path
   class="st0"
   d="m 150.7205,495.64952 -45.3,-0.1 c -9.399998,0 -17.099998,-7.7 -16.999998,-17.1 l 0.3,-224.7 c 0.1,-60.7 23.799998,-117.6 66.499998,-160.200002 42.7,-42.5 99.5,-65.9 159.9,-65.9 h 0.5 c 71.5,0.2 137.5,33.5 180.1,90.200002 6,8 3.9,19.4 -4.5,24.8 l -38.4,24.4 c -7.4,4.7 -17,3 -22.4,-3.9 -27.7,-35.2 -69.6,-55.9 -114.8,-56 h -0.3 c -39.3,0 -76.1,15.2 -103.8,42.8 -27.8,27.7 -43.1,64.7 -43.2,104.1 l -0.3,224.7 c -0.2,9.2 -7.8,16.9 -17.3,16.9"
   id="path58"
   inkscape:connector-curvature="0"
   style="fill:#00919b" />
<path
   class="st1"
   d="m 427.1205,495.64952 h -45 c -9.4,0 -17.1,-7.6 -17.1,-17.1 v -124.2 c 0,-9.4 7.6,-17.1 17.1,-17.1 h 45 c 9.4,0 17.1,7.6 17.1,17.1 v 124.2 c -0.1,9.4 -7.7,17.1 -17.1,17.1"
   id="path60"
   inkscape:connector-curvature="0"
   style="fill:#ffffff" />
<path
   class="st2"
   d="m 559.2205,772.34952 -45.3,-0.1 c -9.4,0 -17.1,-7.7 -17,-17.1 l 1.2,-500.2 c 0,-8.4 4.5,-16.2 11.8,-20.5 l 35.6,-20.8 c 7.3,-4.3 16.3,-4.3 23.6,-0.2 l 133.7,74.8 c 8.2,4.6 11.2,15 6.6,23.2 l -22.1,39.5 c -4.6,8.2 -15,11.2 -23.2,6.6 l -86.6,-48.5 -1,446.2 c -0.2,9.5 -7.9,17.2 -17.3,17.1"
   id="path62"
   inkscape:connector-curvature="0"
   style="fill:#ff5a5f" />








</svg>