<?xml version="1.0" encoding="UTF-8" standalone="no"?>
<!-- Generator: Adobe Illustrator 22.1.0, SVG Export Plug-In . SVG Version: 6.00 Build 0)  -->

<svg
   xmlns:dc="http://purl.org/dc/elements/1.1/"
   xmlns:cc="http://creativecommons.org/ns#"
   xmlns:rdf="http://www.w3.org/1999/02/22-rdf-syntax-ns#"
   xmlns:svg="http://www.w3.org/2000/svg"
   xmlns="http://www.w3.org/2000/svg"
   xmlns:sodipodi="http://sodipodi.sourceforge.net/DTD/sodipodi-0.dtd"
   xmlns:inkscape="http://www.inkscape.org/namespaces/inkscape"
   version="1.1"
   id="Layer_1"
   x="0px"
   y="0px"
   viewBox="0 0 800 800"
   xml:space="preserve"
   sodipodi:docname="recyle.svg"
   inkscape:version="0.92.4 (5da689c313, 2019-01-14)"
   width="800"
   height="800"><metadata
   id="metadata85"><rdf:RDF><cc:Work
       rdf:about=""><dc:format>image/svg+xml</dc:format><dc:type
         rdf:resource="http://purl.org/dc/dcmitype/StillImage" /><dc:title></dc:title></cc:Work></rdf:RDF></metadata><defs
   id="defs83" /><sodipodi:namedview
   pagecolor="#ffffff"
   bordercolor="#666666"
   borderopacity="1"
   objecttolerance="10"
   gridtolerance="10"
   guidetolerance="10"
   inkscape:pageopacity="0"
   inkscape:pageshadow="2"
   inkscape:window-width="640"
   inkscape:window-height="480"
   id="namedview81"
   showgrid="false"
   inkscape:zoom="0.15644218"
   inkscape:cx="614.95152"
   inkscape:cy="1199.0431"
   inkscape:current-layer="Layer_1" />
<style
   type="text/css"
   id="style2">
	.st0{fill:#00919B;}
	.st1{fill:#FFFFFF;}
	.st2{fill:#FF5A5F;}
</style>


































<path
   class="st1"
   d="m 419.15,792.65 c -110.7,0 -211.5,-54.6 -272.1,-146.6 -3.7,-5.6 -1.8,-13.1 3.9,-16.5 l 41.7,-25.4 c 5.5,-3.3 12.5,-1.6 16.1,3.7 47.2,70.5 125,112.2 210.4,112.2 135.8,0 246.9,-107.4 253,-241.7 0.3,-6.4 5.4,-11.6 11.8,-11.6 h 48.8 c 6.6,0 12.1,5.5 11.9,12.1 -6.4,174.2 -150,313.8 -325.5,313.8"
   id="path72"
   inkscape:connector-curvature="0"
   style="fill:#ffffff" />
<path
   class="st1"
   d="m 95.55,584.05 -48.2,-7.6 c -6.5,-1 -10.9,-7.1 -9.9,-13.6 l 19.4,-122.7 c 1.4,-9 10.7,-14.5 19.3,-11.5 l 117,41.7 c 6.2,2.2 9.4,9 7.2,15.1 l -16.4,45.9 c -2.2,6.2 -9,9.4 -15.1,7.2 l -51.3,-18.3 -8.5,53.8 c -1,6.6 -7,11 -13.5,10"
   id="path74"
   inkscape:connector-curvature="0"
   style="fill:#ffffff" />
<path
   class="st2"
   d="m 116.05,333.05 h -48.8 c -6.6,0 -12.1,-5.5 -11.9,-12.1 6.4,-174 150,-313.6 325.5,-313.6 110.7,0 211.5,54.6 272.1,146.6 3.7,5.6 1.8,13.1 -3.9,16.5 l -41.7,25.3 c -5.5,3.3 -12.5,1.6 -16.1,-3.7 -47.2,-70.5 -125,-112.2 -210.4,-112.2 -135.8,0 -246.9,107.4 -253,241.7 -0.3,6.3 -5.4,11.5 -11.8,11.5"
   id="path76"
   inkscape:connector-curvature="0"
   style="fill:#ff5a5f" />
<path
   class="st2"
   d="m 723.75,371.15 -117,-41.7 c -6.2,-2.2 -9.4,-9 -7.2,-15.1 l 16.4,-45.9 c 2.2,-6.2 9,-9.4 15.1,-7.2 l 51.3,18.3 8.5,-53.8 c 1,-6.5 7.1,-10.9 13.6,-9.9 l 48.2,7.6 c 6.5,1 10.9,7.1 9.9,13.6 l -19.5,122.7 c -1.4,9 -10.7,14.5 -19.3,11.4"
   id="path78"
   inkscape:connector-curvature="0"
   style="fill:#ff5a5f" />
</svg>