<?xml version="1.0" encoding="UTF-8" standalone="no"?>
<!-- Generator: Adobe Illustrator 22.1.0, SVG Export Plug-In . SVG Version: 6.00 Build 0)  -->

<svg
   xmlns:dc="http://purl.org/dc/elements/1.1/"
   xmlns:cc="http://creativecommons.org/ns#"
   xmlns:rdf="http://www.w3.org/1999/02/22-rdf-syntax-ns#"
   xmlns:svg="http://www.w3.org/2000/svg"
   xmlns="http://www.w3.org/2000/svg"
   xmlns:sodipodi="http://sodipodi.sourceforge.net/DTD/sodipodi-0.dtd"
   xmlns:inkscape="http://www.inkscape.org/namespaces/inkscape"
   version="1.1"
   id="Layer_1"
   x="0px"
   y="0px"
   viewBox="0 0 800 800"
   xml:space="preserve"
   sodipodi:docname="magnifying.svg"
   inkscape:version="0.92.4 (5da689c313, 2019-01-14)"
   width="800"
   height="800"><metadata
   id="metadata85"><rdf:RDF><cc:Work
       rdf:about=""><dc:format>image/svg+xml</dc:format><dc:type
         rdf:resource="http://purl.org/dc/dcmitype/StillImage" /><dc:title /></cc:Work></rdf:RDF></metadata><defs
   id="defs83" /><sodipodi:namedview
   pagecolor="#ffffff"
   bordercolor="#666666"
   borderopacity="1"
   objecttolerance="10"
   gridtolerance="10"
   guidetolerance="10"
   inkscape:pageopacity="0"
   inkscape:pageshadow="2"
   inkscape:window-width="640"
   inkscape:window-height="480"
   id="namedview81"
   showgrid="false"
   inkscape:zoom="0.23685895"
   inkscape:cx="19.158041"
   inkscape:cy="-3.2768627"
   inkscape:current-layer="Layer_1" />
<style
   type="text/css"
   id="style2">
	.st0{fill:#00919B;}
	.st1{fill:#FFFFFF;}
	.st2{fill:#FF5A5F;}
</style>










<path
   class="st0"
   d="m 277.67516,131.52518 c -37.4,0 -74.7,14.2 -103.2,42.6 v 0 c -27.7,27.6 -42.9,64.3 -43,103.3 -0.1,39.1 15.1,75.8 42.7,103.5 27.6,27.7 64.2,43 103.3,43 h 0.3 c 39,0 75.6,-15.1 103.2,-42.6 27.7,-27.6 43,-64.3 43,-103.3 0.1,-39.1 -15.1,-75.8 -42.6,-103.5 -28.7,-28.6 -66.2,-43 -103.7,-43 m 0,364.9 h -0.4 c -58.4,-0.1 -113.3,-23 -154.5,-64.4 -41.199996,-41.4 -63.899996,-96.3 -63.799996,-154.8 0.1,-58.4 23,-113.3 64.399996,-154.5 85.4,-85.100004 224.2,-84.900004 309.3,0.6 41.2,41.4 63.9,96.4 63.8,154.8 -0.1,58.4 -23,113.3 -64.4,154.5 -41.4,41.2 -96.2,63.8 -154.4,63.8"
   id="path24"
   inkscape:connector-curvature="0"
   style="fill:#ffffff" />
<path
   class="st1"
   d="m 686.17516,737.42518 -196.6,-197.3 c -4.6,-4.6 -4.6,-12.1 0,-16.8 l 34.6,-34.4 c 4.6,-4.6 12.1,-4.6 16.8,0 l 196.6,197.3 c 4.6,4.6 4.6,12.1 0,16.8 l -34.6,34.4 c -4.7,4.7 -12.2,4.7 -16.8,0"
   id="path26"
   inkscape:connector-curvature="0"
   style="fill:#ffffff" />


























</svg>