<?xml version="1.0" encoding="UTF-8" standalone="no"?>
<!-- Generator: Adobe Illustrator 22.1.0, SVG Export Plug-In . SVG Version: 6.00 Build 0)  -->

<svg
   xmlns:dc="http://purl.org/dc/elements/1.1/"
   xmlns:cc="http://creativecommons.org/ns#"
   xmlns:rdf="http://www.w3.org/1999/02/22-rdf-syntax-ns#"
   xmlns:svg="http://www.w3.org/2000/svg"
   xmlns="http://www.w3.org/2000/svg"
   xmlns:sodipodi="http://sodipodi.sourceforge.net/DTD/sodipodi-0.dtd"
   xmlns:inkscape="http://www.inkscape.org/namespaces/inkscape"
   version="1.1"
   id="Layer_1"
   x="0px"
   y="0px"
   viewBox="0 0 800 800"
   xml:space="preserve"
   sodipodi:docname="list.svg"
   inkscape:version="0.92.4 (5da689c313, 2019-01-14)"
   width="800"
   height="800"><metadata
   id="metadata85"><rdf:RDF><cc:Work
       rdf:about=""><dc:format>image/svg+xml</dc:format><dc:type
         rdf:resource="http://purl.org/dc/dcmitype/StillImage" /><dc:title /></cc:Work></rdf:RDF></metadata><defs
   id="defs83" /><sodipodi:namedview
   pagecolor="#ffffff"
   bordercolor="#666666"
   borderopacity="1"
   objecttolerance="10"
   gridtolerance="10"
   guidetolerance="10"
   inkscape:pageopacity="0"
   inkscape:pageshadow="2"
   inkscape:window-width="640"
   inkscape:window-height="480"
   id="namedview81"
   showgrid="false"
   inkscape:zoom="0.16748458"
   inkscape:cx="775.77323"
   inkscape:cy="-120.63404"
   inkscape:current-layer="Layer_1" />
<style
   type="text/css"
   id="style2">
	.st0{fill:#00919B;}
	.st1{fill:#FFFFFF;}
	.st2{fill:#FF5A5F;}
</style>


<path
   class="st2"
   d="M 707.8,194.1 H 257.7 c -6.5,0 -11.9,-5.3 -11.9,-11.8 v -48.4 c 0,-6.5 5.3,-11.9 11.9,-11.9 h 450.1 c 6.5,0 11.8,5.3 11.8,11.9 v 48.4 c 0,6.5 -5.3,11.8 -11.8,11.8"
   id="path8"
   inkscape:connector-curvature="0"
   style="fill:#ffffff" />
<path
   class="st1"
   d="M 707.8,358.9 H 257.7 c -6.5,0 -11.9,-5.3 -11.9,-11.8 v -48.4 c 0,-6.5 5.3,-11.9 11.9,-11.9 h 450.1 c 6.5,0 11.8,5.3 11.8,11.9 v 48.4 c 0,6.5 -5.3,11.8 -11.8,11.8"
   id="path10"
   inkscape:connector-curvature="0"
   style="fill:#ffffff" />
<path
   class="st2"
   d="M 707.8,513.4 H 257.7 c -6.5,0 -11.9,-5.3 -11.9,-11.8 v -48.4 c 0,-6.5 5.3,-11.9 11.9,-11.9 h 450.1 c 6.5,0 11.8,5.3 11.8,11.9 v 48.4 c 0,6.5 -5.3,11.8 -11.8,11.8"
   id="path12"
   inkscape:connector-curvature="0"
   style="fill:#ffffff" />
<path
   class="st1"
   d="M 707.8,678.2 H 257.7 c -6.5,0 -11.9,-5.3 -11.9,-11.9 v -48.4 c 0,-6.5 5.3,-11.9 11.9,-11.9 h 450.1 c 6.5,0 11.8,5.3 11.8,11.9 v 48.4 c 0,6.6 -5.3,11.9 -11.8,11.9"
   id="path14"
   inkscape:connector-curvature="0"
   style="fill:#ffffff" />
<path
   class="st2"
   d="m 113.8,121.8 c 18.4,0 33.4,14.9 33.4,33.4 0,18.4 -14.9,33.4 -33.4,33.4 -18.4,0 -33.4,-14.9 -33.4,-33.4 0.1,-18.4 15,-33.4 33.4,-33.4"
   id="path16"
   inkscape:connector-curvature="0"
   style="fill:#ffffff" />
<path
   class="st1"
   d="m 113.8,285.9 c 18.4,0 33.4,14.9 33.4,33.4 0,18.4 -14.9,33.4 -33.4,33.4 -18.4,0 -33.4,-14.9 -33.4,-33.4 0.1,-18.5 15,-33.4 33.4,-33.4"
   id="path18"
   inkscape:connector-curvature="0"
   style="fill:#ffffff" />
<path
   class="st2"
   d="m 113.8,444.4 c 18.4,0 33.4,14.9 33.4,33.4 0,18.4 -14.9,33.4 -33.4,33.4 -18.4,0 -33.4,-14.9 -33.4,-33.4 0.1,-18.5 15,-33.4 33.4,-33.4"
   id="path20"
   inkscape:connector-curvature="0"
   style="fill:#ffffff" />
<path
   class="st1"
   d="m 113.8,605.6 c 18.4,0 33.4,14.9 33.4,33.4 0,18.4 -14.9,33.4 -33.4,33.4 -18.4,0 -33.4,-14.9 -33.4,-33.4 0.1,-18.4 15,-33.4 33.4,-33.4"
   id="path22"
   inkscape:connector-curvature="0"
   style="fill:#ffffff" />




























</svg>