<?xml version="1.0" encoding="UTF-8" standalone="no"?>
<svg
   xmlns:dc="http://purl.org/dc/elements/1.1/"
   xmlns:cc="http://creativecommons.org/ns#"
   xmlns:rdf="http://www.w3.org/1999/02/22-rdf-syntax-ns#"
   xmlns:svg="http://www.w3.org/2000/svg"
   xmlns="http://www.w3.org/2000/svg"
   xmlns:sodipodi="http://sodipodi.sourceforge.net/DTD/sodipodi-0.dtd"
   xmlns:inkscape="http://www.inkscape.org/namespaces/inkscape"
   xml:space="preserve"
   viewBox="0 0 800 800"
   y="0px"
   x="0px"
   id="Layer_1"
   version="1.1"
   sodipodi:docname="checkmark.svg"
   width="800"
   height="800"
   inkscape:version="0.92.4 (5da689c313, 2019-01-14)"><sodipodi:namedview
   pagecolor="#ffffff"
   bordercolor="#666666"
   borderopacity="1"
   objecttolerance="10"
   gridtolerance="10"
   guidetolerance="10"
   inkscape:pageopacity="0"
   inkscape:pageshadow="2"
   inkscape:window-width="640"
   inkscape:window-height="480"
   id="namedview169"
   showgrid="false"
   inkscape:zoom="0.19864063"
   inkscape:cx="1900.9999"
   inkscape:cy="767.66937"
   inkscape:current-layer="Layer_1" /><metadata
   id="metadata335"><rdf:RDF><cc:Work
       rdf:about=""><dc:format>image/svg+xml</dc:format><dc:type
         rdf:resource="http://purl.org/dc/dcmitype/StillImage" /><dc:title /></cc:Work></rdf:RDF></metadata><defs
   id="defs333" />
<style
   id="style2"
   type="text/css">
	.st0{fill:#00919B;}
	.st1{fill:#0A3734;}
	.st2{fill:#FF5A5F;}
</style>






































<path
   id="path80"
   d="m 421.82708,656.23872 -45.32,-26.18 c -7.88,-4.55 -10.57,-14.61 -6.02,-22.49 l 255.66,-442.54 c 4.55,-7.87 14.61,-10.56 22.48,-6.02 l 45.32,26.19 c 7.88,4.55 10.57,14.61 6.02,22.48 l -255.66,442.54 c -4.55,7.87 -14.61,10.57 -22.48,6.02"
   class="st1"
   inkscape:connector-curvature="0"
   style="fill:#ffffff" />
<path
   id="path82"
   d="m 185.89708,653.62872 -85.76,-144.1 c -4.649996,-7.81 -2.079996,-17.91 5.73,-22.56 l 44.97,-26.77 c 7.81,-4.64 17.92,-2.08 22.56,5.73 l 55.42,93.11 241.37,-415.72 c 4.56,-7.87 14.64,-10.53 22.49,-5.97 l 45.27,26.28 c 7.86,4.57 10.53,14.64 5.96,22.5 l -271.15,467.03 c -4.1,7.06 -11.63,11.42 -19.79,11.46 l -47.16,0.26 c -8.16,0.05 -15.74,-4.24 -19.91,-11.25"
   class="st2"
   inkscape:connector-curvature="0"
   style="fill:#ffffff" />



























































































































</svg>