<?xml version="1.0" encoding="UTF-8" standalone="no"?>
<!-- Generator: Adobe Illustrator 22.1.0, SVG Export Plug-In . SVG Version: 6.00 Build 0)  -->

<svg
   xmlns:dc="http://purl.org/dc/elements/1.1/"
   xmlns:cc="http://creativecommons.org/ns#"
   xmlns:rdf="http://www.w3.org/1999/02/22-rdf-syntax-ns#"
   xmlns:svg="http://www.w3.org/2000/svg"
   xmlns="http://www.w3.org/2000/svg"
   xmlns:sodipodi="http://sodipodi.sourceforge.net/DTD/sodipodi-0.dtd"
   xmlns:inkscape="http://www.inkscape.org/namespaces/inkscape"
   version="1.1"
   id="Layer_1"
   x="0px"
   y="0px"
   viewBox="0 0 800 800"
   xml:space="preserve"
   sodipodi:docname="high-five.svg"
   inkscape:version="0.92.4 (5da689c313, 2019-01-14)"
   width="800"
   height="800"><metadata
   id="metadata85"><rdf:RDF><cc:Work
       rdf:about=""><dc:format>image/svg+xml</dc:format><dc:type
         rdf:resource="http://purl.org/dc/dcmitype/StillImage" /><dc:title></dc:title></cc:Work></rdf:RDF></metadata><defs
   id="defs83" /><sodipodi:namedview
   pagecolor="#ffffff"
   bordercolor="#666666"
   borderopacity="1"
   objecttolerance="10"
   gridtolerance="10"
   guidetolerance="10"
   inkscape:pageopacity="0"
   inkscape:pageshadow="2"
   inkscape:window-width="640"
   inkscape:window-height="480"
   id="namedview81"
   showgrid="false"
   inkscape:zoom="0.2235648"
   inkscape:cx="589.90776"
   inkscape:cy="578.2015"
   inkscape:current-layer="Layer_1" />
<style
   type="text/css"
   id="style2">
	.st0{fill:#00919B;}
	.st1{fill:#0A3734;}
	.st2{fill:#FF5A5F;}
</style>

























<g
   id="g91"
   transform="translate(-1544.6239,-139.95)"><path
     id="path48"
     d="M 2032.9,552.3 2032,239.6 c 0,-9.5 7.7,-17.3 17.2,-17.3 l 39.5,-0.1 c 9.5,0 17.3,7.7 17.3,17.2 l 0.9,312.7 c 0,9.5 -7.7,17.3 -17.2,17.3 l -39.5,0.1 c -9.5,0.1 -17.3,-7.6 -17.3,-17.2"
     class="st1"
     inkscape:connector-curvature="0"
     style="fill:#0a3734" /><path
     id="path50"
     d="m 2023.6,912.4 c -65.8,0 -126.8,-30.3 -166.6,-81.9 -6.2,-8.1 -4.2,-19.8 4.4,-25.3 l 33.4,-21.4 c 7.4,-4.8 17.2,-3.1 22.7,3.8 25.9,32 64.5,50.7 106.1,50.7 h 0.4 c 36.7,-0.1 71.1,-14.4 96.8,-40.3 25.7,-25.9 39.8,-60.4 39.7,-97.2 l -1.4,-329.4 c 0,-9.5 7.7,-17.3 17.2,-17.3 l 39.5,-0.2 c 9.5,0 17.3,7.7 17.3,17.2 l 1.4,329.4 c 0.2,56.5 -21.6,109.6 -61.2,149.6 -39.7,39.9 -92.6,62 -149.1,62.2 h -0.6 z"
     class="st0"
     inkscape:connector-curvature="0"
     style="fill:#00919b" /><path
     id="path52"
     d="m 1906.6,622.7 -2.1,-437.6 c 0,-9.5 7.7,-17.3 17.2,-17.4 l 39.5,-0.2 c 9.5,0 17.3,7.7 17.4,17.2 l 2.1,437.6 c 0,9.5 -7.6,17.3 -17.2,17.4 l -39.5,0.2 c -9.6,0.1 -17.4,-7.6 -17.4,-17.2"
     class="st1"
     inkscape:connector-curvature="0"
     style="fill:#0a3734" /><path
     id="path54"
     d="m 1789.8,741.8 -126.1,-69.7 c -8.4,-4.6 -11.4,-15.1 -6.8,-23.5 l 19.1,-34.5 c 4.6,-8.3 15.1,-11.4 23.5,-6.8 l 54,29.8 c 11.5,6.4 25.7,-2 25.6,-15.2 l -1,-384.9 c 0,-9.5 7.7,-17.3 17.2,-17.3 l 39.5,-0.1 c 9.5,0 17.3,7.7 17.3,17.2 l 1.3,467.3 c 0,6.1 -3.2,11.8 -8.5,14.9 l -37.9,22.4 c -5.3,3.3 -11.9,3.4 -17.2,0.4"
     class="st2"
     inkscape:connector-curvature="0"
     style="fill:#ff5a5f" /></g>












</svg>