<?xml version="1.0" encoding="UTF-8" standalone="no"?>
<!-- Generator: Adobe Illustrator 22.1.0, SVG Export Plug-In . SVG Version: 6.00 Build 0)  -->

<svg
   xmlns:dc="http://purl.org/dc/elements/1.1/"
   xmlns:cc="http://creativecommons.org/ns#"
   xmlns:rdf="http://www.w3.org/1999/02/22-rdf-syntax-ns#"
   xmlns:svg="http://www.w3.org/2000/svg"
   xmlns="http://www.w3.org/2000/svg"
   xmlns:sodipodi="http://sodipodi.sourceforge.net/DTD/sodipodi-0.dtd"
   xmlns:inkscape="http://www.inkscape.org/namespaces/inkscape"
   version="1.1"
   id="Layer_1"
   x="0px"
   y="0px"
   viewBox="0 0 800 800"
   xml:space="preserve"
   sodipodi:docname="icon-light-background-menu.svg"
   inkscape:version="0.92.4 (5da689c313, 2019-01-14)"
   width="800"
   height="800"><metadata
   id="metadata85"><rdf:RDF><cc:Work
       rdf:about=""><dc:format>image/svg+xml</dc:format><dc:type
         rdf:resource="http://purl.org/dc/dcmitype/StillImage" /><dc:title></dc:title></cc:Work></rdf:RDF></metadata><defs
   id="defs83" /><sodipodi:namedview
   pagecolor="#ffffff"
   bordercolor="#666666"
   borderopacity="1"
   objecttolerance="10"
   gridtolerance="10"
   guidetolerance="10"
   inkscape:pageopacity="0"
   inkscape:pageshadow="2"
   inkscape:window-width="1920"
   inkscape:window-height="1052"
   id="namedview81"
   showgrid="false"
   inkscape:zoom="0.64395418"
   inkscape:cx="106.31312"
   inkscape:cy="540.17807"
   inkscape:current-layer="Layer_1"
   inkscape:window-x="1920"
   inkscape:window-y="0"
   inkscape:window-maximized="1" />
<style
   type="text/css"
   id="style2">
	.st0{fill:#00919B;}
	.st1{fill:#FFFFFF;}
	.st2{fill:#FF5A5F;}
</style>




<path
   class="st2"
   d="M 771.07301,670.90799 H 29.026775 c -6.500005,0 -11.900005,-5.3 -11.900005,-11.8 v -67.03487 c 0,-6.5 5.3,-11.9 11.900005,-11.9 H 771.07301 c 6.5,0 11.8,5.3 11.8,11.9 v 67.03487 c 0,6.5 -5.3,11.8 -11.8,11.8"
   id="path12"
   inkscape:connector-curvature="0"
   style="fill:#ff5a5f;fill-opacity:1"
   sodipodi:nodetypes="csssssssc" />

































<path
   class="st2"
   d="M 771.07301,445.36744 H 29.026775 c -6.500005,0 -11.900005,-5.3 -11.900005,-11.8 v -67.03487 c 0,-6.5 5.3,-11.9 11.900005,-11.9 H 771.07301 c 6.5,0 11.8,5.3 11.8,11.9 v 67.03487 c 0,6.5 -5.3,11.8 -11.8,11.8"
   id="path12-3"
   inkscape:connector-curvature="0"
   style="fill:#0a3734;fill-opacity:1"
   sodipodi:nodetypes="csssssssc" /><path
   class="st2"
   d="M 771.07301,219.82688 H 29.026775 c -6.500005,0 -11.900005,-5.3 -11.900005,-11.8 v -67.03487 c 0,-6.5 5.3,-11.9 11.900005,-11.9 H 771.07301 c 6.5,0 11.8,5.3 11.8,11.9 v 67.03487 c 0,6.5 -5.3,11.8 -11.8,11.8"
   id="path12-6"
   inkscape:connector-curvature="0"
   style="fill:#0a3734;fill-opacity:1"
   sodipodi:nodetypes="csssssssc" /></svg>