<?xml version="1.0" encoding="UTF-8" standalone="no"?>
<svg
   xmlns:dc="http://purl.org/dc/elements/1.1/"
   xmlns:cc="http://creativecommons.org/ns#"
   xmlns:rdf="http://www.w3.org/1999/02/22-rdf-syntax-ns#"
   xmlns:svg="http://www.w3.org/2000/svg"
   xmlns="http://www.w3.org/2000/svg"
   xmlns:sodipodi="http://sodipodi.sourceforge.net/DTD/sodipodi-0.dtd"
   xmlns:inkscape="http://www.inkscape.org/namespaces/inkscape"
   xml:space="preserve"
   viewBox="0 0 800 800"
   y="0px"
   x="0px"
   id="Layer_1"
   version="1.1"
   sodipodi:docname="euro.svg"
   width="800"
   height="800"
   inkscape:version="0.92.4 (5da689c313, 2019-01-14)"><sodipodi:namedview
   pagecolor="#ffffff"
   bordercolor="#666666"
   borderopacity="1"
   objecttolerance="10"
   gridtolerance="10"
   guidetolerance="10"
   inkscape:pageopacity="0"
   inkscape:pageshadow="2"
   inkscape:window-width="640"
   inkscape:window-height="480"
   id="namedview169"
   showgrid="false"
   inkscape:zoom="0.1364935"
   inkscape:cx="3658.7712"
   inkscape:cy="-1667.6897"
   inkscape:current-layer="Layer_1" /><metadata
   id="metadata335"><rdf:RDF><cc:Work
       rdf:about=""><dc:format>image/svg+xml</dc:format><dc:type
         rdf:resource="http://purl.org/dc/dcmitype/StillImage" /><dc:title></dc:title></cc:Work></rdf:RDF></metadata><defs
   id="defs333" />
<style
   id="style2"
   type="text/css">
	.st0{fill:#00919B;}
	.st1{fill:#0A3734;}
	.st2{fill:#FF5A5F;}
</style>








































<path
   id="path84"
   d="m 273.38043,477.94 h -40.44 c -8.1,0 -13.77,-8.02 -11.06,-15.66 l 11.63,-32.78 c 2.67,-7.52 9.79,-12.55 17.77,-12.55 h 21.44 83.28 125.68 c 8.1,0 13.77,8.02 11.06,15.66 l -11.63,32.78 c -2.67,7.52 -9.79,12.55 -17.77,12.55 h -106.68 z"
   class="st1"
   inkscape:connector-curvature="0"
   style="fill:#0a3734" />
<path
   id="path86"
   d="m 292.62043,307.8 c -8.84,0 -15.89,-7.5 -15.22,-16.32 6.4,-84.31 58.02,-156.14 155.39,-156.14 76.71,0 131.94,40.7 145.75,113.17 1.71,8.98 -5.1,17.33 -14.24,17.33 h -49.48 c -7.76,0 -14.74,-4.72 -17.63,-11.93 -11.46,-28.56 -35.36,-39.88 -64.4,-39.88 -44.44,0 -66.88,32.45 -71.85,80.22 -0.8,7.72 -7.39,13.55 -15.16,13.55 z"
   class="st2"
   inkscape:connector-curvature="0"
   style="fill:#ff5a5f" />
<path
   id="path88"
   d="m 272.72043,392.87 h -33.22 c -8.1,0 -13.77,-8.02 -11.06,-15.66 l 11.63,-32.78 c 2.67,-7.52 9.79,-12.55 17.77,-12.55 h 14.88 83.28 153.88 c 8.1,0 13.77,8.02 11.06,15.66 l -11.63,32.78 c -2.67,7.52 -9.79,12.55 -17.77,12.55 h -135.54 z"
   class="st1"
   inkscape:connector-curvature="0"
   style="fill:#0a3734" />
<path
   id="path90"
   d="m 347.72043,502.02 c 5.02,0 9.21,3.77 9.82,8.76 5.34,43.97 23.85,75.18 71.25,75.18 29.53,0 58.04,-14.32 66.56,-40.7 2.14,-6.61 8.27,-11.1 15.22,-11.1 h 52.21 c 7.31,0 12.95,6.57 11.69,13.78 -11.82,67.72 -61.46,116.72 -145.69,116.72 -96.33,0 -144.9,-64.68 -154.43,-151.67 -0.64,-5.85 3.95,-10.96 9.83,-10.96 h 63.54 z"
   class="st0"
   inkscape:connector-curvature="0"
   style="fill:#00919b" />























































































































</svg>