<?xml version="1.0" encoding="UTF-8" standalone="no"?>
<!-- Generator: Adobe Illustrator 22.1.0, SVG Export Plug-In . SVG Version: 6.00 Build 0)  -->

<svg
   xmlns:dc="http://purl.org/dc/elements/1.1/"
   xmlns:cc="http://creativecommons.org/ns#"
   xmlns:rdf="http://www.w3.org/1999/02/22-rdf-syntax-ns#"
   xmlns:svg="http://www.w3.org/2000/svg"
   xmlns="http://www.w3.org/2000/svg"
   xmlns:sodipodi="http://sodipodi.sourceforge.net/DTD/sodipodi-0.dtd"
   xmlns:inkscape="http://www.inkscape.org/namespaces/inkscape"
   version="1.1"
   id="Layer_1"
   x="0px"
   y="0px"
   viewBox="0 0 800 800"
   xml:space="preserve"
   sodipodi:docname="pointing-left.svg"
   inkscape:version="0.92.4 (5da689c313, 2019-01-14)"
   width="800"
   height="800"><metadata
   id="metadata85"><rdf:RDF><cc:Work
       rdf:about=""><dc:format>image/svg+xml</dc:format><dc:type
         rdf:resource="http://purl.org/dc/dcmitype/StillImage" /><dc:title /></cc:Work></rdf:RDF></metadata><defs
   id="defs83" /><sodipodi:namedview
   pagecolor="#ffffff"
   bordercolor="#666666"
   borderopacity="1"
   objecttolerance="10"
   gridtolerance="10"
   guidetolerance="10"
   inkscape:pageopacity="0"
   inkscape:pageshadow="2"
   inkscape:window-width="640"
   inkscape:window-height="480"
   id="namedview81"
   showgrid="false"
   inkscape:zoom="0.63696599"
   inkscape:cx="692.09387"
   inkscape:cy="299.00836"
   inkscape:current-layer="Layer_1" />
<style
   type="text/css"
   id="style2">
	.st0{fill:#00919B;}
	.st1{fill:#FFFFFF;}
	.st2{fill:#FF5A5F;}
</style>


























<path
   class="st1"
   d="m 304.35048,507.1795 v 45 c 0,9.4 7.6,17.1 17.1,17.1 h 84.6 c 9.4,0 17.1,-7.6 17.1,-17.1 v -45 c 0,-9.4 -7.6,-17.1 -17.1,-17.1 h -84.6 c -9.4,0.1 -17.1,7.7 -17.1,17.1"
   id="path56"
   inkscape:connector-curvature="0"
   style="fill:#ffffff" />
<path
   class="st0"
   d="m 304.35048,649.2795 0.1,45.3 c 0,9.4 7.7,17.1 17.1,17 l 224.7,-0.3 c 60.7,-0.1 117.6,-23.8 160.2,-66.5 42.5,-42.7 65.9,-99.5 65.9,-159.9 v -0.5 c -0.2,-71.5 -33.5,-137.5 -90.2,-180.1 -8,-6 -19.4,-3.9 -24.8,4.5 l -24.4,38.4 c -4.7,7.4 -3,17 3.9,22.4 35.2,27.7 55.9,69.6 56,114.8 v 0.3 c 0,39.3 -15.2,76.1 -42.8,103.8 -27.7,27.8 -64.7,43.1 -104.1,43.2 l -224.7,0.3 c -9.2,0.2 -16.9,7.8 -16.9,17.3"
   id="path58"
   inkscape:connector-curvature="0"
   style="fill:#ffffff" />
<path
   class="st1"
   d="m 304.35048,372.8795 v 45 c 0,9.4 7.6,17.1 17.1,17.1 h 124.2 c 9.4,0 17.1,-7.6 17.1,-17.1 v -45 c 0,-9.4 -7.6,-17.1 -17.1,-17.1 h -124.2 c -9.4,0.1 -17.1,7.7 -17.1,17.1"
   id="path60"
   inkscape:connector-curvature="0"
   style="fill:#ffffff" />
<path
   class="st2"
   d="m 27.65048,240.7795 0.1,45.3 c 0,9.4 7.7,17.1 17.1,17 l 500.2,-1.2 c 8.4,0 16.2,-4.5 20.5,-11.8 l 20.8,-35.6 c 4.3,-7.3 4.3,-16.3 0.2,-23.6 l -74.8,-133.7 c -4.6,-8.2 -15,-11.2 -23.2,-6.6 l -39.5,22.1 c -8.2,4.6 -11.2,15 -6.6,23.2 l 48.5,86.6 -446.2,1 c -9.5,0.2 -17.2,7.9 -17.1,17.3"
   id="path62"
   inkscape:connector-curvature="0"
   style="fill:#ffffff" />








</svg>