<?xml version="1.0" encoding="UTF-8" standalone="no"?>
<!-- Generator: Adobe Illustrator 22.1.0, SVG Export Plug-In . SVG Version: 6.00 Build 0)  -->

<svg
   xmlns:dc="http://purl.org/dc/elements/1.1/"
   xmlns:cc="http://creativecommons.org/ns#"
   xmlns:rdf="http://www.w3.org/1999/02/22-rdf-syntax-ns#"
   xmlns:svg="http://www.w3.org/2000/svg"
   xmlns="http://www.w3.org/2000/svg"
   xmlns:sodipodi="http://sodipodi.sourceforge.net/DTD/sodipodi-0.dtd"
   xmlns:inkscape="http://www.inkscape.org/namespaces/inkscape"
   version="1.1"
   id="Layer_1"
   x="0px"
   y="0px"
   viewBox="0 0 800 800"
   xml:space="preserve"
   sodipodi:docname="user.svg"
   inkscape:version="0.92.4 (5da689c313, 2019-01-14)"
   width="800"
   height="800"><metadata
   id="metadata85"><rdf:RDF><cc:Work
       rdf:about=""><dc:format>image/svg+xml</dc:format><dc:type
         rdf:resource="http://purl.org/dc/dcmitype/StillImage" /><dc:title></dc:title></cc:Work></rdf:RDF></metadata><defs
   id="defs83" /><sodipodi:namedview
   pagecolor="#ffffff"
   bordercolor="#666666"
   borderopacity="1"
   objecttolerance="10"
   gridtolerance="10"
   guidetolerance="10"
   inkscape:pageopacity="0"
   inkscape:pageshadow="2"
   inkscape:window-width="640"
   inkscape:window-height="480"
   id="namedview81"
   showgrid="false"
   inkscape:zoom="0.15644218"
   inkscape:cx="908.20482"
   inkscape:cy="1000.7322"
   inkscape:current-layer="Layer_1" />
<style
   type="text/css"
   id="style2">
	.st0{fill:#00919B;}
	.st1{fill:#FFFFFF;}
	.st2{fill:#FF5A5F;}
</style>




















<path
   class="st0"
   d="M 635.4,741.9 H 587 c -6.5,0 -11.9,-5.3 -11.9,-11.8 v -85.5 c 0,-92.3 -80.2,-170.3 -175.1,-170.3 -94.9,0 -175.1,78 -175.1,170.3 v 85.5 c 0,6.5 -5.3,11.8 -11.8,11.8 h -48.4 c -6.5,0 -11.9,-5.3 -11.9,-11.8 v -85.5 c 0,-133.7 110.9,-242.4 247.2,-242.4 136.3,0 247.2,108.8 247.2,242.4 v 85.5 c 0,6.5 -5.3,11.8 -11.8,11.8"
   id="path44"
   inkscape:connector-curvature="0"
   style="fill:#00919b" />
<path
   class="st1"
   d="m 405.1,130.5 c -18.4,0 -35.7,7.1 -48.7,20.1 v 0 c -13,13 -20.3,30.3 -20.3,48.7 0,18.4 7.1,35.7 20.1,48.8 13,13.1 30.3,20.3 48.7,20.3 h 0.1 c 18.4,0 35.6,-7.1 48.7,-20.1 26.9,-26.8 27,-70.6 0.2,-97.5 -13,-13 -30.3,-20.3 -48.7,-20.3 z m 0,210.4 h -0.3 C 367,340.8 331.5,326 304.9,299.3 278.2,272.5 263.6,237 263.7,199.2 263.8,161.4 278.6,125.9 305.3,99.3 332,72.7 367.4,58.1 405.1,58.1 h 0.3 c 37.8,0.1 73.3,14.8 99.9,41.6 55,55.2 54.9,145 -0.4,200 -26.7,26.6 -62.1,41.2 -99.8,41.2"
   id="path46"
   inkscape:connector-curvature="0"
   style="fill:#ffffff" />
















</svg>