<?xml version="1.0" encoding="UTF-8" standalone="no"?>
<!-- Generator: Adobe Illustrator 22.1.0, SVG Export Plug-In . SVG Version: 6.00 Build 0)  -->

<svg
   xmlns:dc="http://purl.org/dc/elements/1.1/"
   xmlns:cc="http://creativecommons.org/ns#"
   xmlns:rdf="http://www.w3.org/1999/02/22-rdf-syntax-ns#"
   xmlns:svg="http://www.w3.org/2000/svg"
   xmlns="http://www.w3.org/2000/svg"
   xmlns:sodipodi="http://sodipodi.sourceforge.net/DTD/sodipodi-0.dtd"
   xmlns:inkscape="http://www.inkscape.org/namespaces/inkscape"
   version="1.1"
   id="Layer_1"
   x="0px"
   y="0px"
   viewBox="0 0 800 800"
   xml:space="preserve"
   sodipodi:docname="basket.svg"
   inkscape:version="0.92.4 (5da689c313, 2019-01-14)"
   width="800"
   height="800"><metadata
   id="metadata85"><rdf:RDF><cc:Work
       rdf:about=""><dc:format>image/svg+xml</dc:format><dc:type
         rdf:resource="http://purl.org/dc/dcmitype/StillImage" /><dc:title></dc:title></cc:Work></rdf:RDF></metadata><defs
   id="defs83" /><sodipodi:namedview
   pagecolor="#ffffff"
   bordercolor="#666666"
   borderopacity="1"
   objecttolerance="10"
   gridtolerance="10"
   guidetolerance="10"
   inkscape:pageopacity="0"
   inkscape:pageshadow="2"
   inkscape:window-width="640"
   inkscape:window-height="480"
   id="namedview81"
   showgrid="false"
   inkscape:zoom="0.96438881"
   inkscape:cx="367.19647"
   inkscape:cy="429.98131"
   inkscape:current-layer="Layer_1" />
<style
   type="text/css"
   id="style2">
	.st0{fill:#00919B;}
	.st1{fill:#FFFFFF;}
	.st2{fill:#FF5A5F;}
</style>






































<path
   style="color:#000000;clip-rule:nonzero;display:inline;overflow:visible;visibility:visible;opacity:1;isolation:auto;mix-blend-mode:normal;color-interpolation:sRGB;color-interpolation-filters:linearRGB;solid-color:#000000;solid-opacity:1;vector-effect:none;fill:#0a3734;fill-opacity:1;fill-rule:nonzero;stroke:none;stroke-width:60;stroke-linecap:butt;stroke-linejoin:miter;stroke-miterlimit:4;stroke-dasharray:none;stroke-dashoffset:0;stroke-opacity:1;paint-order:markers stroke fill;color-rendering:auto;image-rendering:auto;shape-rendering:auto;text-rendering:auto;enable-background:accumulate"
   d="m 676.60938,241.91273 c -6.09576,0.10142 -11.20968,4.7836 -11.73243,10.99414 l -22.03917,261.82555 c -1.60614,16.5545 -6.98136,22.36754 -24.39314,22.43617 H 123.69863 c -8.33673,-0.80071 -8.99523,-1.6669 -10.82644,-9.2919 L 86.734375,329.69203 C 85.865119,323.1011 79.860457,318.49465 73.269531,319.3639 l -47.58789,6.27735 c -6.590926,0.86925 -11.197382,6.87391 -10.328125,13.46484 l 34.048828,258.16406 c 0.450165,3.41327 2.284213,6.28652 4.857422,8.15039 2.184173,2.30567 5.269585,3.74805 8.710937,3.74805 H 695.14453 c 3.39841,0 6.4516,-1.40483 8.63086,-3.66016 2.43268,-1.98246 4.08978,-4.91026 4.375,-8.29883 l 28.47266,-338.26367 c 0.55759,-6.62457 -4.3266,-12.40725 -10.95117,-12.96484 l -47.83204,-4.02539 c -0.41403,-0.0349 -0.82408,-0.0497 -1.23046,-0.043 z"
   id="rect823"
   inkscape:connector-curvature="0"
   sodipodi:nodetypes="ccccccscccccssccccccc" /><path
   style="color:#000000;clip-rule:nonzero;display:inline;overflow:visible;visibility:visible;opacity:1;isolation:auto;mix-blend-mode:normal;color-interpolation:sRGB;color-interpolation-filters:linearRGB;solid-color:#000000;solid-opacity:1;vector-effect:none;fill:#00919b;fill-opacity:1;fill-rule:nonzero;stroke:none;stroke-width:60;stroke-linecap:butt;stroke-linejoin:miter;stroke-miterlimit:4;stroke-dasharray:none;stroke-dashoffset:0;stroke-opacity:1;paint-order:markers stroke fill;color-rendering:auto;image-rendering:auto;shape-rendering:auto;text-rendering:auto;enable-background:accumulate"
   d="M 783.76081,49.887676 752.05738,13.847605 C 747.66645,8.8560487 740.11304,8.3725137 735.12148,12.763444 L 566.25404,161.31136 c -4.99155,4.39093 -5.47509,11.94434 -1.08416,16.93589 l 31.70343,36.04007 c 4.39093,4.99156 11.94434,5.47509 16.9359,1.08416 L 782.67665,66.823574 c 4.99156,-4.39093 5.47509,-11.94434 1.08416,-16.935898 z"
   id="rect845-6"
   inkscape:connector-curvature="0" /><path
   style="color:#000000;clip-rule:nonzero;display:inline;overflow:visible;visibility:visible;opacity:1;isolation:auto;mix-blend-mode:normal;color-interpolation:sRGB;color-interpolation-filters:linearRGB;solid-color:#000000;solid-opacity:1;vector-effect:none;fill:#00919b;fill-opacity:1;fill-rule:nonzero;stroke:none;stroke-width:76.49131012;stroke-linecap:butt;stroke-linejoin:miter;stroke-miterlimit:4;stroke-dasharray:none;stroke-dashoffset:0;stroke-opacity:1;paint-order:markers stroke fill;color-rendering:auto;image-rendering:auto;shape-rendering:auto;text-rendering:auto;enable-background:accumulate"
   d="m 629.13507,719.30798 a 69.994013,69.994013 0 0 1 -69.99402,69.99402 69.994013,69.994013 0 0 1 -69.99401,-69.99402 69.994013,69.994013 0 0 1 69.99401,-69.99401 69.994013,69.994013 0 0 1 69.99402,69.99401 z"
   id="path868-7"
   inkscape:connector-curvature="0" /><path
   inkscape:connector-curvature="0"
   id="path11"
   d="M 282.05332,719.30798 A 69.994013,69.994013 0 0 1 212.0593,789.302 69.994013,69.994013 0 0 1 142.06529,719.30798 69.994013,69.994013 0 0 1 212.0593,649.31397 69.994013,69.994013 0 0 1 282.05332,719.30798 Z"
   style="color:#000000;clip-rule:nonzero;display:inline;overflow:visible;visibility:visible;opacity:1;isolation:auto;mix-blend-mode:normal;color-interpolation:sRGB;color-interpolation-filters:linearRGB;solid-color:#000000;solid-opacity:1;vector-effect:none;fill:#00919b;fill-opacity:1;fill-rule:nonzero;stroke:none;stroke-width:76.49131012;stroke-linecap:butt;stroke-linejoin:miter;stroke-miterlimit:4;stroke-dasharray:none;stroke-dashoffset:0;stroke-opacity:1;paint-order:markers stroke fill;color-rendering:auto;image-rendering:auto;shape-rendering:auto;text-rendering:auto;enable-background:accumulate" /></svg>