<?xml version="1.0" encoding="UTF-8" standalone="no"?>
<!-- Generator: Adobe Illustrator 22.1.0, SVG Export Plug-In . SVG Version: 6.00 Build 0)  -->

<svg
   xmlns:dc="http://purl.org/dc/elements/1.1/"
   xmlns:cc="http://creativecommons.org/ns#"
   xmlns:rdf="http://www.w3.org/1999/02/22-rdf-syntax-ns#"
   xmlns:svg="http://www.w3.org/2000/svg"
   xmlns="http://www.w3.org/2000/svg"
   xmlns:sodipodi="http://sodipodi.sourceforge.net/DTD/sodipodi-0.dtd"
   xmlns:inkscape="http://www.inkscape.org/namespaces/inkscape"
   version="1.1"
   id="Layer_1"
   x="0px"
   y="0px"
   viewBox="0 0 800 800"
   xml:space="preserve"
   sodipodi:docname="pound.svg"
   inkscape:version="0.92.4 (5da689c313, 2019-01-14)"
   width="800"
   height="800"><metadata
   id="metadata85"><rdf:RDF><cc:Work
       rdf:about=""><dc:format>image/svg+xml</dc:format><dc:type
         rdf:resource="http://purl.org/dc/dcmitype/StillImage" /><dc:title></dc:title></cc:Work></rdf:RDF></metadata><defs
   id="defs83" /><sodipodi:namedview
   pagecolor="#ffffff"
   bordercolor="#666666"
   borderopacity="1"
   objecttolerance="10"
   gridtolerance="10"
   guidetolerance="10"
   inkscape:pageopacity="0"
   inkscape:pageshadow="2"
   inkscape:window-width="640"
   inkscape:window-height="480"
   id="namedview81"
   showgrid="false"
   inkscape:zoom="0.15644218"
   inkscape:cx="249.84772"
   inkscape:cy="1005.219"
   inkscape:current-layer="Layer_1" />
<style
   type="text/css"
   id="style2">
	.st0{fill:#00919B;}
	.st1{fill:#FFFFFF;}
	.st2{fill:#FF5A5F;}
</style>












<path
   class="st2"
   d="m 578.63394,726.85 h -398.6 c -6.5,0 -11.9,-5.3 -11.9,-11.9 v -440.5 c 0,-111 104.1,-201.3 232.1,-201.3 121,0 223.9,88.5 231.6,195.9 0.5,6.9 -4.9,12.9 -11.9,12.9 h -48.6 c -6,0 -11.1,-4.4 -11.7,-10.4 -6.7,-68.4 -78.3,-126.4 -159.4,-126.4 -88.2,0 -160,58 -160,129.2 v 380.3 h 338.4 c 6.5,0 11.8,5.3 11.8,11.9 v 48.4 c 0,6.6 -5.3,11.9 -11.8,11.9"
   id="path28"
   inkscape:connector-curvature="0"
   style="fill:#ff5a5f" />
<path
   class="st1"
   d="m 485.93394,500.25 h -151.4 c -6.5,0 -11.9,-5.3 -11.9,-11.8 v -48.5 c 0,-6.5 5.3,-11.9 11.9,-11.9 h 151.4 c 6.5,0 11.8,5.3 11.8,11.9 v 48.4 c 0,6.6 -5.3,11.9 -11.8,11.9"
   id="path30"
   inkscape:connector-curvature="0"
   style="fill:#ffffff" />
























</svg>