<?xml version="1.0" encoding="UTF-8" standalone="no"?>
<!-- Generator: Adobe Illustrator 22.1.0, SVG Export Plug-In . SVG Version: 6.00 Build 0)  -->

<svg
   xmlns:dc="http://purl.org/dc/elements/1.1/"
   xmlns:cc="http://creativecommons.org/ns#"
   xmlns:rdf="http://www.w3.org/1999/02/22-rdf-syntax-ns#"
   xmlns:svg="http://www.w3.org/2000/svg"
   xmlns="http://www.w3.org/2000/svg"
   xmlns:sodipodi="http://sodipodi.sourceforge.net/DTD/sodipodi-0.dtd"
   xmlns:inkscape="http://www.inkscape.org/namespaces/inkscape"
   version="1.1"
   id="Layer_1"
   x="0px"
   y="0px"
   viewBox="0 0 800 800"
   xml:space="preserve"
   sodipodi:docname="icon-dark-background-stories.svg"
   inkscape:version="0.92.4 (5da689c313, 2019-01-14)"
   width="800"
   height="800"><metadata
   id="metadata85"><rdf:RDF><cc:Work
       rdf:about=""><dc:format>image/svg+xml</dc:format><dc:type
         rdf:resource="http://purl.org/dc/dcmitype/StillImage" /><dc:title></dc:title></cc:Work></rdf:RDF></metadata><defs
   id="defs83" /><sodipodi:namedview
   pagecolor="#ffffff"
   bordercolor="#666666"
   borderopacity="1"
   objecttolerance="10"
   gridtolerance="10"
   guidetolerance="10"
   inkscape:pageopacity="0"
   inkscape:pageshadow="2"
   inkscape:window-width="1920"
   inkscape:window-height="1052"
   id="namedview81"
   showgrid="false"
   inkscape:zoom="0.44712961"
   inkscape:cx="841.81179"
   inkscape:cy="442.88044"
   inkscape:current-layer="Layer_1"
   inkscape:window-x="1920"
   inkscape:window-y="0"
   inkscape:window-maximized="1" />
<style
   type="text/css"
   id="style2">
	.st0{fill:#00919B;}
	.st1{fill:#0A3734;}
	.st2{fill:#FF5A5F;}
</style>




















<path
   class="st0"
   d="m 635.3993,741.9 h -48.4 c -6.5,0 -11.9,-5.3 -11.9,-11.8 v -85.5 c 0,-92.3 -80.2,-170.3 -175.1,-170.3 -94.9,0 -175.1,78 -175.1,170.3 v 85.5 c 0,6.5 -5.3,11.8 -11.8,11.8 h -48.4 c -6.5,0 -11.9,-5.3 -11.9,-11.8 v -85.5 c 0,-133.7 110.9,-242.4 247.2,-242.4 136.3,0 247.2,108.8 247.2,242.4 v 85.5 c 0.1,6.5 -5.2,11.8 -11.8,11.8"
   id="path44"
   inkscape:connector-curvature="0"
   style="fill:#ffffff;fill-opacity:1" />
<path
   class="st1"
   d="m 405.0993,130.5 c -18.4,0 -35.7,7.1 -48.7,20.1 v 0 c -13,13 -20.3,30.3 -20.3,48.7 0,18.4 7.1,35.7 20.1,48.8 13,13.1 30.3,20.3 48.7,20.3 h 0.1 c 18.4,0 35.6,-7.1 48.7,-20.1 26.9,-26.8 27,-70.6 0.2,-97.5 -13,-13 -30.3,-20.3 -48.7,-20.3 z m 0,210.4 h -0.3 c -37.8,-0.1 -73.3,-14.9 -99.9,-41.6 -26.7,-26.8 -41.3,-62.3 -41.2,-100.1 0.1,-37.8 14.9,-73.3 41.6,-99.9 26.7,-26.6 62.1,-41.2 99.8,-41.2 h 0.3 c 37.8,0.1 73.3,14.8 99.9,41.6 55,55.2 54.9,145 -0.4,200 -26.7,26.6 -62.1,41.2 -99.8,41.2"
   id="path46"
   inkscape:connector-curvature="0"
   style="fill:#ff5a5f;fill-opacity:1" />
















</svg>