<?xml version="1.0" encoding="UTF-8" standalone="no"?>
<svg
   xmlns:dc="http://purl.org/dc/elements/1.1/"
   xmlns:cc="http://creativecommons.org/ns#"
   xmlns:rdf="http://www.w3.org/1999/02/22-rdf-syntax-ns#"
   xmlns:svg="http://www.w3.org/2000/svg"
   xmlns="http://www.w3.org/2000/svg"
   xmlns:sodipodi="http://sodipodi.sourceforge.net/DTD/sodipodi-0.dtd"
   xmlns:inkscape="http://www.inkscape.org/namespaces/inkscape"
   xml:space="preserve"
   viewBox="0 0 800 800"
   y="0px"
   x="0px"
   id="Layer_1"
   version="1.1"
   sodipodi:docname="ok.svg"
   width="800"
   height="800"
   inkscape:version="0.92.4 (5da689c313, 2019-01-14)"><sodipodi:namedview
   pagecolor="#ffffff"
   bordercolor="#666666"
   borderopacity="1"
   objecttolerance="10"
   gridtolerance="10"
   guidetolerance="10"
   inkscape:pageopacity="0"
   inkscape:pageshadow="2"
   inkscape:window-width="640"
   inkscape:window-height="480"
   id="namedview169"
   showgrid="false"
   inkscape:zoom="1.1236811"
   inkscape:cx="770.3031"
   inkscape:cy="400.2382"
   inkscape:current-layer="Layer_1" /><metadata
   id="metadata335"><rdf:RDF><cc:Work
       rdf:about=""><dc:format>image/svg+xml</dc:format><dc:type
         rdf:resource="http://purl.org/dc/dcmitype/StillImage" /><dc:title /></cc:Work></rdf:RDF></metadata><defs
   id="defs333" />
<style
   id="style2"
   type="text/css">
	.st0{fill:#00919B;}
	.st1{fill:#0A3734;}
	.st2{fill:#FF5A5F;}
</style>












































<path
   id="path92"
   d="m 216.19778,484.32295 c 0.27,-0.46 0.55,-0.92 0.83,-1.37 -0.28,0.46 -0.56,0.92 -0.83,1.37 z"
   class="st0"
   inkscape:connector-curvature="0"
   style="fill:#ffffff" />
<path
   id="path94"
   d="m 219.27778,479.32295 c 0.26,-0.41 0.52,-0.82 0.78,-1.22 -0.27,0.4 -0.52,0.81 -0.78,1.22 z"
   class="st0"
   inkscape:connector-curvature="0"
   style="fill:#ffffff" />
<path
   id="path96"
   d="m 223.11778,473.53295 c 0.17,-0.25 0.35,-0.49 0.53,-0.74 -0.18,0.25 -0.36,0.49 -0.53,0.74 z"
   class="st0"
   inkscape:connector-curvature="0"
   style="fill:#ffffff" />
<path
   id="path98"
   d="m 226.34778,469.04295 c 0.32,-0.43 0.64,-0.86 0.97,-1.29 -0.33,0.42 -0.65,0.85 -0.97,1.29 z"
   class="st0"
   inkscape:connector-curvature="0"
   style="fill:#ffffff" />
<path
   id="path100"
   d="m 230.01778,464.26295 c 0.23,-0.29 0.46,-0.59 0.69,-0.88 -0.23,0.29 -0.46,0.59 -0.69,0.88 z"
   class="st0"
   inkscape:connector-curvature="0"
   style="fill:#ffffff" />
<path
   id="path102"
   d="m 234.16778,459.22295 c 0.28,-0.32 0.56,-0.64 0.84,-0.96 -0.28,0.32 -0.56,0.64 -0.84,0.96 z"
   class="st0"
   inkscape:connector-curvature="0"
   style="fill:#ffffff" />
<path
   id="path104"
   d="m 237.83778,455.09295 c 0.35,-0.38 0.7,-0.76 1.05,-1.14 -0.35,0.37 -0.7,0.75 -1.05,1.14 z"
   class="st0"
   inkscape:connector-curvature="0"
   style="fill:#ffffff" />
<path
   id="path106"
   d="m 242.27778,450.40295 c 0.12,-0.12 0.23,-0.24 0.34,-0.36 -0.12,0.12 -0.23,0.24 -0.34,0.36 z"
   class="st0"
   inkscape:connector-curvature="0"
   style="fill:#ffffff" />
<path
   id="path108"
   d="m 261.21778,591.24295 c -0.05,-0.31 -0.09,-0.62 -0.14,-0.93 0.04,0.31 0.09,0.62 0.14,0.93 z"
   class="st0"
   inkscape:connector-curvature="0"
   style="fill:#ffffff" />
<path
   id="path110"
   d="m 448.95778,648.58295 c -1.34,1.46 -2.71,2.89 -4.12,4.27 1.42,-1.39 2.79,-2.82 4.12,-4.27 z"
   class="st0"
   inkscape:connector-curvature="0"
   style="fill:#ffffff" />
<path
   id="path112"
   d="m 291.37778,498.22295 c 0.77,-0.78 1.55,-1.54 2.34,-2.29 -0.79,0.75 -1.57,1.51 -2.34,2.29 z"
   class="st0"
   inkscape:connector-curvature="0"
   style="fill:#ffffff" />
<path
   id="path114"
   d="m 368.22778,397.38295 c 0.43,0 0.87,-0.01 1.3,-0.01 -0.13,0 -0.26,-0.01 -0.39,-0.01 -0.3,0.01 -0.6,0.02 -0.91,0.02 z"
   class="st0"
   inkscape:connector-curvature="0"
   style="fill:#ffffff" />
<path
   id="path116"
   d="m 246.45778,446.29295 c 0.35,-0.33 0.7,-0.65 1.04,-0.98 -0.35,0.33 -0.7,0.65 -1.04,0.98 z"
   class="st0"
   inkscape:connector-curvature="0"
   style="fill:#ffffff" />
<path
   id="path118"
   d="m 250.55778,442.51295 c 0.35,-0.31 0.7,-0.63 1.06,-0.94 -0.36,0.31 -0.71,0.63 -1.06,0.94 z"
   class="st0"
   inkscape:connector-curvature="0"
   style="fill:#ffffff" />
<path
   id="path120"
   d="m 255.67778,438.10295 c 0.11,-0.09 0.22,-0.18 0.33,-0.27 -0.11,0.09 -0.22,0.18 -0.33,0.27 z"
   class="st0"
   inkscape:connector-curvature="0"
   style="fill:#ffffff" />
<path
   id="path122"
   d="m 259.84778,434.78295 c 0.39,-0.31 0.79,-0.61 1.19,-0.91 -0.41,0.3 -0.8,0.6 -1.19,0.91 z"
   class="st0"
   inkscape:connector-curvature="0"
   style="fill:#ffffff" />
<path
   id="path124"
   d="m 264.40778,431.35295 c 0.32,-0.23 0.64,-0.47 0.96,-0.7 -0.31,0.23 -0.63,0.47 -0.96,0.7 z"
   class="st0"
   inkscape:connector-curvature="0"
   style="fill:#ffffff" />
<path
   id="path126"
   d="m 269.72778,427.63295 c 0.28,-0.19 0.57,-0.37 0.85,-0.56 -0.29,0.19 -0.57,0.37 -0.85,0.56 z"
   class="st0"
   inkscape:connector-curvature="0"
   style="fill:#ffffff" />
<path
   id="path128"
   d="m 274.21778,424.72295 c 0.42,-0.26 0.84,-0.53 1.27,-0.79 -0.43,0.26 -0.85,0.53 -1.27,0.79 z"
   class="st0"
   inkscape:connector-curvature="0"
   style="fill:#ffffff" />
<path
   id="path130"
   d="m 279.36778,421.60295 c 0.22,-0.13 0.45,-0.27 0.67,-0.4 -0.22,0.14 -0.44,0.27 -0.67,0.4 z"
   class="st0"
   inkscape:connector-curvature="0"
   style="fill:#ffffff" />
<path
   id="path132"
   d="m 284.64778,418.65295 c 0.38,-0.2 0.76,-0.4 1.14,-0.6 -0.38,0.2 -0.76,0.39 -1.14,0.6 z"
   class="st0"
   inkscape:connector-curvature="0"
   style="fill:#ffffff" />
<path
   id="path134"
   d="m 289.45778,416.16295 c 0.43,-0.21 0.85,-0.43 1.28,-0.64 -0.42,0.22 -0.85,0.43 -1.28,0.64 z"
   class="st0"
   inkscape:connector-curvature="0"
   style="fill:#ffffff" />
<path
   id="path136"
   d="m 300.32778,411.19295 c 0.44,-0.18 0.88,-0.36 1.33,-0.54 -0.45,0.17 -0.89,0.35 -1.33,0.54 z"
   class="st0"
   inkscape:connector-curvature="0"
   style="fill:#ffffff" />
<path
   id="path138"
   d="m 305.46778,409.14295 c 0.41,-0.15 0.81,-0.31 1.21,-0.46 -0.4,0.14 -0.8,0.3 -1.21,0.46 z"
   class="st0"
   inkscape:connector-curvature="0"
   style="fill:#ffffff" />
<path
   id="path140"
   d="m 311.61778,406.91295 c 0.25,-0.08 0.5,-0.16 0.75,-0.25 -0.25,0.09 -0.5,0.16 -0.75,0.25 z"
   class="st0"
   inkscape:connector-curvature="0"
   style="fill:#ffffff" />
<path
   id="path142"
   d="m 316.63778,405.29295 c 0.48,-0.15 0.96,-0.29 1.44,-0.44 -0.48,0.15 -0.96,0.29 -1.44,0.44 z"
   class="st0"
   inkscape:connector-curvature="0"
   style="fill:#ffffff" />
<path
   id="path144"
   d="m 322.16778,403.68295 c 0.34,-0.09 0.68,-0.19 1.02,-0.28 -0.35,0.09 -0.68,0.19 -1.02,0.28 z"
   class="st0"
   inkscape:connector-curvature="0"
   style="fill:#ffffff" />
<path
   id="path146"
   d="m 328.23778,402.13295 c 0.4,-0.09 0.79,-0.18 1.19,-0.27 -0.4,0.1 -0.79,0.18 -1.19,0.27 z"
   class="st0"
   inkscape:connector-curvature="0"
   style="fill:#ffffff" />
<path
   id="path148"
   d="m 333.45778,400.99295 c 0.5,-0.1 0.99,-0.2 1.49,-0.3 -0.5,0.1 -1,0.2 -1.49,0.3 z"
   class="st0"
   inkscape:connector-curvature="0"
   style="fill:#ffffff" />
<path
   id="path150"
   d="m 339.58778,399.85295 c 0.17,-0.03 0.35,-0.06 0.52,-0.09 -0.17,0.02 -0.35,0.06 -0.52,0.09 z"
   class="st0"
   inkscape:connector-curvature="0"
   style="fill:#ffffff" />
<path
   id="path152"
   d="m 345.27778,398.98295 c 0.48,-0.06 0.95,-0.12 1.43,-0.18 -0.48,0.06 -0.96,0.12 -1.43,0.18 z"
   class="st0"
   inkscape:connector-curvature="0"
   style="fill:#ffffff" />
<path
   id="path154"
   d="m 350.68778,398.34295 c 0.48,-0.05 0.96,-0.1 1.44,-0.15 -0.48,0.05 -0.96,0.1 -1.44,0.15 z"
   class="st0"
   inkscape:connector-curvature="0"
   style="fill:#ffffff" />
<path
   id="path156"
   d="m 357.33778,397.76295 c 0.17,-0.01 0.34,-0.02 0.51,-0.03 -0.17,0.01 -0.34,0.02 -0.51,0.03 z"
   class="st0"
   inkscape:connector-curvature="0"
   style="fill:#ffffff" />
<path
   id="path158"
   d="m 362.59778,397.50295 c 0.52,-0.02 1.03,-0.03 1.55,-0.05 -0.52,0.01 -1.04,0.03 -1.55,0.05 z"
   class="st0"
   inkscape:connector-curvature="0"
   style="fill:#ffffff" />
<path
   id="path160"
   d="m 294.37778,495.30295 c 0.61,-0.57 1.22,-1.13 1.84,-1.69 -0.61,0.56 -1.23,1.12 -1.84,1.69 z"
   class="st0"
   inkscape:connector-curvature="0"
   style="fill:#ffffff" />
<path
   id="path162"
   d="m 296.90778,493.01295 c 0.82,-0.72 1.64,-1.42 2.47,-2.11 -0.84,0.69 -1.66,1.4 -2.47,2.11 z"
   class="st0"
   inkscape:connector-curvature="0"
   style="fill:#ffffff" />
<path
   id="path164"
   d="m 299.62778,490.69295 c 0.76,-0.62 1.52,-1.23 2.3,-1.83 -0.77,0.6 -1.54,1.21 -2.3,1.83 z"
   class="st0"
   inkscape:connector-curvature="0"
   style="fill:#ffffff" />
<path
   id="path166"
   d="m 302.68778,488.28295 c 0.67,-0.51 1.35,-1.01 2.03,-1.51 -0.69,0.5 -1.36,1 -2.03,1.51 z"
   class="st0"
   inkscape:connector-curvature="0"
   style="fill:#ffffff" />
<path
   id="path168"
   d="m 305.34778,486.31295 c 0.87,-0.62 1.75,-1.23 2.64,-1.83 -0.89,0.59 -1.77,1.2 -2.64,1.83 z"
   class="st0"
   inkscape:connector-curvature="0"
   style="fill:#ffffff" />
<path
   id="path170"
   d="m 308.56778,484.10295 c 0.72,-0.48 1.44,-0.94 2.17,-1.4 -0.73,0.45 -1.45,0.92 -2.17,1.4 z"
   class="st0"
   inkscape:connector-curvature="0"
   style="fill:#ffffff" />
<path
   id="path172"
   d="m 311.55778,482.18295 c 0.76,-0.47 1.53,-0.93 2.3,-1.38 -0.77,0.45 -1.54,0.91 -2.3,1.38 z"
   class="st0"
   inkscape:connector-curvature="0"
   style="fill:#ffffff" />
<path
   id="path174"
   d="m 314.35778,480.51295 c 0.92,-0.53 1.86,-1.05 2.79,-1.55 -0.94,0.51 -1.87,1.02 -2.79,1.55 z"
   class="st0"
   inkscape:connector-curvature="0"
   style="fill:#ffffff" />
<path
   id="path176"
   d="m 317.89778,478.56295 c 0.72,-0.38 1.45,-0.76 2.19,-1.12 -0.74,0.37 -1.46,0.74 -2.19,1.12 z"
   class="st0"
   inkscape:connector-curvature="0"
   style="fill:#ffffff" />
<path
   id="path178"
   d="m 320.92778,477.03295 c 0.95,-0.46 1.9,-0.91 2.85,-1.35 -0.96,0.43 -1.91,0.88 -2.85,1.35 z"
   class="st0"
   inkscape:connector-curvature="0"
   style="fill:#ffffff" />
<path
   id="path180"
   d="m 323.82778,475.65295 c 0.97,-0.44 1.95,-0.86 2.93,-1.27 -0.98,0.41 -1.96,0.83 -2.93,1.27 z"
   class="st0"
   inkscape:connector-curvature="0"
   style="fill:#ffffff" />
<path
   id="path182"
   d="m 327.63778,474.03295 c 0.75,-0.31 1.51,-0.61 2.27,-0.9 -0.77,0.29 -1.52,0.59 -2.27,0.9 z"
   class="st0"
   inkscape:connector-curvature="0"
   style="fill:#ffffff" />
<path
   id="path184"
   d="m 330.70778,472.82295 c 0.99,-0.37 1.99,-0.73 2.99,-1.07 -1,0.34 -2,0.7 -2.99,1.07 z"
   class="st0"
   inkscape:connector-curvature="0"
   style="fill:#ffffff" />
<path
   id="path186"
   d="m 334.22778,471.58295 c 0.85,-0.28 1.69,-0.56 2.55,-0.82 -0.86,0.26 -1.71,0.54 -2.55,0.82 z"
   class="st0"
   inkscape:connector-curvature="0"
   style="fill:#ffffff" />
<path
   id="path188"
   d="m 337.70778,470.48295 c 0.81,-0.24 1.63,-0.48 2.45,-0.7 -0.83,0.22 -1.64,0.46 -2.45,0.7 z"
   class="st0"
   inkscape:connector-curvature="0"
   style="fill:#ffffff" />
<path
   id="path190"
   d="m 340.82778,469.59295 c 1.02,-0.27 2.05,-0.53 3.08,-0.77 -1.03,0.24 -2.06,0.5 -3.08,0.77 z"
   class="st0"
   inkscape:connector-curvature="0"
   style="fill:#ffffff" />
<path
   id="path192"
   d="m 344.67778,468.65295 c 0.81,-0.18 1.62,-0.36 2.43,-0.53 -0.82,0.17 -1.63,0.34 -2.43,0.53 z"
   class="st0"
   inkscape:connector-curvature="0"
   style="fill:#ffffff" />
<path
   id="path194"
   d="m 348.03778,467.93295 c 0.93,-0.18 1.86,-0.35 2.79,-0.51 -0.93,0.16 -1.86,0.33 -2.79,0.51 z"
   class="st0"
   inkscape:connector-curvature="0"
   style="fill:#ffffff" />
<path
   id="path196"
   d="m 351.20778,467.35295 c 1.05,-0.17 2.1,-0.33 3.15,-0.47 -1.05,0.15 -2.1,0.3 -3.15,0.47 z"
   class="st0"
   inkscape:connector-curvature="0"
   style="fill:#ffffff" />
<path
   id="path198"
   d="m 355.25778,466.77295 c 0.81,-0.1 1.61,-0.2 2.42,-0.28 -0.81,0.08 -1.61,0.18 -2.42,0.28 z"
   class="st0"
   inkscape:connector-curvature="0"
   style="fill:#ffffff" />
<path
   id="path200"
   d="m 358.58778,466.40295 c 1.06,-0.1 2.12,-0.19 3.19,-0.26 -1.07,0.06 -2.13,0.16 -3.19,0.26 z"
   class="st0"
   inkscape:connector-curvature="0"
   style="fill:#ffffff" />
<path
   id="path202"
   d="m 362.10778,466.11295 c 0.96,-0.06 1.92,-0.11 2.89,-0.14 -0.96,0.04 -1.93,0.08 -2.89,0.14 z"
   class="st0"
   inkscape:connector-curvature="0"
   style="fill:#ffffff" />
<path
   id="path204"
   d="m 365.95778,465.94295 c 0.83,-0.02 1.66,-0.04 2.49,-0.04 -0.83,0.01 -1.66,0.02 -2.49,0.04 z"
   class="st0"
   inkscape:connector-curvature="0"
   style="fill:#ffffff" />
<path
   id="path206"
   d="m 369.26778,465.90295 c 1.01,0 2.01,0.02 3.02,0.05 -1.01,-0.04 -2.01,-0.05 -3.02,-0.05 z"
   class="st0"
   inkscape:connector-curvature="0"
   style="fill:#ffffff" />
<path
   id="path208"
   d="m 374.46778,397.45295 c 0.22,0.01 0.45,0.02 0.67,0.03 -0.22,-0.01 -0.44,-0.03 -0.67,-0.03 z"
   class="st0"
   inkscape:connector-curvature="0"
   style="fill:#ffffff" />
<path
   id="path210"
   d="m 379.42778,397.67295 c 0.54,0.03 1.08,0.07 1.62,0.11 -0.54,-0.04 -1.08,-0.08 -1.62,-0.11 z"
   class="st0"
   inkscape:connector-curvature="0"
   style="fill:#ffffff" />
<path
   id="path212"
   d="m 384.46778,398.04295 c 0.57,0.05 1.14,0.1 1.71,0.15 -0.57,-0.05 -1.14,-0.1 -1.71,-0.15 z"
   class="st0"
   inkscape:connector-curvature="0"
   style="fill:#ffffff" />
<path
   id="path214"
   d="m 389.83778,398.59295 c 0.44,0.05 0.88,0.1 1.32,0.15 -0.43,-0.05 -0.88,-0.09 -1.32,-0.15 z"
   class="st0"
   inkscape:connector-curvature="0"
   style="fill:#ffffff" />
<path
   id="path216"
   d="m 396.07778,399.43295 c 0.36,0.06 0.72,0.12 1.08,0.18 -0.36,-0.06 -0.72,-0.12 -1.08,-0.18 z"
   class="st0"
   inkscape:connector-curvature="0"
   style="fill:#ffffff" />
<path
   id="path218"
   d="m 401.02778,400.28295 c 0.56,0.1 1.12,0.21 1.68,0.32 -0.56,-0.11 -1.12,-0.22 -1.68,-0.32 z"
   class="st0"
   inkscape:connector-curvature="0"
   style="fill:#ffffff" />
<path
   id="path220"
   d="m 406.07778,401.28295 c 0.56,0.12 1.12,0.24 1.68,0.37 -0.56,-0.13 -1.12,-0.25 -1.68,-0.37 z"
   class="st0"
   inkscape:connector-curvature="0"
   style="fill:#ffffff" />
<path
   id="path222"
   d="m 411.56778,402.55295 c 0.37,0.09 0.74,0.18 1.12,0.27 -0.37,-0.09 -0.75,-0.18 -1.12,-0.27 z"
   class="st0"
   inkscape:connector-curvature="0"
   style="fill:#ffffff" />
<path
   id="path224"
   d="m 417.53778,404.13295 c 0.44,0.12 0.87,0.26 1.3,0.39 -0.43,-0.13 -0.87,-0.26 -1.3,-0.39 z"
   class="st0"
   inkscape:connector-curvature="0"
   style="fill:#ffffff" />
<path
   id="path226"
   d="m 422.42778,405.61295 c 0.56,0.18 1.12,0.36 1.68,0.55 -0.55,-0.18 -1.11,-0.37 -1.68,-0.55 z"
   class="st0"
   inkscape:connector-curvature="0"
   style="fill:#ffffff" />
<path
   id="path228"
   d="m 427.43778,407.29295 c 0.53,0.19 1.07,0.37 1.6,0.56 -0.53,-0.19 -1.06,-0.37 -1.6,-0.56 z"
   class="st0"
   inkscape:connector-curvature="0"
   style="fill:#ffffff" />
<path
   id="path230"
   d="m 433.13778,409.39295 c 0.24,0.09 0.48,0.18 0.71,0.27 -0.23,-0.09 -0.47,-0.18 -0.71,-0.27 z"
   class="st0"
   inkscape:connector-curvature="0"
   style="fill:#ffffff" />
<path
   id="path232"
   d="m 438.60778,411.62295 c 0.46,0.2 0.92,0.4 1.38,0.61 -0.46,-0.2 -0.92,-0.41 -1.38,-0.61 z"
   class="st0"
   inkscape:connector-curvature="0"
   style="fill:#ffffff" />
<path
   id="path234"
   d="m 443.39778,413.77295 c 0.54,0.25 1.08,0.51 1.62,0.76 -0.54,-0.26 -1.08,-0.51 -1.62,-0.76 z"
   class="st0"
   inkscape:connector-curvature="0"
   style="fill:#ffffff" />
<path
   id="path236"
   d="m 448.31778,416.15295 c 0.49,0.24 0.97,0.48 1.46,0.73 -0.48,-0.25 -0.97,-0.49 -1.46,-0.73 z"
   class="st0"
   inkscape:connector-curvature="0"
   style="fill:#ffffff" />
<path
   id="path238"
   d="m 492.98778,447.89295 c 10.74,10.47 20.06,22.26 27.79,35.12 -7.74,-12.86 -17.06,-24.65 -27.79,-35.12 z"
   class="st0"
   inkscape:connector-curvature="0"
   style="fill:#ffffff" />
<path
   id="path240"
   d="m 523.31778,487.36295 c 0.64,1.13 1.27,2.28 1.88,3.43 -0.62,-1.15 -1.24,-2.3 -1.88,-3.43 z"
   class="st0"
   inkscape:connector-curvature="0"
   style="fill:#ffffff" />
<path
   id="path242"
   d="m 527.26778,494.78295 c 1.34,2.66 2.61,5.36 3.82,8.1 -1.21,-2.73 -2.48,-5.44 -3.82,-8.1 z"
   class="st0"
   inkscape:connector-curvature="0"
   style="fill:#ffffff" />
<path
   id="path244"
   d="m 546.34778,577.15295 c -0.02,1.51 -0.06,3.02 -0.12,4.53 0.06,-1.51 0.1,-3.02 0.12,-4.53 z"
   class="st0"
   inkscape:connector-curvature="0"
   style="fill:#ffffff" />
<path
   id="path246"
   d="m 518.02778,670.84295 c -1.68,2.62 -3.42,5.19 -5.22,7.71 1.8,-2.52 3.54,-5.09 5.22,-7.71 z"
   class="st0"
   inkscape:connector-curvature="0"
   style="fill:#ffffff" />
<path
   id="path248"
   d="m 468.44778,721.73295 c 13.07,-8.84 24.88,-19.41 35.18,-31.49 -10.3,12.07 -22.11,22.65 -35.18,31.49 -3.8,2.57 -7.71,4.99 -11.71,7.27 4,-2.28 7.91,-4.7 11.71,-7.27 z"
   class="st0"
   inkscape:connector-curvature="0"
   style="fill:#ffffff" />
<path
   id="path250"
   d="m 412.71778,746.69295 c -0.38,0.1 -0.75,0.19 -1.13,0.29 0.38,-0.09 0.76,-0.19 1.13,-0.29 z"
   class="st0"
   inkscape:connector-curvature="0"
   style="fill:#ffffff" />
<path
   id="path252"
   d="m 406.21778,748.24295 c -0.32,0.07 -0.63,0.13 -0.95,0.2 0.31,-0.07 0.63,-0.13 0.95,-0.2 z"
   class="st0"
   inkscape:connector-curvature="0"
   style="fill:#ffffff" />
<path
   id="path254"
   d="m 400.22778,749.43295 c -0.24,0.04 -0.48,0.09 -0.73,0.14 0.24,-0.05 0.48,-0.1 0.73,-0.14 z"
   class="st0"
   inkscape:connector-curvature="0"
   style="fill:#ffffff" />
<path
   id="path256"
   d="m 394.05778,750.44295 c -0.39,0.06 -0.79,0.11 -1.18,0.17 0.39,-0.06 0.79,-0.12 1.18,-0.17 z"
   class="st0"
   inkscape:connector-curvature="0"
   style="fill:#ffffff" />
<path
   id="path258"
   d="m 387.39778,751.29295 c -0.17,0.02 -0.35,0.03 -0.52,0.05 0.17,-0.02 0.34,-0.03 0.52,-0.05 z"
   class="st0"
   inkscape:connector-curvature="0"
   style="fill:#ffffff" />
<path
   id="path260"
   d="m 381.69778,751.80295 c -0.35,0.03 -0.7,0.06 -1.05,0.08 0.35,-0.03 0.7,-0.06 1.05,-0.08 z"
   class="st0"
   inkscape:connector-curvature="0"
   style="fill:#ffffff" />
<path
   id="path262"
   d="m 376.46778,683.44295 c 0.28,-0.02 0.56,-0.05 0.84,-0.07 -0.28,0.02 -0.56,0.05 -0.84,0.07 z"
   class="st0"
   inkscape:connector-curvature="0"
   style="fill:#ffffff" />
<path
   id="path264"
   d="m 380.68778,683.05295 c 0.49,-0.05 0.98,-0.12 1.46,-0.18 -0.48,0.06 -0.97,0.13 -1.46,0.18 z"
   class="st0"
   inkscape:connector-curvature="0"
   style="fill:#ffffff" />
<path
   id="path266"
   d="m 384.92778,682.49295 c 0.53,-0.08 1.06,-0.17 1.59,-0.26 -0.53,0.09 -1.06,0.18 -1.59,0.26 z"
   class="st0"
   inkscape:connector-curvature="0"
   style="fill:#ffffff" />
<path
   id="path268"
   d="m 389.20778,681.75295 c 0.52,-0.1 1.05,-0.2 1.57,-0.31 -0.52,0.11 -1.04,0.21 -1.57,0.31 z"
   class="st0"
   inkscape:connector-curvature="0"
   style="fill:#ffffff" />
<path
   id="path270"
   d="m 393.63778,680.80295 c 0.45,-0.11 0.9,-0.2 1.35,-0.31 -0.45,0.11 -0.9,0.21 -1.35,0.31 z"
   class="st0"
   inkscape:connector-curvature="0"
   style="fill:#ffffff" />
<path
   id="path272"
   d="m 406.87778,676.82295 c -2.53,0.94 -5.11,1.79 -7.73,2.55 -0.01,0 -0.01,0 -0.02,0.01 0.01,0 0.01,0 0.02,-0.01 2.62,-0.76 5.2,-1.61 7.73,-2.55 1.69,-0.63 3.35,-1.29 5,-2 5.67,-2.43 11.09,-5.32 16.21,-8.63 -5.12,3.31 -10.54,6.2 -16.21,8.63 -1.64,0.71 -3.31,1.38 -5,2 z"
   class="st0"
   inkscape:connector-curvature="0"
   style="fill:#ffffff" />
<path
   id="path274"
   d="m 428.32778,666.06295 c 2.96,-1.93 5.83,-4 8.59,-6.2 0.86,-0.69 1.69,-1.41 2.52,-2.12 -0.84,0.71 -1.67,1.44 -2.52,2.12 -2.76,2.2 -5.63,4.27 -8.59,6.2 z"
   class="st0"
   inkscape:connector-curvature="0"
   style="fill:#ffffff" />
<path
   id="path276"
   d="m 421.36778,479.38295 c 8.37,4.61 15.98,10.2 22.72,16.62 -6.74,-6.41 -14.35,-12.01 -22.72,-16.62 -0.95,-0.52 -1.9,-1.02 -2.86,-1.51 0.96,0.49 1.92,0.99 2.86,1.51 z"
   class="st0"
   inkscape:connector-curvature="0"
   style="fill:#ffffff" />
<path
   id="path278"
   d="m 372.70778,465.96295 c 0.87,0.03 1.75,0.07 2.62,0.12 -0.87,-0.05 -1.74,-0.09 -2.62,-0.12 z"
   class="st0"
   inkscape:connector-curvature="0"
   style="fill:#ffffff" />
<path
   id="path280"
   d="m 376.32778,466.15295 c 0.7,0.05 1.4,0.1 2.1,0.16 -0.7,-0.06 -1.4,-0.12 -2.1,-0.16 z"
   class="st0"
   inkscape:connector-curvature="0"
   style="fill:#ffffff" />
<path
   id="path282"
   d="m 379.47778,466.40295 c 0.75,0.07 1.5,0.16 2.26,0.24 -0.76,-0.08 -1.51,-0.17 -2.26,-0.24 z"
   class="st0"
   inkscape:connector-curvature="0"
   style="fill:#ffffff" />
<path
   id="path284"
   d="m 382.53778,466.74295 c 1.01,0.13 2.02,0.27 3.02,0.42 -1,-0.15 -2.01,-0.29 -3.02,-0.42 z"
   class="st0"
   inkscape:connector-curvature="0"
   style="fill:#ffffff" />
<path
   id="path286"
   d="m 386.20778,467.27295 c 0.8,0.13 1.6,0.26 2.4,0.41 -0.8,-0.15 -1.6,-0.28 -2.4,-0.41 z"
   class="st0"
   inkscape:connector-curvature="0"
   style="fill:#ffffff" />
<path
   id="path288"
   d="m 389.61778,467.87295 c 0.7,0.13 1.39,0.28 2.09,0.43 -0.7,-0.15 -1.4,-0.29 -2.09,-0.43 z"
   class="st0"
   inkscape:connector-curvature="0"
   style="fill:#ffffff" />
<path
   id="path290"
   d="m 392.71778,468.52295 c 0.79,0.18 1.57,0.36 2.36,0.56 -0.78,-0.2 -1.57,-0.38 -2.36,-0.56 z"
   class="st0"
   inkscape:connector-curvature="0"
   style="fill:#ffffff" />
<path
   id="path292"
   d="m 395.74778,469.24295 c 1,0.25 1.99,0.52 2.99,0.81 -1,-0.29 -2,-0.56 -2.99,-0.81 z"
   class="st0"
   inkscape:connector-curvature="0"
   style="fill:#ffffff" />
<path
   id="path294"
   d="m 399.50778,470.28295 c 0.74,0.22 1.49,0.44 2.23,0.68 -0.74,-0.24 -1.48,-0.46 -2.23,-0.68 z"
   class="st0"
   inkscape:connector-curvature="0"
   style="fill:#ffffff" />
<path
   id="path296"
   d="m 402.75778,471.29295 c 0.69,0.23 1.38,0.46 2.06,0.7 -0.69,-0.24 -1.37,-0.48 -2.06,-0.7 z"
   class="st0"
   inkscape:connector-curvature="0"
   style="fill:#ffffff" />
<path
   id="path298"
   d="m 405.77778,472.33295 c 0.85,0.31 1.7,0.62 2.54,0.95 -0.84,-0.33 -1.69,-0.65 -2.54,-0.95 z"
   class="st0"
   inkscape:connector-curvature="0"
   style="fill:#ffffff" />
<path
   id="path300"
   d="m 408.73778,473.44295 c 0.98,0.39 1.95,0.79 2.93,1.21 -0.98,-0.42 -1.95,-0.83 -2.93,-1.21 z"
   class="st0"
   inkscape:connector-curvature="0"
   style="fill:#ffffff" />
<path
   id="path302"
   d="m 412.49778,475.01295 c 0.7,0.31 1.4,0.62 2.1,0.95 -0.7,-0.32 -1.4,-0.64 -2.1,-0.95 z"
   class="st0"
   inkscape:connector-curvature="0"
   style="fill:#ffffff" />
<path
   id="path304"
   d="m 415.58778,476.42295 c 0.68,0.32 1.36,0.66 2.04,1 -0.68,-0.34 -1.36,-0.67 -2.04,-1 z"
   class="st0"
   inkscape:connector-curvature="0"
   style="fill:#ffffff" />
<path
   id="path306"
   d="m 277.04778,516.19295 c -0.47,0.74 -0.93,1.48 -1.39,2.24 0.46,-0.76 0.92,-1.51 1.39,-2.24 z"
   class="st0"
   inkscape:connector-curvature="0"
   style="fill:#ffffff" />
<path
   id="path308"
   d="m 291.13778,498.46295 c -0.69,0.71 -1.38,1.42 -2.05,2.15 0.67,-0.73 1.36,-1.44 2.05,-2.15 z"
   class="st0"
   inkscape:connector-curvature="0"
   style="fill:#ffffff" />
<path
   id="path310"
   d="m 288.42778,501.32295 c -0.58,0.64 -1.16,1.28 -1.73,1.94 0.58,-0.65 1.15,-1.3 1.73,-1.94 z"
   class="st0"
   inkscape:connector-curvature="0"
   style="fill:#ffffff" />
<path
   id="path312"
   d="m 286.18778,503.86295 c -0.72,0.84 -1.42,1.69 -2.12,2.55 0.69,-0.87 1.4,-1.72 2.12,-2.55 z"
   class="st0"
   inkscape:connector-curvature="0"
   style="fill:#ffffff" />
<path
   id="path314"
   d="m 283.63778,506.95295 c -0.56,0.7 -1.11,1.41 -1.65,2.13 0.54,-0.72 1.09,-1.43 1.65,-2.13 z"
   class="st0"
   inkscape:connector-curvature="0"
   style="fill:#ffffff" />
<path
   id="path316"
   d="m 281.38778,509.88295 c -0.56,0.76 -1.12,1.53 -1.66,2.31 0.54,-0.78 1.1,-1.55 1.66,-2.31 z"
   class="st0"
   inkscape:connector-curvature="0"
   style="fill:#ffffff" />
<path
   id="path318"
   d="m 279.39778,512.64295 c -0.64,0.92 -1.26,1.86 -1.88,2.81 0.62,-0.95 1.24,-1.89 1.88,-2.81 z"
   class="st0"
   inkscape:connector-curvature="0"
   style="fill:#ffffff" />
<path
   id="path320"
   d="m 275.15778,519.26295 c -0.58,0.98 -1.16,1.98 -1.71,2.99 -1.54,2.8 -2.95,5.66 -4.23,8.56 1.28,-2.9 2.69,-5.75 4.23,-8.56 0.55,-1.01 1.13,-2 1.71,-2.99 z"
   class="st0"
   inkscape:connector-curvature="0"
   style="fill:#ffffff" />
<path
   id="path322"
   d="m 319.32599,400.23454 c 63.59545,-18.05985 132.08936,0.0118 178.74083,47.16379 21.35292,21.582 37.04171,48.48665 45.37067,77.80573 13.23597,46.62012 7.5298,95.60702 -16.07334,137.93637 -23.60314,42.32936 -62.27597,72.92503 -108.89617,86.17514 -9.3977,2.67225 -19.03892,4.60074 -28.65467,5.73032 -18.76458,2.21922 -37.64066,1.4821 -56.11219,-2.1874 -18.54919,-3.69112 -36.43942,-10.28499 -53.16952,-19.61627 -15.09446,-8.41744 -28.84175,-18.84299 -40.84749,-30.97753 -17.71673,-17.9068 -31.26563,-39.00875 -40.28922,-62.71703 -1.82694,-4.81814 -1.55771,-10.21908 0.75789,-14.81712 2.30137,-4.58398 6.45634,-8.01961 11.38535,-9.42169 l 38.49013,-10.93172 c 6.44454,-1.8324 13.37872,-0.0135 18.07693,4.73514 1.66687,1.68476 2.97862,3.66461 3.88615,5.86152 5.19372,12.60025 12.65731,23.86909 22.18735,33.50137 6.94181,7.01628 14.89297,13.04799 23.62821,17.91006 12.18271,6.79675 25.28417,11.03865 38.94424,12.63184 13.66007,1.59318 27.38416,0.46431 40.80435,-3.34616 26.95368,-7.64861 49.30816,-25.34868 62.96587,-49.81983 13.64358,-24.47123 16.94844,-52.79484 9.28569,-79.74859 -4.81693,-16.95408 -13.88406,-32.50246 -26.2274,-44.97822 -26.9795,-27.26895 -66.57885,-37.7193 -103.34103,-27.27334 -32.30762,9.1757 -58.46651,33.52359 -69.97033,65.14811 -3.16481,8.70187 -12.39785,13.64485 -21.46573,11.48926 l -38.92695,-9.24466 c -3.34749,-0.79569 -6.38606,-2.50191 -8.79143,-4.93308 -4.9092,-4.96187 -6.589,-12.17636 -4.37568,-18.81145 19.01455,-57.01944 64.84335,-100.85658 122.61749,-117.26456 z"
   class="st0"
   inkscape:connector-curvature="0"
   style="fill:#ffffff" />
<path
   id="path324"
   d="m 468.89778,393.06295 c -27.95,-15.39 -59.23,-24.12 -90.97,-25.49 l -150.88,-278.839997 c -3.67,-6.88 -1.05,-15.41 5.82,-19.08 l 47.07,-24.3 c 6.87,-3.66 15.41,-1.05 19.07,5.83 l 178.56,346.929997 c -2.84,-1.74 -5.73,-3.43 -8.67,-5.05 z"
   class="st2"
   inkscape:connector-curvature="0"
   style="fill:#ffffff" />
<path
   id="path326"
   d="m 468.89778,393.06295 c -6.06,-3.34 -12.29,-6.35 -18.63,-9.06 l -40.81,-275.27 c -1.07,-7.2 3.95,-13.879997 11.16,-14.859997 l 55.88,-6.42 c 7.17,-0.97 13.77,4.07 14.71,11.25 l 36.1,342.029997 c -16.16,-19.07 -35.84,-35.24 -58.41,-47.67 z"
   class="st1"
   inkscape:connector-curvature="0"
   style="fill:#ffffff" />
<path
   id="path328"
   d="m 503.57778,416.97295 35.71,-184.31 c 1.37,-7.08 8.22,-11.71 15.3,-10.34 l 47.43,9.15 c 7.1,1.37 11.74,8.25 10.34,15.35 l -49.91,253.42 c -12.47,-32.51 -32.64,-60.96 -58.87,-83.27 z"
   class="st1"
   inkscape:connector-curvature="0"
   style="fill:#ffffff" />
</svg>