<?xml version="1.0" encoding="UTF-8" standalone="no"?>
<!-- Generator: Adobe Illustrator 22.1.0, SVG Export Plug-In . SVG Version: 6.00 Build 0)  -->

<svg
   xmlns:dc="http://purl.org/dc/elements/1.1/"
   xmlns:cc="http://creativecommons.org/ns#"
   xmlns:rdf="http://www.w3.org/1999/02/22-rdf-syntax-ns#"
   xmlns:svg="http://www.w3.org/2000/svg"
   xmlns="http://www.w3.org/2000/svg"
   xmlns:sodipodi="http://sodipodi.sourceforge.net/DTD/sodipodi-0.dtd"
   xmlns:inkscape="http://www.inkscape.org/namespaces/inkscape"
   version="1.1"
   id="Layer_1"
   x="0px"
   y="0px"
   viewBox="0 0 800 800"
   xml:space="preserve"
   sodipodi:docname="home.svg"
   inkscape:version="0.92.4 (5da689c313, 2019-01-14)"
   width="800"
   height="800"><metadata
   id="metadata85"><rdf:RDF><cc:Work
       rdf:about=""><dc:format>image/svg+xml</dc:format><dc:type
         rdf:resource="http://purl.org/dc/dcmitype/StillImage" /><dc:title /></cc:Work></rdf:RDF></metadata><defs
   id="defs83" /><sodipodi:namedview
   pagecolor="#ffffff"
   bordercolor="#666666"
   borderopacity="1"
   objecttolerance="10"
   gridtolerance="10"
   guidetolerance="10"
   inkscape:pageopacity="0"
   inkscape:pageshadow="2"
   inkscape:window-width="640"
   inkscape:window-height="480"
   id="namedview81"
   showgrid="false"
   inkscape:zoom="0.23685895"
   inkscape:cx="975.88552"
   inkscape:cy="1207.217"
   inkscape:current-layer="Layer_1" />
<style
   type="text/css"
   id="style2">
	.st0{fill:#00919B;}
	.st1{fill:#FFFFFF;}
	.st2{fill:#FF5A5F;}
</style>
<path
   class="st0"
   d="m 692.05,787.3625 h -584 c -6.5,0 -11.9,-5.3 -11.9,-11.8 v -378 c 0,-6.5 5.3,-11.9 11.9,-11.9 h 48.4 c 6.5,0 11.9,5.3 11.9,11.9 v 317.8 h 463.5 v -317.8 c 0,-6.5 5.3,-11.9 11.9,-11.9 h 48.3 c 6.5,0 11.8,5.3 11.8,11.9 v 378 c 0,6.5 -5.3,11.8 -11.8,11.8"
   id="path4"
   inkscape:connector-curvature="0"
   style="fill:#ffffff" />
<path
   class="st1"
   d="m 639.15,270.3625 -224,-165.4 c -4.2,-3.1 -9.9,-3.1 -14.1,0 l -224,165.4 c -5.3,3.9 -12.7,2.8 -16.6,-2.5 l -29,-39.2 c -3.9,-5.3 -2.8,-12.7 2.5,-16.6 l 267,-197.1 c 4.2,-3.1 9.9,-3.1 14.1,0 l 267,197.1 c 5.3,3.9 6.4,11.3 2.5,16.6 l -29,39.2 c -3.7,5.3 -11.1,6.4 -16.4,2.5"
   id="path6"
   inkscape:connector-curvature="0"
   style="fill:#ffffff" />




































</svg>